<svg xmlns="http://www.w3.org/2000/svg" viewBox="0 0 1024 1024"><path d="M844.8 51.2H179.2c-42.342 0-76.8 34.458-76.8 76.8v76.8H76.8c-14.131 0-25.6 11.469-25.6 25.6S62.669 256 76.8 256h25.6v51.2H76.8c-14.131 0-25.6 11.469-25.6 25.6s11.469 25.6 25.6 25.6h25.6v51.2H76.8c-14.131 0-25.6 11.469-25.6 25.6s11.469 25.6 25.6 25.6h25.6V512H76.8c-14.131 0-25.6 11.469-25.6 25.6s11.469 25.6 25.6 25.6h25.6v51.2H76.8c-14.131 0-25.6 11.469-25.6 25.6s11.469 25.6 25.6 25.6h25.6v51.2H76.8c-14.131 0-25.6 11.469-25.6 25.6S62.669 768 76.8 768h25.6v51.2H76.8c-14.131 0-25.6 11.469-25.6 25.6s11.469 25.6 25.6 25.6h25.6v76.8c0 42.342 34.458 76.8 76.8 76.8h665.6c42.342 0 76.8-34.458 76.8-76.8V128c0-42.342-34.458-76.8-76.8-76.8zm25.6 896c0 14.131-11.469 25.6-25.6 25.6H179.2c-14.131 0-25.6-11.469-25.6-25.6v-76.8h76.8c14.131 0 25.6-11.469 25.6-25.6s-11.469-25.6-25.6-25.6h-76.8V768h76.8c14.131 0 25.6-11.469 25.6-25.6s-11.469-25.6-25.6-25.6h-76.8v-51.2h76.8c14.131 0 25.6-11.469 25.6-25.6s-11.469-25.6-25.6-25.6h-76.8v-51.2h76.8c14.131 0 25.6-11.469 25.6-25.6S244.531 512 230.4 512h-76.8v-51.2h76.8c14.131 0 25.6-11.469 25.6-25.6s-11.469-25.6-25.6-25.6h-76.8v-51.2h76.8c14.131 0 25.6-11.469 25.6-25.6s-11.469-25.6-25.6-25.6h-76.8V256h76.8c14.131 0 25.6-11.469 25.6-25.6s-11.469-25.6-25.6-25.6h-76.8V128c0-14.131 11.469-25.6 25.6-25.6h665.6c14.131 0 25.6 11.469 25.6 25.6v819.2zM569.037 774.605h-.051c-50.79 0-171.315-.768-192.973-7.885-22.118-7.27-33.28-31.846-28.365-62.618 5.274-33.126 27.29-67.789 58.829-92.723 27.75-21.914 77.466-48.077 156.672-48.128h.256c62.157 0 115.917 16.282 155.494 47.155 31.898 24.883 53.555 58.317 59.392 91.802 5.427 31.181-5.274 56.422-27.238 64.307-6.144 2.202-16.998 4.71-68.71 6.502-30.515 1.075-70.758 1.638-113.306 1.638zM397.67 718.848c21.658 2.355 85.862 4.557 171.366 4.557h.051c91.29 0 141.875-2.406 159.539-4.403.154-7.219-2.509-22.221-14.336-39.885-16.23-24.166-57.395-64.717-150.784-64.717h-.205c-93.082.051-134.451 40.499-150.835 64.614-11.878 17.51-14.746 32.461-14.694 39.782zM563.2 512c-56.474 0-102.4-45.926-102.4-102.4s45.926-102.4 102.4-102.4c56.474 0 102.4 45.926 102.4 102.4S619.674 512 563.2 512zm0-153.6c-28.211 0-51.2 22.989-51.2 51.2s22.989 51.2 51.2 51.2 51.2-22.989 51.2-51.2-22.989-51.2-51.2-51.2z"/></svg>