<svg xmlns="http://www.w3.org/2000/svg" viewBox="0 0 1024 1024"><path d="M682.189 993.382c-3.789 0-7.578-.819-11.059-2.509a25.668 25.668 0 0 1-13.261-15.053C637.031 912.793 578.407 870.45 512 870.45s-125.082 42.342-145.869 105.37a25.668 25.668 0 0 1-33.28 15.975c-53.35-19.917-102.707-48.486-146.688-84.787-5.376-4.454-8.704-10.854-9.216-17.766s1.792-13.773 6.4-18.995c44.134-49.562 51.507-121.446 18.278-178.995-27.341-47.36-78.387-76.8-133.171-76.8a153.268 153.268 0 0 0-30.976 3.174c-6.81 1.434-13.926 0-19.661-3.942s-9.626-10.035-10.803-16.896C2.355 568.833 0 540.366 0 512.103s2.355-56.73 7.014-84.685c1.126-6.861 5.018-12.954 10.803-16.896s12.851-5.376 19.661-3.942a153.268 153.268 0 0 0 30.976 3.174c54.784 0 105.83-29.44 133.171-76.8 33.178-57.498 25.856-129.434-18.278-178.995-4.608-5.171-6.963-12.032-6.4-18.995s3.84-13.363 9.216-17.766c43.981-36.352 93.389-64.87 146.688-84.787 6.502-2.458 13.773-2.099 20.019.922s11.059 8.448 13.261 15.053c20.838 63.027 79.462 105.37 145.869 105.37s125.082-42.342 145.869-105.37a25.668 25.668 0 0 1 33.28-15.975c53.35 19.917 102.707 48.486 146.688 84.787 5.376 4.454 8.704 10.854 9.216 17.766s-1.792 13.773-6.4 18.995c-44.134 49.562-51.507 121.446-18.278 178.995 27.341 47.411 78.387 76.8 133.171 76.8 10.394 0 20.838-1.075 30.976-3.174 6.81-1.434 13.926 0 19.661 3.942s9.626 10.035 10.803 16.896c4.659 27.955 7.014 56.422 7.014 84.685s-2.355 56.73-7.014 84.685c-1.126 6.861-5.018 12.954-10.803 16.896s-12.851 5.376-19.661 3.942a153.268 153.268 0 0 0-30.976-3.174c-54.784 0-105.83 29.44-133.171 76.8-33.178 57.498-25.856 129.434 18.278 178.995 4.608 5.171 6.963 12.032 6.4 18.995s-3.84 13.363-9.216 17.766c-43.981 36.352-93.338 64.87-146.688 84.787-2.918 1.075-5.939 1.638-8.96 1.638zM238.285 882.739c27.853 20.582 57.754 37.888 89.446 51.712C361.625 864.563 432.64 819.2 512 819.2s150.374 45.363 184.269 115.251c31.693-13.824 61.594-31.13 89.446-51.712-43.571-64.307-47.309-148.429-7.68-217.139 36.454-63.181 104.499-102.4 177.51-102.4 4.762 0 9.574.154 14.336.512 1.946-17.203 2.918-34.509 2.918-51.661s-.973-34.509-2.918-51.661c-4.762.358-9.574.512-14.336.512-73.011 0-141.056-39.219-177.51-102.4-39.68-68.71-35.942-152.883 7.68-217.139-27.853-20.582-57.754-37.888-89.446-51.712C662.375 159.539 591.36 204.902 512 204.902S361.626 159.539 327.731 89.651c-31.693 13.824-61.594 31.13-89.446 51.712 43.571 64.307 47.309 148.429 7.68 217.139-36.454 63.181-104.499 102.4-177.51 102.4-4.762 0-9.574-.154-14.336-.512-1.946 17.203-2.918 34.509-2.918 51.661s.973 34.509 2.918 51.661c4.762-.358 9.574-.512 14.336-.512 73.011 0 141.056 39.27 177.51 102.4 39.68 68.71 35.942 152.883-7.68 217.139zM512 665.6c-84.685 0-153.6-68.915-153.6-153.6S427.315 358.4 512 358.4 665.6 427.315 665.6 512 596.685 665.6 512 665.6zm0-256c-56.474 0-102.4 45.926-102.4 102.4S455.526 614.4 512 614.4c56.474 0 102.4-45.926 102.4-102.4S568.474 409.6 512 409.6z"/></svg>