<svg xmlns="http://www.w3.org/2000/svg" viewBox="0 0 1024 1024" enable-background="new 0 0 1024 1024"><path d="M874.1 149.9c-96.7-96.7-225.3-149.9-362.1-149.9s-265.3 53.2-362.1 149.9-149.9 225.3-149.9 362c0 136.8 53.2 265.4 149.9 362.1s225.3 149.9 362.1 149.9 265.3-53.2 362.1-149.9c96.7-96.7 149.9-225.3 149.9-362.1 0-136.7-53.2-265.3-149.9-362m-362.1 820.2c-252.6 0-458.1-205.5-458.1-458.1s205.5-458.1 458.1-458.1 458.1 205.5 458.1 458.1-205.5 458.1-458.1 458.1m315.4-477.1l-215.5-215.6c-10.5-10.5-27.6-10.5-38.1 0s-10.5 27.6 0 38.1l169.6 169.6h-554.8c-14.9 0-26.9 12.1-26.9 26.9 0 14.9 12.1 26.9 26.9 26.9h554.7l-169.5 169.7c-10.5 10.5-10.5 27.6 0 38.1 5.3 5.3 12.2 7.9 19 7.9s13.8-2.6 19-7.9l215.6-215.7c10.6-10.5 10.6-27.6 0-38z"/></svg>