<svg xmlns="http://www.w3.org/2000/svg" viewBox="0 0 972.82 870.45"><title>Warning2</title><g id="Layer_2" data-name="Layer 2"><g id="Layer_1-2" data-name="Layer 1"><path d="M947.22,870.45H25.62A25.62,25.62,0,0,1,3.3,832.26L464.1,13.06a25.6,25.6,0,0,1,44.64,0l460.8,819.2a25.62,25.62,0,0,1-22.32,38.19ZM69.4,819.25h834l-417-741.37Zm417-204.8a25.61,25.61,0,0,1-25.6-25.6v-256a25.6,25.6,0,1,1,51.2,0v256A25.61,25.61,0,0,1,486.42,614.45Zm0,153.6a25.61,25.61,0,0,1-25.6-25.6v-51.2a25.6,25.6,0,1,1,51.2,0v51.2A25.61,25.61,0,0,1,486.42,768.05Z"/></g></g></svg>