<svg xmlns="http://www.w3.org/2000/svg" viewBox="0 0 1024 1024"><path d="M281.6 307.2c-70.554 0-128-57.446-128-128s57.446-128 128-128 128 57.446 128 128-57.446 128-128 128zm0-204.8c-42.342 0-76.8 34.458-76.8 76.8s34.458 76.8 76.8 76.8 76.8-34.458 76.8-76.8-34.458-76.8-76.8-76.8zm51.2 460.8H128c-21.76 0-40.755-9.062-52.173-24.883s-13.978-36.71-7.117-57.344c1.126-3.328 11.725-33.229 43.469-63.078 28.877-27.136 81.715-59.443 169.421-59.443 19.456 0 38.195 1.587 55.706 4.71 13.926 2.509 23.194 15.821 20.685 29.696s-15.821 23.194-29.696 20.685c-14.541-2.611-30.259-3.942-46.694-3.942-133.581 0-164.045 86.63-164.301 87.501-1.587 4.762-1.536 8.96.102 11.264s5.632 3.635 10.65 3.635h204.8c14.131 0 25.6 11.469 25.6 25.6s-11.469 25.6-25.6 25.6zM128 358.4H76.8c-14.131 0-25.6-11.469-25.6-25.6V25.6C51.2 11.469 62.669 0 76.8 0H128c14.131 0 25.6 11.469 25.6 25.6S142.131 51.2 128 51.2h-25.6v256H128c14.131 0 25.6 11.469 25.6 25.6s-11.469 25.6-25.6 25.6zm358.4 0h-51.2c-14.131 0-25.6-11.469-25.6-25.6s11.469-25.6 25.6-25.6h25.6v-256h-25.6c-14.131 0-25.6-11.469-25.6-25.6S421.069 0 435.2 0h51.2C500.531 0 512 11.469 512 25.6v307.2c0 14.131-11.469 25.6-25.6 25.6zM665.6 768C580.915 768 512 699.085 512 614.4s68.915-153.6 153.6-153.6 153.6 68.915 153.6 153.6S750.285 768 665.6 768zm0-256c-56.474 0-102.4 45.926-102.4 102.4s45.926 102.4 102.4 102.4S768 670.874 768 614.4 722.074 512 665.6 512zM896 819.2h-51.2c-14.131 0-25.6-11.469-25.6-25.6s11.469-25.6 25.6-25.6h25.6V460.8h-25.6c-14.131 0-25.6-11.469-25.6-25.6s11.469-25.6 25.6-25.6H896c14.131 0 25.6 11.469 25.6 25.6v358.4c0 14.131-11.469 25.6-25.6 25.6zm-409.6 0h-51.2c-14.131 0-25.6-11.469-25.6-25.6V435.2c0-14.131 11.469-25.6 25.6-25.6h51.2c14.131 0 25.6 11.469 25.6 25.6s-11.469 25.6-25.6 25.6h-25.6V768h25.6c14.131 0 25.6 11.469 25.6 25.6s-11.469 25.6-25.6 25.6zM844.8 1024H486.4c-21.76 0-40.755-9.062-52.173-24.883s-13.978-36.71-7.117-57.344c1.69-5.018 43.11-122.522 238.49-122.522s236.851 117.555 238.49 122.522c6.861 20.634 4.301 41.523-7.117 57.344S866.56 1024 844.8 1024zm-369.203-65.843c-1.536 4.659-1.485 8.806.154 11.008s5.632 3.635 10.65 3.635h358.4c5.018 0 9.011-1.382 10.65-3.635s1.69-6.349.154-11.008c-.563-1.485-8.96-22.63-34.765-43.366-36.045-29.03-89.702-44.339-155.238-44.339s-119.142 15.36-155.238 44.339c-25.805 20.787-34.202 41.882-34.765 43.366z"/></svg>