<svg xmlns="http://www.w3.org/2000/svg" viewBox="0 0 1024 1024"><path d="M486.4 768C359.373 768 256 664.627 256 537.6s103.373-230.4 230.4-230.4 230.4 103.373 230.4 230.4S613.427 768 486.4 768zm0-409.6c-98.816 0-179.2 80.384-179.2 179.2s80.384 179.2 179.2 179.2 179.2-80.384 179.2-179.2-80.384-179.2-179.2-179.2zM896 921.6H76.8C34.458 921.6 0 887.142 0 844.8v-512C0 290.458 34.458 256 76.8 256h76.8c21.248 0 54.272-13.67 69.325-28.723l30.003-30.003c24.934-24.934 70.298-43.725 105.523-43.725h256c35.226 0 80.589 18.79 105.523 43.725l30.003 30.003C764.979 242.279 798.054 256 819.302 256h76.8c42.342 0 76.8 34.458 76.8 76.8v512c0 42.342-34.458 76.8-76.8 76.8zM76.8 307.2c-14.131 0-25.6 11.469-25.6 25.6v512c0 14.131 11.469 25.6 25.6 25.6H896c14.131 0 25.6-11.469 25.6-25.6v-512c0-14.131-11.469-25.6-25.6-25.6h-76.8c-35.226 0-80.589-18.79-105.523-43.725l-30.003-30.003c-15.002-15.002-48.077-28.723-69.325-28.723h-256c-21.248 0-54.272 13.67-69.325 28.723l-30.003 30.003c-24.934 24.934-70.246 43.725-105.523 43.725h-76.8z"/></svg>