<svg xmlns="http://www.w3.org/2000/svg" viewBox="0 0 1024 1024"><path d="M819.2 540.16V281.6c0-42.342-34.458-76.8-76.8-76.8h-40.602l-43.725-43.725c-4.813-4.813-11.315-7.475-18.125-7.475h-256c-6.81 0-13.312 2.714-18.125 7.475L322.098 204.8h-40.602c-42.342 0-76.8 34.458-76.8 76.8v258.611C106.75 560.589-.104 598.272-.104 665.6c0 98.816 233.882 143.616 434.125 152.013h1.075c13.67 0 24.986-10.752 25.549-24.525.614-14.131-10.394-26.061-24.525-26.624-110.95-4.608-212.326-19.507-285.44-41.83-78.797-24.064-99.635-49.152-99.635-59.034 0-7.322 10.957-21.35 41.728-36.71 27.494-13.722 65.843-26.112 111.974-36.301 1.946 40.602 35.635 73.062 76.698 73.062h460.8c41.114 0 74.752-32.461 76.698-73.062 46.131 10.189 84.429 22.579 111.974 36.301 30.822 15.36 41.728 29.389 41.728 36.71 0 10.957-24.115 38.349-115.354 63.59-84.122 23.245-197.837 36.966-320.205 38.656-12.493.154-23.04 9.318-24.934 21.658s5.325 24.269 17.152 28.211l153.6 51.354a25.094 25.094 0 0 0 8.141 1.331c10.701 0 20.685-6.758 24.269-17.51 4.506-13.414-2.765-27.904-16.179-32.41l-25.344-8.499c74.035-6.758 141.517-18.125 197.12-33.485 101.478-28.058 152.934-66.048 152.934-112.947 0-67.328-106.854-105.011-204.8-125.44zm-76.8 74.24H281.6c-14.131 0-25.6-11.469-25.6-25.6v-27.085V281.6c0-14.131 11.469-25.6 25.6-25.6h51.2c6.81 0 13.312-2.714 18.125-7.475L394.65 204.8h234.803l43.725 43.725c4.813 4.813 11.315 7.475 18.125 7.475h51.2c14.131 0 25.6 11.469 25.6 25.6V588.851c0 14.131-11.469 25.6-25.6 25.6zM512 563.2c-84.685 0-153.6-68.915-153.6-153.6S427.315 256 512 256s153.6 68.915 153.6 153.6S596.685 563.2 512 563.2zm0-256c-56.474 0-102.4 45.926-102.4 102.4S455.526 512 512 512c56.474 0 102.4-45.926 102.4-102.4S568.474 307.2 512 307.2z"/></svg>