<?xml version="1.0" encoding="UTF-8"?>
<svg width="1024px" height="1024px" viewBox="0 0 1024 1024" version="1.1" xmlns="http://www.w3.org/2000/svg" xmlns:xlink="http://www.w3.org/1999/xlink">
    <!-- Generator: Sketch 48.1 (47250) - http://www.bohemiancoding.com/sketch -->
    <title>Artboard</title>
    <desc>Created with Sketch.</desc>
    <defs></defs>
    <g id="Page-1" stroke="none" stroke-width="1" fill="none" fill-rule="evenodd">
        <g id="Artboard" fill="#000000" fill-rule="nonzero">
            <path d="M188.631579,889.526316 L26.9473684,889.526316 C12.0726316,889.526316 0,877.453684 0,862.578947 L0,485.315789 C0,470.441053 12.0726316,458.368421 26.9473684,458.368421 L188.631579,458.368421 C203.506316,458.368421 215.578947,470.441053 215.578947,485.315789 L215.578947,862.578947 C215.578947,877.453684 203.506316,889.526316 188.631579,889.526316 Z M53.8947368,835.631579 L161.684211,835.631579 L161.684211,512.263158 L53.8947368,512.263158 L53.8947368,835.631579 Z M458.105263,889.526316 L296.421053,889.526316 C281.546316,889.526316 269.473684,877.453684 269.473684,862.578947 L269.473684,323.631579 C269.473684,308.756842 281.546316,296.684211 296.421053,296.684211 L458.105263,296.684211 C472.98,296.684211 485.052632,308.756842 485.052632,323.631579 L485.052632,862.578947 C485.052632,877.453684 472.98,889.526316 458.105263,889.526316 Z M323.368421,835.631579 L431.157895,835.631579 L431.157895,350.578947 L323.368421,350.578947 L323.368421,835.631579 Z M727.578947,889.526316 L565.894737,889.526316 C551.02,889.526316 538.947368,877.453684 538.947368,862.578947 L538.947368,377.526316 C538.947368,362.651579 551.02,350.578947 565.894737,350.578947 L727.578947,350.578947 C742.453684,350.578947 754.526316,362.651579 754.526316,377.526316 L754.526316,862.578947 C754.526316,877.453684 742.453684,889.526316 727.578947,889.526316 Z M592.842105,835.631579 L700.631579,835.631579 L700.631579,404.473684 L592.842105,404.473684 L592.842105,835.631579 Z M997.052632,889.526316 L835.368421,889.526316 C820.493684,889.526316 808.421053,877.453684 808.421053,862.578947 L808.421053,161.947368 C808.421053,147.072632 820.493684,135 835.368421,135 L997.052632,135 C1011.92737,135 1024,147.072632 1024,161.947368 L1024,862.578947 C1024,877.453684 1011.92737,889.526316 997.052632,889.526316 Z M862.315789,835.631579 L970.105263,835.631579 L970.105263,188.894737 L862.315789,188.894737 L862.315789,835.631579 Z" id="Shape"></path>
        </g>
    </g>
</svg>