<svg xmlns="http://www.w3.org/2000/svg" viewBox="0 0 1024 1024"><path d="M844.8 204.8h-128v-128C716.8 34.458 682.342 0 640 0H256c-6.81 0-13.312 2.714-18.125 7.475l-179.2 179.2C53.862 191.488 51.2 197.99 51.2 204.8v537.6c0 42.342 34.458 76.8 76.8 76.8h128v128c0 42.342 34.458 76.8 76.8 76.8h512c42.342 0 76.8-34.458 76.8-76.8V281.6c0-42.342-34.458-76.8-76.8-76.8zM256 61.798V179.2c0 14.131-11.469 25.6-25.6 25.6H112.998L256 61.798zM128 768c-14.131 0-25.6-11.469-25.6-25.6V256h128c42.342 0 76.8-34.458 76.8-76.8v-128H640c14.131 0 25.6 11.469 25.6 25.6v128H460.8c-6.81 0-13.312 2.714-18.125 7.475l-179.2 179.2C258.662 396.288 256 402.79 256 409.6V768H128zm332.8-501.402V384c0 14.131-11.469 25.6-25.6 25.6H317.798L460.8 266.598zM870.4 947.2c0 14.131-11.469 25.6-25.6 25.6h-512c-14.131 0-25.6-11.469-25.6-25.6V460.8h128c42.342 0 76.8-34.458 76.8-76.8V256h332.8c14.131 0 25.6 11.469 25.6 25.6v665.6z"/></svg>