<svg xmlns="http://www.w3.org/2000/svg" viewBox="0 0 1024 1024"><path d="M548.198 537.6l289.075-289.075c9.984-9.984 9.984-26.214 0-36.198s-26.214-9.984-36.198 0L512 501.402 222.925 212.327c-9.984-9.984-26.214-9.984-36.198 0s-9.984 26.214 0 36.198L475.802 537.6 186.727 826.675c-9.984 9.984-9.984 26.214 0 36.198 5.018 5.018 11.571 7.475 18.125 7.475s13.107-2.509 18.125-7.475l289.075-289.075 289.075 289.075c5.018 5.018 11.571 7.475 18.125 7.475s13.107-2.509 18.125-7.475c9.984-9.984 9.984-26.214 0-36.198L548.302 537.6z"/></svg>