<svg xmlns="http://www.w3.org/2000/svg" viewBox="0 0 1024 1024"><path d="M896 1024c-3.891 0-7.834-.87-11.469-2.714L793.6 975.82l-90.931 45.466a25.7 25.7 0 0 1-22.886 0l-90.931-45.466-90.931 45.466a25.7 25.7 0 0 1-22.886 0l-90.931-45.466-90.931 45.466a25.7 25.7 0 0 1-22.886 0l-90.931-45.466-90.931 45.466c-7.936 3.942-17.357 3.533-24.883-1.126s-12.134-12.902-12.134-21.76V76.8c0-9.677 5.478-18.586 14.131-22.886l102.4-51.2a25.7 25.7 0 0 1 22.886 0l90.931 45.466 90.931-45.466a25.7 25.7 0 0 1 22.886 0l90.931 45.466 90.931-45.466a25.7 25.7 0 0 1 22.886 0l90.931 45.466 90.931-45.466a25.7 25.7 0 0 1 22.886 0l102.4 51.2c8.653 4.352 14.131 13.21 14.131 22.886v921.6a25.625 25.625 0 0 1-12.134 21.76c-4.096 2.56-8.755 3.84-13.466 3.84zM588.8 921.6c3.942 0 7.834.922 11.469 2.714L691.2 969.78l90.931-45.466a25.7 25.7 0 0 1 22.886 0l65.331 32.666V92.622l-76.8-38.4-90.931 45.466a25.7 25.7 0 0 1-22.886 0L588.8 54.222l-90.931 45.466a25.7 25.7 0 0 1-22.886 0l-90.931-45.466-90.931 45.466a25.7 25.7 0 0 1-22.886 0l-90.931-45.466-76.8 38.4V956.98l65.331-32.666a25.7 25.7 0 0 1 22.886 0l90.931 45.466 90.931-45.466a25.7 25.7 0 0 1 22.886 0L486.4 969.78l90.931-45.466A25.692 25.692 0 0 1 588.8 921.6zm0-256H409.6v-51.2h179.2c14.131 0 25.6-11.469 25.6-25.6s-11.469-25.6-25.6-25.6H512v-25.6c0-14.131-11.469-25.6-25.6-25.6s-25.6 11.469-25.6 25.6v25.6H384c-14.131 0-25.6 11.469-25.6 25.6v102.4c0 14.131 11.469 25.6 25.6 25.6h179.2V768H384c-14.131 0-25.6 11.469-25.6 25.6s11.469 25.6 25.6 25.6h76.8v25.6c0 14.131 11.469 25.6 25.6 25.6s25.6-11.469 25.6-25.6v-25.6h76.8c14.131 0 25.6-11.469 25.6-25.6V691.2c0-14.131-11.469-25.6-25.6-25.6zM640 256H332.8c-14.131 0-25.6-11.469-25.6-25.6s11.469-25.6 25.6-25.6H640c14.131 0 25.6 11.469 25.6 25.6S654.131 256 640 256zm102.4 102.4h-512c-14.131 0-25.6-11.469-25.6-25.6s11.469-25.6 25.6-25.6h512c14.131 0 25.6 11.469 25.6 25.6s-11.469 25.6-25.6 25.6zm0 102.4h-512c-14.131 0-25.6-11.469-25.6-25.6s11.469-25.6 25.6-25.6h512c14.131 0 25.6 11.469 25.6 25.6s-11.469 25.6-25.6 25.6z"/></svg>