<svg xmlns="http://www.w3.org/2000/svg" viewBox="0 0 1024 1024"><path d="M179.2 870.4a25.63 25.63 0 0 1-18.125-7.526c-7.014-7.014-9.37-17.51-5.939-26.829l102.4-281.6c1.28-3.533 3.328-6.707 5.939-9.37l537.6-537.6c9.984-9.984 26.214-9.984 36.198 0l179.2 179.2c9.984 9.984 9.984 26.214 0 36.198l-537.6 537.6a25.419 25.419 0 0 1-9.37 5.939l-281.6 102.4a25.855 25.855 0 0 1-8.755 1.536zm124.518-293.12l-81.715 224.717 224.717-81.715L962.202 204.8 819.2 61.798 303.718 577.28zM896 1024H76.8C34.458 1024 0 989.542 0 947.2V128c0-42.342 34.458-76.8 76.8-76.8h512c14.131 0 25.6 11.469 25.6 25.6s-11.469 25.6-25.6 25.6h-512c-14.131 0-25.6 11.469-25.6 25.6v819.2c0 14.131 11.469 25.6 25.6 25.6H896c14.131 0 25.6-11.469 25.6-25.6v-512c0-14.131 11.469-25.6 25.6-25.6s25.6 11.469 25.6 25.6v512c0 42.342-34.458 76.8-76.8 76.8z"/></svg>