<svg xmlns="http://www.w3.org/2000/svg" viewBox="0 0 1024 1024"><path d="M1017.446 520.499c-2.406-2.714-60.518-66.816-151.347-131.686-53.606-38.298-107.52-68.813-160.256-90.778-66.816-27.853-132.045-41.984-193.843-41.984s-127.027 14.131-193.843 41.984c-52.736 21.965-106.65 52.531-160.256 90.778C67.072 453.683 8.96 517.837 6.554 520.499c-8.755 9.728-8.755 24.525 0 34.253 2.406 2.714 60.518 66.816 151.347 131.686 53.606 38.298 107.52 68.813 160.256 90.778C384.973 805.069 450.202 819.2 512 819.2s127.027-14.131 193.843-41.984c52.736-21.965 106.65-52.531 160.256-90.778 90.829-64.87 148.941-129.024 151.347-131.686 8.755-9.728 8.755-24.525 0-34.253zM643.789 329.626C690.227 368.692 716.8 425.524 716.8 486.4c0 112.947-91.853 204.8-204.8 204.8s-204.8-91.853-204.8-204.8c0-60.826 26.573-117.709 73.011-156.774C422.297 315.904 466.79 307.2 512 307.2s89.702 8.704 131.789 22.426zM835.43 645.427C756.94 701.337 637.132 768 512 768s-244.941-66.662-323.43-122.573C129.332 603.238 84.02 560.537 61.133 537.6c22.886-22.938 68.198-65.587 127.437-107.827 27.136-19.354 59.187-39.936 94.72-58.624C265.524 406.375 256 445.645 256 486.4c0 141.158 114.842 256 256 256s256-114.842 256-256c0-40.755-9.523-80.026-27.29-115.251 35.533 18.688 67.584 39.322 94.72 58.624 59.238 42.189 104.55 84.89 127.437 107.827-22.886 22.938-68.198 65.587-127.437 107.827z"/></svg>