<svg id="Layer_1" data-name="Layer 1" xmlns="http://www.w3.org/2000/svg" viewBox="0 0 1024 1024"><title>Artboard 1</title><path d="M1017.45,520.5c-2.41-2.71-60.52-66.82-151.35-131.69C812.49,350.52,758.58,320,705.84,298c-66.81-27.86-132-42-193.84-42s-127,14.13-193.84,42c-52.74,22-106.65,52.53-160.26,90.77C67.07,453.68,9,517.84,6.55,520.5a25.63,25.63,0,0,0,0,34.25C9,557.47,67.07,621.57,157.9,686.44c53.61,38.3,107.52,68.81,160.26,90.78,66.81,27.85,132,42,193.84,42s127-14.13,193.84-42c52.74-22,106.65-52.54,160.26-90.78,90.83-64.87,148.94-129,151.35-131.69a25.63,25.63,0,0,0,0-34.25ZM643.79,329.63a203.91,203.91,0,0,1,73,156.77c0,113-91.85,204.8-204.8,204.8S307.2,599.35,307.2,486.4a204,204,0,0,1,73-156.77C422.3,315.9,466.79,307.2,512,307.2S601.7,315.9,643.79,329.63Zm191.64,315.8C756.94,701.34,637.13,768,512,768S267.06,701.34,188.57,645.43A1024.82,1024.82,0,0,1,61.13,537.6,1029.22,1029.22,0,0,1,188.57,429.77a830.33,830.33,0,0,1,94.72-58.62A255.31,255.31,0,0,0,256,486.4c0,141.16,114.84,256,256,256s256-114.84,256-256a255.31,255.31,0,0,0-27.29-115.25,837.45,837.45,0,0,1,94.72,58.62A1024.82,1024.82,0,0,1,962.87,537.6,1029.22,1029.22,0,0,1,835.43,645.43Z"/><rect x="36.98" y="496.5" width="942.05" height="55" transform="translate(-221.73 512.69) rotate(-45)"/></svg>