<?xml version="1.0" encoding="utf-8"?>
<!-- Generator: Adobe Illustrator 16.0.0, SVG Export Plug-In . SVG Version: 6.00 Build 0)  -->
<!DOCTYPE svg PUBLIC "-//W3C//DTD SVG 1.1//EN" "http://www.w3.org/Graphics/SVG/1.1/DTD/svg11.dtd">
<svg version="1.1" id="Layer_1" xmlns="http://www.w3.org/2000/svg" xmlns:xlink="http://www.w3.org/1999/xlink" x="0px" y="0px"
	 width="1024px" height="1024px" viewBox="0 0 1024 1024" enable-background="new 0 0 1024 1024" xml:space="preserve">
<g>
	<path fill="#010101" d="M512.25,947.564c-17.326,0-34.652-1.084-53.061-3.251c-65.405-8.22-126.204-30.604-179.216-64.06
		c-18.191,18.222-36.379,36.446-54.574,54.664c81.872,55.784,180.661,88.446,286.849,88.446c20.575,0,37.9-17.326,37.9-37.9
		S532.823,947.564,512.25,947.564z"/>
	<path fill="#010101" d="M104.071,773.383c11.931-11.947,23.855-23.902,35.784-35.852C108.84,686.294,88.022,628.003,80.186,565.31
		c-2.166-18.407-3.249-35.732-3.249-53.06c0-20.574-17.326-37.9-37.9-37.9s-37.9,17.326-37.9,37.9
		c0,103.301,30.906,199.604,83.943,280.139C91.408,786.052,97.742,779.721,104.071,773.383z"/>
	<path fill="#010101" d="M184.009,693.295c18.858-18.895,37.721-37.785,56.577-56.683c-17.452-37.903-27.208-80.029-27.208-124.362
		c0-164.596,134.275-298.872,298.872-298.872c44.068,0,85.958,9.634,123.684,26.89c18.853-18.9,37.701-37.804,56.556-56.702
		c-25.568-14.043-52.944-25.196-81.698-32.994c-32.486-8.663-64.976-12.994-98.543-12.994
		c-206.827,0-374.671,167.844-374.671,374.672c0,33.57,4.332,66.055,12.993,98.539C158.45,639.846,169.756,667.496,184.009,693.295z
		"/>
	<path fill="#010101" d="M512.25,811.122c-47.458,0-92.383-11.182-132.308-31.016c-18.701,18.741-37.409,37.475-56.112,56.213
		c27.876,16.235,58.035,28.975,89.877,37.609c32.486,8.662,64.973,12.993,98.541,12.993c20.575,0,37.9-17.325,37.9-37.9
		c0-9.743-4.332-19.489-10.828-27.07C532.823,814.37,521.994,811.122,512.25,811.122z"/>
	<path fill="#010101" d="M835.851,323.036c-18.696,18.74-37.39,37.483-56.084,56.225c20.046,40.094,31.354,85.262,31.354,132.989
		c0,9.746,4.332,19.492,10.829,27.071c7.58,7.58,16.243,10.829,27.071,10.829c20.574,0,37.9-17.326,37.9-37.9
		c0-33.569-4.331-66.055-12.994-98.541C865.21,381.563,852.309,351.134,835.851,323.036z"/>
	<path fill="#010101" d="M394.217,16.297c-3.249,0-6.497,0-9.745,1.082C250.196,52.031,138.66,136.494,69.356,255.61
		c-5.415,8.663-6.497,19.492-4.331,29.237c2.165,9.745,8.663,18.409,17.326,22.74c5.415,3.249,11.912,5.415,18.409,5.415
		c12.995,0,25.989-7.581,32.485-18.41c58.476-101.789,153.768-174.341,268.552-203.578c20.573-5.415,32.485-25.989,27.07-46.563
		C426.702,28.208,411.541,16.297,394.217,16.297z"/>
	<path fill="#010101" d="M699.746,459.482c-9.023,9.048-18.049,18.095-27.073,27.143c1.316,8.346,2.008,16.902,2.008,25.624
		c0,89.878-72.552,162.43-162.43,162.43c-20.576,0.001-37.901,17.327-37.901,37.902s17.326,37.899,37.9,37.899
		c38.983,0,77.967-9.746,112.619-28.154c42.229-22.74,75.801-56.308,97.454-97.456c18.409-34.652,28.155-73.635,28.155-112.619
		c0-30.673-5.876-60.039-16.556-87.031C722.531,436.641,711.138,448.06,699.746,459.482z"/>
	<path fill="#010101" d="M311.92,550.149c8.395,0,16.247-2.887,22.604-7.699c2.556-2.562,5.112-5.124,7.667-7.686
		c4.771-6.342,7.629-14.161,7.629-22.516c0-89.878,72.553-162.43,162.431-162.43c4.659,0,9.269,0.206,13.827,0.588
		c21.104-21.161,42.212-42.32,63.316-63.48c-24.223-8.356-50.178-12.907-77.146-12.907c-131.026,0-238.229,107.203-238.229,238.229
		C274.019,532.823,291.345,550.149,311.92,550.149z"/>
	<path fill="#010101" d="M685.509,839.277c6.497,0,12.993-2.169,19.489-5.418c50.898-30.319,94.211-73.633,125.613-123.445
		c10.828-17.327,5.417-41.149-11.908-51.979c-6.497-3.249-12.998-5.415-19.495-5.415c-12.993,0-24.903,6.498-32.482,18.407
		c-24.906,41.148-59.558,73.636-100.706,98.542c-8.664,5.413-15.162,12.994-17.326,22.739c-2.168,9.745-1.083,19.495,4.328,28.154
		C659.521,832.779,671.432,839.277,685.509,839.277z"/>
	<path fill="#010101" d="M512.25,76.937c17.325,0,34.651,1.083,53.061,3.249c62.166,7.813,120.172,28.419,171.284,59.168
		c18.269-18.308,36.544-36.607,54.814-54.913C711.073,31.796,615.134,1.136,512.25,1.136c-20.574,0-37.9,17.326-37.9,37.901
		C474.35,59.611,491.676,76.937,512.25,76.937z"/>
	<path fill="#010101" d="M879.737,279.056c33.729,53.116,56.335,114.189,64.577,180.134c2.167,18.407,3.249,35.733,3.249,53.06
		c0,20.574,17.327,37.9,37.901,37.9c20.573,0,37.899-17.326,37.899-37.9c0-106.606-32.921-205.755-89.107-287.815
		C916.083,242.642,897.907,260.847,879.737,279.056z"/>
	<path fill="#010101" d="M980.049,591.299c-3.249-1.081-6.498-1.081-9.746-1.081c-17.326,0-32.486,11.91-36.817,28.155
		c-11.911,45.479-30.323,88.795-56.309,128.859c-24.906,38.982-56.312,73.636-92.047,102.875
		c-36.816,30.319-77.964,54.143-122.36,70.384c-9.75,3.248-17.326,10.828-21.658,19.494c-4.332,9.746-4.332,19.489-1.084,29.234
		c5.418,15.16,19.495,24.905,35.735,24.905c4.332,0,8.662-1.082,12.994-2.165c159.182-59.559,278.298-191.668,319.445-355.182
		c2.164-9.745,1.084-19.492-4.332-29.236C998.456,597.797,990.877,593.465,980.049,591.299z"/>
	<path d="M62.684,1006.201l-49.449-49.545C331.772,638.734,652.001,318.501,961.688,8.811l49.498,49.497
		C701.488,368.01,381.246,688.256,62.684,1006.201z"/>
</g>
</svg>
