<?xml version="1.0" encoding="utf-8"?>
<!-- Generator: Adobe Illustrator 16.0.0, SVG Export Plug-In . SVG Version: 6.00 Build 0)  -->
<!DOCTYPE svg PUBLIC "-//W3C//DTD SVG 1.1//EN" "http://www.w3.org/Graphics/SVG/1.1/DTD/svg11.dtd">
<svg version="1.1" id="Layer_1" xmlns="http://www.w3.org/2000/svg" xmlns:xlink="http://www.w3.org/1999/xlink" x="0px" y="0px"
	 width="1024px" height="1024px" viewBox="0 0 1024 1024" enable-background="new 0 0 1024 1024" xml:space="preserve">
<g transform="scale(1,-1) translate(0,-149)">
	<path fill="#010101" d="M985.205-363.219c0,163.958-84.062,313.492-219.976,399.719c-8.202,5.204-10.633,16.072-5.429,24.275
		c5.203,8.203,16.071,10.633,24.274,5.429c145.979-92.613,236.308-253.293,236.308-429.424c0-9.715-7.875-17.588-17.588-17.588
		C993.079-380.807,985.205-372.934,985.205-363.219z M717.431,63.078c-62.678,30.234-131.485,46.328-202.612,46.716
		C398.042,109.801,289.783,69.215,204.399-4.02c-7.374-6.325-18.479-5.475-24.802,1.899c-6.324,7.373-5.474,18.478,1.9,24.802
		c91.724,78.67,208.092,122.297,333.417,122.29c76.479-0.416,150.438-17.715,217.801-50.21c8.749-4.22,12.421-14.735,8.201-23.484
		C736.695,62.528,726.182,58.857,717.431,63.078z M165.359-41.565C84.976-128.195,39.431-241.581,39.167-362.161
		c-0.002-160.763,79.76-307.109,210.277-394.458c8.073-5.402,10.238-16.327,4.834-24.399c-5.401-8.075-16.327-10.237-24.399-4.836
		C89.697-692.036,3.988-534.777,3.99-362.123c0.282,129.554,49.24,251.43,135.582,344.485c6.607,7.12,17.735,7.538,24.857,0.93
		C171.55-23.315,171.966-34.444,165.359-41.565z M340.318-804.051c53.783-20.987,111.23-31.984,170.218-32.186
		c104.734-0.002,203.034,33.057,284.245,93.656c7.786,5.809,18.806,4.206,24.615-3.578c5.809-7.786,4.209-18.809-3.577-24.618
		c-87.25-65.103-192.918-100.642-305.344-100.638c-63.4,0.217-125.138,12.037-182.944,34.59c-9.049,3.532-13.524,13.73-9.993,22.779
		C321.071-804.995,331.269-800.521,340.318-804.051z M836.947-707.137c93.762,88.574,147.978,211.363,148.257,342.889
		c0.021,9.713,7.911,17.571,17.627,17.55c9.713-0.021,17.572-7.912,17.552-17.626c-0.302-141.276-58.571-273.25-159.279-368.383
		c-7.061-6.671-18.195-6.354-24.865,0.707C829.569-724.939,829.886-713.808,836.947-707.137z"/>
	<path fill="#010101" d="M914.111-363.219c0,164.009-99.141,309.673-248.075,371.434c-8.974,3.722-13.231,14.013-9.51,22.986
		c3.722,8.973,14.01,13.231,22.983,9.509c161.963-67.164,269.779-225.574,269.779-403.929c0-9.715-7.874-17.59-17.588-17.59
		S914.111-372.934,914.111-363.219z M614.355,25.611c-32.625,8.549-66.401,12.978-100.771,13.095
		c-152.798,0.002-289.457-84.491-358.241-216.778c-4.48-8.619-15.1-11.974-23.719-7.493c-8.619,4.482-11.973,15.102-7.491,23.721
		C198.922-18.007,347.552,73.886,513.646,73.883c37.404-0.127,74.135-4.944,109.627-14.243c9.396-2.462,15.019-12.076,12.557-21.473
		C633.366,28.771,623.752,23.15,614.355,25.611z M129.213-240.876c-12.363-38.733-18.8-79.349-18.952-120.846
		c-0.003-223.242,179.714-403.423,401.923-403.423c19.898,0,39.608,1.445,59.028,4.302c9.611,1.413,18.547-5.232,19.96-14.842
		c1.416-9.61-5.229-18.548-14.841-19.961c-21.113-3.107-42.534-4.677-64.147-4.677c-241.658,0-437.104,195.95-437.101,438.665
		c0.163,45.159,7.166,89.337,20.616,131.478c2.953,9.254,12.85,14.361,22.104,11.408
		C127.059-221.726,132.166-231.623,129.213-240.876z M669.28-733.29C816.082-670.891,913.6-526.745,914.11-364.514
		c0.031,9.715,7.931,17.564,17.645,17.534c9.714-0.031,17.564-7.93,17.533-17.645c-0.556-176.424-106.604-333.185-266.25-401.042
		c-8.938-3.799-19.266,0.367-23.065,9.308C656.171-747.42,660.339-737.092,669.28-733.29z"/>
	<path fill="#010101" d="M848.87-363.219c0,163.742-119.313,302.695-280.111,329.706c-9.58,1.609-16.043,10.68-14.433,20.26
		c1.609,9.58,10.68,16.041,20.26,14.433C752.22-28.66,884.048-182.187,884.048-363.219c0-9.715-7.876-17.59-17.589-17.59
		C856.744-380.809,848.87-372.934,848.87-363.219z M514.554-28.823c-1.159,0.007-1.159,0.007-2.319,0.008
		c-186.013,0-336.734-149.736-336.734-334.404c0-2.922,0.038-5.842,0.113-8.755c0.251-9.71-7.417-17.786-17.128-18.037
		s-17.788,7.417-18.039,17.129c-0.083,3.216-0.124,6.437-0.124,9.663c0,204.149,166.522,369.582,371.916,369.582
		c1.279-0.001,1.279-0.001,2.555-0.008c9.713-0.067,17.535-7.996,17.468-17.71C532.196-21.069,524.267-28.889,514.554-28.823z
		 M181.262-425.159c29.521-156.607,167.592-271.988,329.912-272.462c118.804-0.001,226.266,60.577,287.355,158.413
		c5.146,8.239,15.995,10.748,24.236,5.604c8.239-5.144,10.748-15.995,5.603-24.235C760.9-665.89,642.207-732.801,511.123-732.799
		c-179.284,0.523-331.789,127.968-364.429,301.122c-1.799,9.547,4.48,18.743,14.026,20.544
		C170.266-409.334,179.463-415.614,181.262-425.159z M838.355-446.48c6.861,26.604,10.416,54.112,10.513,82.095
		c0.032,9.714,7.935,17.562,17.649,17.529c9.713-0.034,17.561-7.935,17.527-17.65c-0.105-30.912-4.035-61.333-11.627-90.762
		c-2.427-9.405-12.019-15.063-21.425-12.637C841.586-465.48,835.929-455.887,838.355-446.48z"/>
	<path fill="#010101" d="M775.736-363.219c0,145.555-117.996,263.55-263.551,263.55c-16.963,0-33.714-1.601-50.1-4.752
		c-9.538-1.835-18.759,4.411-20.594,13.95c-1.835,9.54,4.411,18.76,13.949,20.594c18.574,3.573,37.548,5.387,56.745,5.387
		c164.983,0,298.729-133.745,298.729-298.728c0-9.715-7.876-17.59-17.591-17.59C783.61-380.809,775.736-372.934,775.736-363.219z
		 M411.097-119.747c-97.268-40.434-162.113-135.479-162.46-242.597c0-76.485,32.008-147.052,87.291-196.816
		c7.221-6.499,7.804-17.621,1.305-24.84c-6.499-7.222-17.621-7.805-24.84-1.307c-62.631,56.378-98.936,136.417-98.934,223.02
		c0.394,121.467,73.893,229.194,184.134,275.023c8.97,3.729,19.265-0.521,22.993-9.49
		C424.316-105.725,420.066-116.019,411.097-119.747z M379.692-591.096c39.893-23.25,85.265-35.674,132.493-35.674
		c145.555,0,263.551,117.997,263.551,263.551c0,9.714,7.874,17.589,17.587,17.589c9.715,0,17.591-7.875,17.591-17.589
		c0-164.982-133.746-298.728-298.729-298.728c-53.495,0-104.972,14.095-150.207,40.456c-8.392,4.892-11.231,15.66-6.341,24.054
		C360.528-589.044,371.298-586.205,379.692-591.096z"/>
	<path fill="#010101" d="M710.007-363.219c0,109.253-88.567,197.82-197.822,197.82c-49.328,0-95.793-18.099-131.813-50.311
		c-7.242-6.476-18.361-5.855-24.836,1.386s-5.855,18.36,1.386,24.836c42.409,37.924,97.2,59.268,155.264,59.268
		c128.682,0,233-104.317,233-232.999c0-9.715-7.876-17.59-17.59-17.59S710.007-372.934,710.007-363.219z M346.028-255.817
		c-20.563-31.741-31.664-68.726-31.664-107.401c0-109.254,88.568-197.821,197.821-197.821c32.431,0,63.702,7.8,91.766,22.523
		c8.603,4.513,19.233,1.199,23.748-7.403c4.513-8.602,1.198-19.235-7.403-23.749c-33.078-17.354-69.951-26.549-108.111-26.549
		c-128.682,0-232.999,104.317-232.999,232.999c0,45.514,13.092,89.132,37.319,126.527c5.281,8.154,16.172,10.48,24.324,5.199
		C348.982-236.773,351.309-247.665,346.028-255.817z M646.048-508.871c40.499,37.244,63.959,89.544,63.959,145.652
		c0,9.714,7.874,17.589,17.588,17.589s17.59-7.875,17.59-17.589c0-66.054-27.656-127.71-75.326-171.545
		c-7.15-6.577-18.277-6.11-24.852,1.039C638.431-526.572,638.896-515.445,646.048-508.871z"/>
	<path fill="#010101" d="M643.693-363.219c0,72.63-58.878,131.508-131.508,131.508s-131.508-58.877-131.508-131.508
		c0-8.047,0.721-15.992,2.14-23.773c1.744-9.557-4.59-18.716-14.147-20.46c-9.557-1.744-18.716,4.59-20.459,14.146
		c-1.799,9.864-2.71,19.922-2.71,30.087c0,92.058,74.627,166.687,166.685,166.687s166.687-74.628,166.687-166.687
		c0-9.715-7.874-17.59-17.59-17.59C651.567-380.809,643.693-372.934,643.693-363.219z M401.18-433.77
		c24.008-37.682,65.502-60.957,111.005-60.957c72.63,0,131.508,58.877,131.508,131.508c0,9.714,7.874,17.589,17.589,17.589
		c9.716,0,17.59-7.875,17.59-17.589c0-92.059-74.629-166.687-166.687-166.687c-57.651,0-110.274,29.518-140.672,77.233
		c-5.22,8.193-2.81,19.067,5.383,24.287C385.089-423.168,395.962-425.577,401.18-433.77z"/>
	<path fill="#010101" d="M579.154-363.219c0,36.986-29.984,66.969-66.969,66.969s-66.969-29.982-66.969-66.969
		s29.984-66.969,66.969-66.969c19.313,0,37.262,8.196,49.903,22.306c6.481,7.236,17.601,7.847,24.836,1.365
		c7.235-6.48,7.848-17.601,1.365-24.837c-19.245-21.483-46.684-34.014-76.104-34.014c-56.413,0-102.146,45.734-102.146,102.148
		s45.733,102.146,102.146,102.146c56.415,0,102.146-45.732,102.146-102.146c0-9.715-7.874-17.59-17.587-17.59
		C587.029-380.809,579.154-372.934,579.154-363.219z"/>
	<path fill="#010101" d="M543.479-363.219c0,17.284-14.011,31.294-31.294,31.294s-31.294-14.011-31.294-31.294
		c0-17.283,14.011-31.295,31.294-31.295S543.479-380.502,543.479-363.219z"/>
</g>
</svg>
