<svg xmlns="http://www.w3.org/2000/svg" viewBox="0 0 992.2 992.3"><defs><style>.cls-1{fill:#010101;}</style></defs><title>Biometric-Light</title><g id="Layer_2" data-name="Layer 2"><g id="Layer_1-2" data-name="Layer 1"><path class="cls-1" d="M496.1,992.3a492.32,492.32,0,0,1-263.2-75.9c8.5-8.6,33.2-33.2,33.2-33.2a451.08,451.08,0,0,0,175.1,60h.1a456.38,456.38,0,0,0,54.8,3.4c12.2,0,22.9,10.7,22.9,22.9S508.3,992.3,496.1,992.3Z"/><path class="cls-1" d="M71.6,752.4A492.84,492.84,0,0,1,0,496.1c0-12.2,10.7-22.9,22.9-22.9s22.9,10.7,22.9,22.9a456.38,456.38,0,0,0,3.4,54.8v.1a450.63,450.63,0,0,0,55.7,168s-20.4,20.5-27.6,27.6Z"/><path class="cls-1" d="M171.8,652.1a356.29,356.29,0,0,1-22.9-61.3,362.07,362.07,0,0,1-12.5-94.6A359.64,359.64,0,0,1,496.2,136.5,362.82,362.82,0,0,1,590.9,149a345.68,345.68,0,0,1,60.4,22.5c-6.1,6.1-34.8,34.9-34.8,34.9a313.57,313.57,0,0,0-242.3.7A313.76,313.76,0,0,0,206.6,617.3C197.3,626.5,171.8,652.1,171.8,652.1Z"/><path class="cls-1" d="M496.1,855.8a357,357,0,0,1-163.7-39.2s25.8-25.8,34.5-34.6a309.88,309.88,0,0,0,129.2,27.9c6.6,0,12.8,2.2,15.7,5.6,4.5,5.3,7.2,11.7,7.2,17.3C519,845.1,508.3,855.8,496.1,855.8Z"/><path class="cls-1" d="M832.9,519.1c-6.9,0-11.6-1.8-16.1-6-4.3-5.2-6.8-11.5-6.8-16.9a310.23,310.23,0,0,0-28.2-129.9l34.5-34.6a352.77,352.77,0,0,1,27.1,69.8,361.52,361.52,0,0,1,12.5,94.6C855.8,508.3,845.1,519.1,832.9,519.1Z"/><path class="cls-1" d="M84.7,281.9A21.76,21.76,0,0,1,74,278.6l-.5-.3L73,278a19.14,19.14,0,0,1-9.4-12.6c-1.5-6.6-.6-13.3,2.4-18l.1-.2.1-.2C133.5,131.5,242.1,49.4,372.1,15.8l.5-.1.5-.2a22.37,22.37,0,0,1,5-.3c10,0,18.7,6.6,19.8,15.1l.1.9.2.9a22.85,22.85,0,0,1-16.3,28.2c-118.4,30.3-217,105-277.7,210.6A24.27,24.27,0,0,1,84.7,281.9Z"/><path class="cls-1" d="M496.1,719.4c-12.2,0-22.9-10.7-22.9-22.9s10.7-22.9,22.9-22.9A177.2,177.2,0,0,0,673.5,496.2a171.49,171.49,0,0,0-1.2-20.3l38.9-39a222.59,222.59,0,0,1,8,59.3,225.49,225.49,0,0,1-26.4,105.6c-20.2,38.5-51.8,70-91.3,91.3A225.19,225.19,0,0,1,496.1,719.4Z"/><path class="cls-1" d="M295.8,519c-12.2,0-22.9-10.7-22.9-22.9,0-59.4,23.3-115.3,65.6-157.6s98.3-65.6,157.6-65.6a218.5,218.5,0,0,1,48.5,5.4l-40.4,40.6c-2.7-.1-5.4-.2-8-.2A177.2,177.2,0,0,0,318.8,496.1a22.37,22.37,0,0,1-4.1,12.8l-6,6A22.45,22.45,0,0,1,295.8,519Z"/><path class="cls-1" d="M669.4,808.2c-6.2,0-14.5-1.8-19.3-10.6l-.2-.4-.2-.4c-3-4.8-3.8-10.5-2.4-16.9,1.1-5.1,4.7-9.5,10.5-13.2,45-27.3,80.5-62,105.6-103.4,4.7-7.3,11.7-11.3,19.7-11.3,3.3,0,7.3,1.1,12.1,3.5,9.8,6.6,12.9,20.9,6.6,31-30.7,48.7-72.2,89.6-120.1,118.2C676.8,807,672.7,808.2,669.4,808.2Z"/><path class="cls-1" d="M718.1,104.5a451.21,451.21,0,0,0-167-55.3H551a456.38,456.38,0,0,0-54.8-3.4c-12.2,0-22.9-10.7-22.9-22.9S484,0,496.2,0A493,493,0,0,1,751.5,71Z"/><path class="cls-1" d="M969.4,519.1c-12.2,0-22.9-10.7-22.9-22.9a455.13,455.13,0,0,0-3.4-54.8v-.1a448.82,448.82,0,0,0-60.5-176.1L915.7,232a492.28,492.28,0,0,1,76.5,264.2C992.3,508.3,981.6,519.1,969.4,519.1Z"/><path class="cls-1" d="M659.7,963a22.67,22.67,0,0,1-21.6-14.8c-2.1-6.5-2-12.2.5-17.9a23.42,23.42,0,0,1,12.8-11.7l.4-.1a432.36,432.36,0,0,0,126.7-72.9,451.38,451.38,0,0,0,95.1-106.3c26-40,45.5-84.8,58.2-133.2a23.37,23.37,0,0,1,22.3-17,22.37,22.37,0,0,1,5,.3l.9.3.9.2c8.3,1.7,11.1,4.3,13.7,8.8a24.57,24.57,0,0,1,2.8,18.5,496.91,496.91,0,0,1-112,210A506,506,0,0,1,668.1,961.5,37.39,37.39,0,0,1,659.7,963Z"/><path d="M18.3,940.6C329.8,629.8,642.7,316.9,945.6,13.9l28.3,28.3C671,345.1,358.2,657.9,46.6,968.9Z"/></g></g></svg>