<?xml version="1.0" encoding="utf-8"?>
<!-- Generator: Adobe Illustrator 16.0.0, SVG Export Plug-In . SVG Version: 6.00 Build 0)  -->
<!DOCTYPE svg PUBLIC "-//W3C//DTD SVG 1.1//EN" "http://www.w3.org/Graphics/SVG/1.1/DTD/svg11.dtd">
<svg version="1.1" id="Layer_1" xmlns="http://www.w3.org/2000/svg" xmlns:xlink="http://www.w3.org/1999/xlink" x="0px" y="0px"
	 width="1024px" height="1024px" viewBox="0 0 1024 1024" enable-background="new 0 0 1024 1024" xml:space="preserve">
<g>
	<path fill="#010101" d="M512.25,947.564c-17.326,0-34.652-1.084-53.06-3.251C261.024,919.409,105.091,764.556,80.186,565.31
		c-2.166-18.408-3.249-35.733-3.249-53.06c0-20.574-17.326-37.9-37.901-37.9c-20.574,0-37.9,17.326-37.9,37.9
		c0,281.546,229.567,511.114,511.113,511.114c20.575,0,37.9-17.326,37.9-37.9S532.824,947.564,512.25,947.564z"/>
	<path fill="#010101" d="M512.25,811.122c-164.596,0-298.872-134.278-298.872-298.872c0-164.596,134.276-298.872,298.872-298.872
		c164.596,0,298.872,134.276,298.872,298.872c0,9.746,4.332,19.492,10.829,27.071c7.58,7.58,16.243,10.829,27.071,10.829
		c20.574,0,37.9-17.326,37.9-37.9c0-33.569-4.331-66.055-12.994-98.541C839.276,285.93,738.569,185.224,610.791,150.572
		c-32.486-8.663-64.975-12.994-98.542-12.994c-206.828,0-374.672,167.844-374.672,374.672c0,33.57,4.332,66.055,12.994,98.539
		c34.652,127.78,135.358,228.488,263.137,263.14c32.486,8.662,64.972,12.993,98.541,12.993c20.575,0,37.9-17.325,37.9-37.9
		c0-9.744-4.332-19.49-10.828-27.071C532.824,814.37,521.995,811.122,512.25,811.122z"/>
	<path fill="#010101" d="M394.217,16.297c-3.249,0-6.497,0-9.745,1.082C250.196,52.031,138.66,136.494,69.356,255.61
		c-5.415,8.663-6.497,19.492-4.331,29.237c2.165,9.745,8.663,18.409,17.326,22.74c5.415,3.249,11.912,5.415,18.409,5.415
		c12.995,0,25.989-7.581,32.485-18.41c58.476-101.789,153.768-174.341,268.552-203.578c20.574-5.415,32.486-25.989,27.071-46.563
		C426.703,28.208,411.542,16.297,394.217,16.297z"/>
	<path fill="#010101" d="M474.35,712.581c0,20.575,17.326,37.899,37.9,37.899c38.984,0,77.967-9.746,112.62-28.154
		c42.229-22.74,75.8-56.307,97.454-97.456c18.409-34.652,28.155-73.635,28.155-112.619c0-131.027-107.204-238.231-238.23-238.231
		c-131.027,0-238.23,107.203-238.23,238.229c0,20.574,17.326,37.9,37.901,37.9c20.575,0,37.901-17.326,37.901-37.9
		c0-89.878,72.552-162.43,162.43-162.43c89.878,0,162.43,72.552,162.43,162.43s-72.552,162.43-162.43,162.43
		C491.675,674.68,474.35,692.006,474.35,712.581z"/>
	<path fill="#010101" d="M685.509,839.277c6.497,0,12.993-2.169,19.49-5.418c50.898-30.319,94.21-73.632,125.613-123.445
		c10.828-17.327,5.417-41.149-11.908-51.979c-6.497-3.249-12.998-5.415-19.495-5.415c-12.994,0-24.904,6.498-32.483,18.407
		c-24.906,41.148-59.558,73.636-100.706,98.542c-8.664,5.413-15.162,12.994-17.326,22.739c-2.168,9.745-1.083,19.495,4.328,28.154
		C659.521,832.779,671.432,839.277,685.509,839.277z"/>
	<path fill="#010101" d="M512.25,1.136c-20.574,0-37.9,17.326-37.9,37.901c0,20.574,17.326,37.9,37.9,37.9
		c17.326,0,34.652,1.083,53.061,3.249c198.165,24.906,354.099,179.755,379.003,379.004c2.167,18.408,3.249,35.734,3.249,53.06
		c0,20.574,17.327,37.9,37.901,37.9s37.9-17.326,37.9-37.9C1023.364,230.704,793.796,1.136,512.25,1.136z"/>
	<path fill="#010101" d="M980.049,591.299c-3.249-1.081-6.498-1.081-9.746-1.081c-17.326,0-32.486,11.91-36.817,28.155
		c-11.911,45.479-30.323,88.795-56.309,128.859c-24.906,38.983-56.311,73.636-92.047,102.875
		c-36.816,30.32-77.964,54.143-122.36,70.384c-9.75,3.248-17.326,10.828-21.658,19.494c-4.332,9.746-4.332,19.49-1.084,29.235
		c5.418,15.16,19.495,24.905,35.735,24.905c4.332,0,8.662-1.082,12.994-2.165c159.182-59.559,278.298-191.668,319.446-355.182
		c2.164-9.745,1.084-19.492-4.332-29.236C998.457,597.797,990.877,593.465,980.049,591.299z"/>
</g>
</svg>
