<svg xmlns="http://www.w3.org/2000/svg" viewBox="0 0 992.23 992.23"><defs><style>.cls-1{fill:#010101;}</style></defs><title>fingerprint-light</title><g id="Layer_2" data-name="Layer 2"><g id="Layer_1-2" data-name="Layer 1"><path class="cls-1" d="M496.11,992.23a491,491,0,0,1-192.78-39.08A499.93,499.93,0,0,1,39.08,688.9,491.05,491.05,0,0,1,0,496.11c0-12.2,10.7-22.9,22.9-22.9s22.9,10.7,22.9,22.9a466.26,466.26,0,0,0,3.35,54.82l0,.1a450.92,450.92,0,0,0,392,392h.12a464.15,464.15,0,0,0,54.81,3.36c12.2,0,22.9,10.7,22.9,22.9S508.31,992.23,496.11,992.23Z"/><path class="cls-1" d="M496.11,855.79a362.69,362.69,0,0,1-94.67-12.49c-122.5-33.22-219.29-130-252.53-252.57a362.81,362.81,0,0,1-12.47-94.62A359.45,359.45,0,0,1,496.11,136.44a362.71,362.71,0,0,1,94.68,12.49c122.5,33.22,219.29,130,252.52,252.57a362.32,362.32,0,0,1,12.48,94.61c0,12.2-10.71,22.9-22.9,22.9-6.92,0-11.61-1.75-16.06-6-4.29-5.19-6.84-11.46-6.84-16.87a310.61,310.61,0,0,0-24.75-122A314.09,314.09,0,0,0,496.11,182.24,313.56,313.56,0,0,0,274.35,717.88a313.78,313.78,0,0,0,99.77,67.36,310.61,310.61,0,0,0,122,24.75c6.62,0,12.78,2.19,15.69,5.59,4.51,5.27,7.21,11.74,7.21,17.31C519,845.08,508.31,855.79,496.11,855.79Z"/><path class="cls-1" d="M84.62,281.87a21.75,21.75,0,0,1-10.69-3.28l-.49-.3-.52-.26a19,19,0,0,1-9.39-12.57c-1.45-6.55-.55-13.29,2.41-18l.13-.2.12-.2C133.43,131.45,242.06,49.32,372.08,15.77l.51-.13.49-.17a21.84,21.84,0,0,1,5-.31c10,0,18.65,6.65,19.78,15.14l.13.93.24.9A23.13,23.13,0,0,1,396,49.75a22.87,22.87,0,0,1-14.08,10.61c-118.4,30.18-217,104.92-277.71,210.48A24.3,24.3,0,0,1,84.62,281.87Z"/><path class="cls-1" d="M496.11,719.34c-12.2,0-22.9-10.7-22.9-22.9s10.71-22.9,22.91-22.9A177.52,177.52,0,1,0,318.69,496.11c0,12.2-10.71,22.9-22.91,22.9s-22.9-10.7-22.9-22.9c0-59.36,23.3-115.35,65.59-157.64s98.28-65.59,157.64-65.59,115.35,23.3,157.65,65.59,65.58,98.28,65.58,157.64a225.93,225.93,0,0,1-26.4,105.59c-20.24,38.46-51.81,70-91.32,91.28A225.75,225.75,0,0,1,496.11,719.34Z"/><path class="cls-1" d="M669.37,808.14c-6.17,0-14.54-1.84-19.32-10.6l-.21-.39-.23-.37c-3-4.84-3.84-10.54-2.41-16.95,1.13-5.09,4.68-9.54,10.55-13.22,45-27.26,80.51-62,105.57-103.39,4.71-7.31,11.72-11.34,19.75-11.34,3.3,0,7.26,1.15,12.09,3.49,9.8,6.57,12.91,20.86,6.6,31C771,735.05,729.52,775.94,681.68,804.54,676.74,807,672.71,808.14,669.37,808.14Z"/><path class="cls-1" d="M969.33,519c-12.2,0-22.9-10.7-22.9-22.9a466,466,0,0,0-3.35-54.81l0-.11a450.9,450.9,0,0,0-392-392l-.11,0a466.26,466.26,0,0,0-54.82-3.35c-12.2,0-22.9-10.7-22.9-22.9S483.91,0,496.11,0A491.05,491.05,0,0,1,688.9,39.08,499.93,499.93,0,0,1,953.15,303.33a491,491,0,0,1,39.08,192.78C992.23,508.31,981.53,519,969.33,519Z"/><path class="cls-1" d="M659.63,963a22.58,22.58,0,0,1-21.56-14.81c-2.13-6.5-2-12.21.48-17.93,2.92-5.68,7.58-9.92,12.82-11.66l.42-.15a433.45,433.45,0,0,0,126.74-72.89,452.23,452.23,0,0,0,95.13-106.34c26-40,45.54-84.85,58.2-133.17a23.34,23.34,0,0,1,22.31-17,21.31,21.31,0,0,1,5,.32l.88.29.91.18c8.32,1.67,11.13,4.28,13.65,8.82a25.17,25.17,0,0,1,2.84,18.51,496.52,496.52,0,0,1-112,210,506,506,0,0,1-197.3,134.3A39.87,39.87,0,0,1,659.63,963Z"/></g></g></svg>