<svg xmlns="http://www.w3.org/2000/svg" viewBox="0 0 1024 1024"><path d="M857.6 1024.666c-30.822 0-59.853-11.878-81.766-33.536l-.102-.102L380.98 596.327c-31.693 11.981-65.024 18.022-99.379 18.022-155.29 0-281.6-126.31-281.6-281.6 0-40.397 8.397-79.411 24.883-115.917 3.482-7.68 10.445-13.107 18.739-14.643s16.742 1.126 22.682 7.066l149.094 149.094h91.802v-91.802L157.748 117.094c-5.939-5.939-8.602-14.438-7.066-22.682s6.963-15.258 14.643-18.739c35.482-16.026 75.674-24.525 116.326-24.525 155.29 0 281.6 126.31 281.6 281.6 0 33.946-6.144 67.174-18.278 99.123l394.445 394.445c22.016 21.76 34.202 50.79 34.355 81.715s-11.827 60.058-33.587 82.125c-21.914 22.221-51.251 34.458-82.586 34.458zm-45.773-69.888c12.237 12.083 28.518 18.739 45.773 18.739 17.51 0 33.894-6.81 46.131-19.251s18.893-28.672 18.842-45.926c-.051-17.254-6.861-33.434-19.2-45.568l-.102-.102-406.63-406.63a25.612 25.612 0 0 1-5.222-28.672c13.67-30.259 20.582-62.054 20.582-94.566 0-127.027-103.373-230.4-230.4-230.4-20.07 0-39.936 2.509-58.88 7.322l128.205 128.205c4.813 4.813 7.475 11.315 7.475 18.125v128c0 14.131-11.469 25.6-25.6 25.6h-128c-6.81 0-13.312-2.714-18.125-7.475l-128-128c-5.018 18.995-7.526 38.605-7.526 58.675 0 127.027 103.373 230.4 230.4 230.4 33.075 0 64.973-6.861 94.822-20.326 9.728-4.403 21.094-2.304 28.672 5.222l406.733 406.682z"/></svg>