<?xml version="1.0" encoding="UTF-8"?>
<svg width="1024px" height="1024px" viewBox="0 0 1024 1024" version="1.1" xmlns="http://www.w3.org/2000/svg" xmlns:xlink="http://www.w3.org/1999/xlink">
    <!-- Generator: Sketch 48.1 (47250) - http://www.bohemiancoding.com/sketch -->
    <title>Artboard</title>
    <desc>Created with Sketch.</desc>
    <defs></defs>
    <g id="Page-1" stroke="none" stroke-width="1" fill="none" fill-rule="evenodd">
        <g id="Artboard" fill="#000000" fill-rule="nonzero">
            <path d="M845.022236,149.949917 C748.305236,53.2426445 619.742236,0 482.987236,0 C324.574236,0 177.067236,72.952662 80.9132356,194.898396 L80.9132356,127.987126 C80.9132356,113.857548 69.4442356,102.389701 55.3132356,102.389701 C41.1822356,102.389701 29.7132356,113.857548 29.7132356,127.987126 L29.7132356,280.137822 C29.7132356,291.861643 37.6492356,302.049618 49.0152356,304.967325 C53.9812356,306.247196 58.9992356,305.940227 63.5562356,304.404381 L209.630236,254.643386 C222.993236,250.086845 230.161236,235.547307 225.604236,222.185651 C221.047236,208.823995 206.506236,201.656716 193.143236,206.213258 L116.855236,232.220642 C203.281236,119.182012 338.039236,51.2978402 483.037236,51.2978402 C737.143236,51.2978402 943.837236,257.971052 943.837236,512.051495 C943.837236,766.131938 737.143236,972.805149 483.037236,972.805149 C313.258236,972.805149 157.712236,879.886496 77.1232356,730.295543 C70.4162356,717.854794 54.9022356,713.196262 42.4612356,719.902588 C30.0202356,726.608913 25.3602356,742.121353 32.0672356,754.561102 C121.616236,920.739387 294.467236,1024 483.088236,1024 C619.843236,1024 748.406236,970.757355 845.123236,874.050083 C941.840236,777.34281 995.088236,648.792741 995.088236,512.051495 C995.088236,375.310249 941.840236,246.760179 845.123236,150.052907 L845.022236,149.949917 Z M485.99781,587.350036 C481.69681,587.350036 477.44781,586.275144 473.55581,584.124361 L243.15581,456.137235 C230.81681,449.276925 226.36181,433.71349 233.22281,421.324736 C240.08381,408.935982 255.64881,404.532425 268.03881,411.392735 L485.12681,531.956608 L753.87581,360.965807 C765.80581,353.38857 781.62581,356.870219 789.20381,368.79902 C796.78181,380.72782 793.29981,396.546229 781.36981,404.123466 L499.76981,583.305443 C495.667795,585.91235 490.908247,587.29755 486.04781,587.299042 L485.99781,587.350036 Z" id="Shape"></path>
        </g>
    </g>
</svg>