<?xml version="1.0" encoding="utf-8"?>
<!-- Generator: Adobe Illustrator 19.0.0, SVG Export Plug-In . SVG Version: 6.00 Build 0)  -->
<svg version="1.1" id="Layer_1" xmlns="http://www.w3.org/2000/svg" xmlns:xlink="http://www.w3.org/1999/xlink" x="0px" y="0px"
	 viewBox="68 -480 1024 1024" style="enable-background:new 68 -480 1024 1024;" xml:space="preserve">
<path d="M942.1-330C845.4-426.7,716.8-480,580-480S314.7-426.7,217.9-330S68-104.8,68,32c0,136.7,53.2,265.3,149.9,362.1
	S443.2,544,580,544S845.3,490.7,942.1,394C1038.8,297.4,1092,168.8,1092,32C1092-104.8,1038.8-233.4,942.1-330z M580,490.1
	c-252.6,0-458.1-205.5-458.1-458.1S327.4-426.1,580-426.1S1038.1-220.6,1038.1,32S832.6,490.1,580,490.1z M580-137.1
	c-14.9,0-32.9-8.9-32.9-19.9V-185c0-11,18.1-19.9,32.9-19.9c14.9,0,33.9,8.9,33.9,19.9v27.9C613.9-146.1,594.9-137.1,580-137.1z"/>
<path d="M580,291.1c-14.9,0-32.9-8.9-32.9-19.8V-36.1c0-10.9,18.1-19.8,32.9-19.8c14.9,0,33.9,8.9,33.9,19.8v307.5
	C613.9,282.3,594.9,291.1,580,291.1z"/>
</svg>
