<svg xmlns="http://www.w3.org/2000/svg" viewBox="0 0 1024 1024"><path d="M537.6 1024h-51.2c-14.131 0-25.6-11.469-25.6-25.6s11.469-25.6 25.6-25.6h51.2c14.131 0 25.6 11.469 25.6 25.6s-11.469 25.6-25.6 25.6zM512 0C342.63 0 204.8 137.83 204.8 307.2c0 108.237 51.917 195.994 54.118 199.68 13.619 22.733 33.024 62.874 42.291 87.654l40.858 108.902c6.195 16.486 18.074 31.386 32.819 42.701-10.291 13.056-16.486 29.542-16.486 47.462 0 19.661 7.424 37.581 19.61 51.2-12.186 13.619-19.61 31.539-19.61 51.2 0 42.342 34.458 76.8 76.8 76.8h153.6c42.342 0 76.8-34.458 76.8-76.8 0-19.661-7.424-37.581-19.61-51.2 12.186-13.619 19.61-31.539 19.61-51.2 0-17.92-6.195-34.406-16.486-47.462 14.746-11.315 26.624-26.163 32.819-42.701l40.806-108.902c9.318-24.781 28.672-64.922 42.291-87.654 2.202-3.686 54.17-91.443 54.17-199.68C819.2 137.83 681.37 0 512 0zm76.8 921.6H435.2c-14.131 0-25.6-11.469-25.6-25.6s11.469-25.6 25.6-25.6h153.6c14.131 0 25.6 11.469 25.6 25.6s-11.469 25.6-25.6 25.6zm25.6-128c0 14.131-11.469 25.6-25.6 25.6H435.2c-14.131 0-25.6-11.469-25.6-25.6s11.469-25.6 25.6-25.6h153.6c14.131 0 25.6 11.469 25.6 25.6zm106.752-313.088c-15.206 25.293-35.994 68.403-46.336 96.051L634.01 685.465c-6.144 16.384-27.699 31.334-45.21 31.334H435.2c-17.51 0-39.066-14.95-45.21-31.334l-40.858-108.902c-10.342-27.648-31.13-70.707-46.336-96.051-.461-.768-46.797-79.104-46.797-173.312 0-141.158 114.842-256 256-256s256 114.842 256 256c0 93.645-46.387 172.595-46.848 173.312z"/></svg>