<?xml version="1.0" encoding="utf-8"?>
<!-- Generator: Adobe Illustrator 16.0.0, SVG Export Plug-In . SVG Version: 6.00 Build 0)  -->
<!DOCTYPE svg PUBLIC "-//W3C//DTD SVG 1.1//EN" "http://www.w3.org/Graphics/SVG/1.1/DTD/svg11.dtd">
<svg version="1.1" id="Layer_1" xmlns="http://www.w3.org/2000/svg" xmlns:xlink="http://www.w3.org/1999/xlink" x="0px" y="0px"
	 width="612px" height="792px" viewBox="0 0 612 792" enable-background="new 0 0 612 792" xml:space="preserve">
<path d="M496.271,119.729C441.375,64.833,368.363,34.6,290.7,34.6S140.056,64.833,85.129,119.729C30.202,174.625,0,247.637,0,325.27
	C0,402.9,30.233,475.913,85.129,530.84s127.908,85.129,205.571,85.129s150.644-30.232,205.571-85.129
	c54.927-54.896,85.129-127.908,85.129-205.57C581.4,247.606,551.167,174.625,496.271,119.729z M290.7,585.4
	C147.278,585.4,30.6,468.722,30.6,325.3S147.278,65.2,290.7,65.2c143.422,0,260.1,116.678,260.1,260.1S434.122,585.4,290.7,585.4z
	 M290.7,212.8c-8.446,0-15.3-5.074-15.3-11.325v-22.649c0-6.252,6.854-11.326,15.3-11.326c8.445,0,15.3,5.074,15.3,11.326v22.649
	C306,207.726,299.146,212.8,290.7,212.8z"/>
<path d="M290.701,499.099c-8.446,0-15.3-5.031-15.3-11.229V263.321c0-6.197,6.854-11.228,15.3-11.228
	c8.445,0,15.3,5.031,15.3,11.228V487.87C306,494.067,299.146,499.099,290.701,499.099z"/>
</svg>
