<svg xmlns="http://www.w3.org/2000/svg" viewBox="0 0 1024 1024" enable-background="new 0 0 1024 1024"><path d="M614.7 258.1c4.7 6.9 13.8 10.1 22 7.7 2.1-.6 4-1.5 5.7-2.8 8.9-6.4 11.1-18.9 4.9-27.8-3.7-5.4-9.9-8.6-16.5-8.6-4 0-7.9 1.2-11.2 3.5-9 6.3-11.2 18.9-4.9 28"/><path d="M563.9 207.9c.3 6.2 3.1 11.9 7.6 15.9 9.5 8.6 24.1 7.8 32.7-1.8 8.5-9.6 7.8-24.3-1.7-32.9-4-3.7-9.5-5.7-15.3-5.7-6.8 0-13.1 2.7-17.3 7.5-4.2 4.8-6.3 10.7-6 17"/><path d="M513.1 196.4c4 2.2 8.5 3.4 13 3.4 2.6 0 5.2-.4 7.7-1.1 6.8-2 12.5-6.6 15.9-12.9 3.5-6.3 4.3-13.7 2.4-20.6-2-7-6.5-12.8-12.8-16.3-3.7-2-8-3.1-12.4-3.1-10.1 0-19.6 5.4-24.2 13.7-7.1 13.1-2.4 29.6 10.4 36.9"/><path d="M439.1 180.5c5.6 1.5 11.6 1.5 17.2-.2 10.4-3.1 18.4-11.3 21.4-21.7 2.3-8.1 1.3-16.6-2.8-24.1-4-7.4-10.8-12.8-18.8-15.1-2.6-.7-5.3-1.1-8-1.1-14 0-27 9.7-30.8 22.9-4.6 16.8 5.2 34.4 21.8 39.3"/><path d="M349.6 181.8c20.2 1 37.5-14.7 38.5-35.1.5-9.8-2.9-19.4-9.5-26.7-6.5-7.3-15.5-11.6-25.1-12h-1.8c-19.2 0-35.6 15.7-36.7 35.1-1.1 20.3 14.5 37.7 34.6 38.7"/><path d="M197.9 172.4c3.6 20.6 21.4 35.7 42.2 35.7 2.5 0 5-.2 7.5-.7 1.6-.3 3.1-.7 4.6-1.1 20.9-6.2 33.8-27.3 30-49-3.7-20.6-21.4-35.6-42.2-35.6-2.5 0-5 .2-7.4.6-23.2 4.5-38.8 26.9-34.7 50.1"/><path d="M622.1 334.8c8.5-9.6 7.7-24.3-1.8-32.9-4.1-3.7-9.5-5.8-15.3-5.8-6.7 0-12.9 2.7-17.1 7.4-8.6 9.5-8 24.2 1.4 32.9 4.3 3.9 9.8 6.1 15.6 6.1 2.2 0 4.5-.3 6.6-.9 4.1-1.3 7.7-3.6 10.6-6.8"/><path d="M569.9 277.7c-2-6.9-6.6-12.8-12.9-16.3-3.8-2.1-8.1-3.2-12.5-3.2-10.1 0-19.4 5.3-24.1 13.9-7 13.2-2.2 29.7 10.7 36.9 6.3 3.5 13.7 4.3 20.6 2.2 6.8-2 12.5-6.6 15.8-12.9 3.5-6.3 4.4-13.7 2.4-20.6"/><path d="M495.6 271.1c2.2-8.1 1.3-16.6-2.8-24.1-4.1-7.3-10.7-12.7-18.7-15-2.6-.8-5.3-1.1-8.1-1.1-14 0-27 9.6-30.7 22.9-4.7 16.8 4.9 34.3 21.5 39.2 5.7 1.6 11.8 1.6 17.5-.1 10.3-3.1 18.3-11.3 21.3-21.8"/><path d="M405.8 259.4c.5-9.9-2.8-19.4-9.4-26.7-6.5-7.3-15.5-11.6-25.2-12-.6-.1-1.3-.1-1.9-.1-18.8 0-35.5 16-36.6 35-1 20.3 14.5 37.7 34.7 38.8h2.1c3.5 0 6.9-.5 10.2-1.5 14.8-4.4 25.3-17.9 26.1-33.5"/><path d="M257.7 234.2c-2.5 0-5 .2-7.4.7-23.1 4-38.7 26.5-34.7 50 4.1 23.4 26.2 39.1 49.4 35h.1c1.6-.3 3.2-.7 4.8-1.1 20.7-6.2 33.6-27.2 29.9-48.9-3.5-20.7-21.3-35.7-42.1-35.7"/><path d="M89.3 349.8c7.9 18.7 25.9 30.8 45.9 30.8 4.7 0 9.5-.7 14-2.1 1.9-.6 3.8-1.3 5.7-2 12.4-5.4 21.9-15.2 26.9-27.7 10.3-25.8-2.1-55.2-27.7-65.6-12.3-5-26.1-4.9-38.3.4-25.4 11-37.3 40.7-26.5 66.2"/><path d="M607 385.7c-3.8-2.1-8.1-3.2-12.6-3.2-10.1 0-19.5 5.4-23.9 13.7-7.2 13.1-2.5 29.6 10.4 36.9 6.3 3.6 13.7 4.5 20.6 2.4 6.8-2 12.5-6.6 16.1-13 7.1-13.1 2.3-29.6-10.6-36.8"/><path d="M487.9 402.2c4 7.3 10.8 12.7 18.8 15 16.7 4.7 34-5 38.8-21.8 4.7-16.8-5-34.4-21.5-39.1-2.6-.8-5.4-1.2-8.1-1.1-13.9 0-26.9 9.6-30.7 22.8-2.4 8.1-1.4 16.8 2.7 24.2"/><path d="M455.8 383.6c1-20.3-14.6-37.7-34.8-38.8h-1.7c-18.9 0-35.7 16-36.6 35-1.1 20.3 14.5 37.8 34.6 38.9h1.8c3.5 0 7-.5 10.4-1.5 14.9-4.5 25.4-18 26.3-33.6"/><path d="M307.8 444.9c2.5 0 5-.2 7.4-.7 1.6-.3 3.1-.6 4.7-1.1 20.9-6.2 33.8-27.3 30-49-3.7-20.7-21.4-35.7-42.2-35.7-2.5 0-5 .2-7.4.7-23.1 4.2-38.7 26.7-34.6 50.2 3.6 20.6 21.3 35.6 42.1 35.6"/><path d="M231.6 473.3c5-12.6 4.9-26.3-.3-38.6-7.8-18.3-26.4-30.7-46.4-30.7-6.6 0-13.1 1.3-19.2 4-12.4 5.2-21.9 15-26.9 27.4-5 12.5-4.9 26.3.4 38.8 7.9 18.7 26 30.7 46 30.7 4.8 0 9.5-.7 14.1-2.1 1.9-.5 3.7-1.2 5.5-2 12.3-5.2 21.8-15 26.8-27.5"/><path d="M105.9 512.7c-11-15.3-28.8-24.4-47.5-24.4-12.4 0-24.4 4-34.4 11.4-12.6 9.3-20.9 23-23.3 38.6-2.4 15.6 1.3 31.3 10.5 44 14.5 20.3 40.2 29.1 64 22 6.4-1.9 12.5-5 17.9-8.9 26.1-19.2 31.8-56.3 12.8-82.7"/><path d="M735.7 719.9c-.9-10.3-9.6-18.4-19.9-18.4-.6 0-1.1 0-1.7.1-8.5.7-15.5 6.9-17.5 15.4-.5 2.1-.6 4.3-.5 6.4 1 10.2 9.6 18.3 19.7 18.3.6 0 1.1 0 1.7-.1 5.1-.4 10-3 13.5-7.1s5.2-9.3 4.7-14.6"/><path d="M749.7 697.6c-1 4.2-.8 8.7.5 12.8 3.9 12 17.1 18.9 29.1 14.9 5.6-1.8 10.3-6.1 13.2-11.7 2.8-5.7 3.3-12.1 1.5-17.7-1.8-6-5.9-10.8-11.4-13.6-3.2-1.7-6.7-2.5-10.3-2.6-2.4 0-4.8.4-7.1 1.2-7.9 2.5-13.6 8.7-15.5 16.7"/><path d="M805.6 660.6c-3.5 14.6 5.4 29.2 19.8 32.8 2.1.5 4.2.8 6.4.8 4.8 0 9.6-1.3 13.7-3.9 12.2-7.5 16.6-25 9.2-37.3-4.9-8.1-13.7-13.1-23.1-13.1-12.4-.1-23.2 8.5-26 20.7"/><path d="M890.5 641.1c8.1 0 15.9-3.2 21.7-8.9 11.9-11.7 12.2-32.7.7-44.9-5.9-6.1-13.9-9.4-22.5-9.4-8.2 0-16.1 3.2-22 8.9-4.2 4.1-7.1 9.3-8.5 15.2-2.5 10.7.4 21.7 7.9 29.6 5.8 6 13.7 9.5 22 9.6h.7z"/><path d="M973.5 548c10.8-16.8 5.8-40.3-10.9-51.2-5.9-3.8-12.7-5.9-19.8-5.9-12.5 0-24 6.3-30.8 16.9-2.2 3.5-3.9 7.4-4.9 11.5-3.6 15.2 2.6 31.1 15.6 39.6 16.9 11.1 39.5 6.4 50.5-10.6.2-.1.2-.2.3-.3"/><path d="M996 379.8c-4.7-1.7-9.6-2.6-14.5-2.6-18 0-34.2 11.5-40.3 28.5-.6 1.5-1 3.1-1.4 4.6-5.1 21.4 6.5 43.2 27 50.7 4.6 1.7 9.5 2.5 14.4 2.6 18 0 34.2-11.5 40.4-28.5 7.8-22.5-3.7-47.3-25.6-55.3"/><path d="M644.3 657.1c-3 12.5 4.7 25 17 28 1.7.4 3.5.6 5.3.6 2.5 0 4.9-.4 7.2-1.2 5.6-1.8 10.4-6.1 13.2-11.7 2.8-5.6 3.4-12 1.5-17.5-1.9-5.9-6-10.8-11.5-13.7-3.2-1.7-6.8-2.6-10.5-2.6-2.4 0-4.8.4-7.1 1.1-7.4 2.8-13.2 9.1-15.1 17"/><path d="M719.8 652.7c6.8 1.7 14.3.6 20.4-3.1 12.3-7.6 16.5-24.7 9.1-37.4-5-8.1-13.7-13-23.1-12.9-4.9 0-9.7 1.3-13.8 3.9-6.2 3.8-10.5 9.8-12.2 16.8-1.7 7-.6 14.3 3.2 20.3 3.6 6.1 9.5 10.6 16.4 12.4"/><path d="M785 600.5c8.2 0 16-3.2 21.9-8.9 5.7-5.6 9.1-13.7 9.2-22.2.1-8.6-2.9-16.8-8.5-22.6-12.1-12.5-31.9-12.8-44.3-.7-12.5 12.1-12.8 32.2-.8 44.8 5.8 6.1 13.8 9.5 22.1 9.7l.4-.1z"/><path d="M868.1 507.4c5.2-8.1 6.9-17.9 4.9-27.7-2-9.7-7.7-18.3-15.6-23.5-5.9-3.8-12.8-5.9-19.8-5.9-12.5 0-24 6.3-30.8 16.8-2.3 3.5-3.9 7.4-4.9 11.5-3.6 15.1 2.7 31.1 15.7 39.6 5.9 3.9 12.8 5.9 19.8 6 2.6 0 5.2-.3 7.8-.8 9.4-2.1 17.6-7.8 22.9-16"/><path d="M861.4 420.4c4.6 1.7 9.5 2.5 14.4 2.5 18 0 34.2-11.4 40.4-28.4 8.1-22.3-3.3-47.1-25.6-55.4-10.7-4-22.4-3.4-32.7 1.5-10.3 4.9-18.2 13.5-22.1 24.4-.6 1.6-1 3.2-1.4 4.8-5 21.2 6.6 42.9 27 50.6"/><path d="M886.1 296.3c2 .3 4.1.4 6.1.4 25.2 0 46.5-19.1 49.6-44.4 3.3-27.6-16.2-52.9-43.5-56.3-2-.2-4.1-.4-6.1-.4-23-.1-43.1 15.9-48.4 38.4-.4 1.9-.8 4-1.1 6-1.6 13.5 2.1 26.8 10.3 37.4 8.1 10.6 19.9 17.3 33.1 18.9"/><path d="M620.7 614.1c1.7-7.1.7-14.5-2.8-20.3-4.9-8.1-13.6-13.1-23.1-13.2-4.9 0-9.6 1.3-13.8 3.9-6.3 3.8-10.7 9.7-12.4 16.8-1.7 7-.5 14.4 3.1 20.6 4.9 8.1 13.5 13 23 13 4.9 0 9.7-1.3 13.8-3.9 6.1-3.5 10.5-9.7 12.2-16.9"/><path d="M653.7 582c8.1 0 15.9-3.1 21.7-8.8 12-11.7 12.4-32.6.8-44.8-5.8-6.1-13.8-9.6-22.1-9.7-8.6 0-16.3 3.1-22.3 8.9-4.2 4.2-7.2 9.6-8.6 15.4-4.1 16.9 6.1 34 22.9 38.2 2.4.5 5 .8 7.6.8"/><path d="M686.1 499.9c17 11 39.7 6.1 50.6-11 10.6-16.5 5.5-40.4-10.8-51.1-17-11.1-39.6-6.2-50.7 10.9-2.2 3.5-3.9 7.4-4.9 11.4-3.5 15.2 2.8 31.2 15.8 39.8"/><path d="M759.1 320.6c-4.6-1.7-9.5-2.6-14.5-2.6-17.9 0-34.1 11.4-40.2 28.4-.5 1.5-1 3.1-1.4 4.6-5.1 21.4 6.5 43.2 27 50.7 4.7 1.7 9.6 2.6 14.5 2.6 18 0 34.2-11.4 40.3-28.4 8-22.2-3.5-47.1-25.7-55.3"/><path d="M766.7 177.5c-2-.2-4-.4-6.1-.4-23.2 0-43.2 15.9-48.6 38.6-.5 1.9-.8 3.8-1 5.7-1.7 13.3 2 26.7 10.2 37.3 8.3 10.7 20.1 17.4 33.3 19 1.9.2 3.8.4 5.8.4 25.1 0 47-19.5 49.8-44.4 1.7-13.4-1.9-26.6-10.1-37.2-8-10.5-20-17.4-33.3-19"/><path d="M744.1 129.4c2.1 0 4.2-.1 6.3-.4 24.6-2.7 45-20.7 50.8-45 1.6-6.6 2-13.4 1.3-20.1-3.2-30.2-28.2-52.9-58.2-52.9-2.1 0-4.2.1-6.2.3-24.6 2.6-45.1 20.7-50.9 45-1.5 6.6-2 13.4-1.3 20.1 3.2 30.3 28.2 53 58.2 53"/><path d="M279.8 543.8c-3.6-3.5-8.5-5.5-13.6-5.5-7.7 0-14.8 4.5-18 11.5-2.2 4.7-2.4 10.3-.6 15.4 1.8 5.1 5.4 9.2 10.1 11.4 2.6 1.2 5.5 1.9 8.4 1.9 7.8 0 14.8-4.5 18.1-11.6 3.7-7.8 1.9-17.1-4.4-23.1"/><path d="M258.7 594.1c-1.6-.3-3.2-.5-4.9-.5-10.8 0-20.2 7.8-22.5 18.5-1.2 5.7.1 12.1 3.5 17.4 3.4 5.3 8.6 9 14.3 10.2 6.2 1.4 12.2.2 17.4-3.3 5.2-3.4 8.7-8.6 9.9-14.6 1.8-8.1-.7-16.2-6.6-21.8-3-3-6.9-5-11.1-5.9"/><path d="M255.8 714.3c14.8-.4 26.6-12.8 26.3-27.6-.1-7.3-3.1-14.2-8.4-19.2-5-4.8-11.5-7.5-18.3-7.5-7.9.1-14.6 3-19.6 8.2-5 5.2-7.7 12.1-7.5 19.3.3 14.3 12.9 26.7 27 26.7h.5z"/><path d="M275.8 798.8c2.4 0 4.7-.3 7-.9 16.6-4.3 26.9-21.6 22.8-38.6-1.5-5.7-4.5-10.9-8.8-15-5.9-5.7-13.7-8.8-21.7-8.8-2.6 0-5.2.3-7.7 1-8.1 2-14.9 7.2-19.3 14.5-4.3 7.2-5.6 15.8-3.5 24 3.5 13.5 16.9 23.8 31.2 23.8"/><path d="M335.6 886.8c17.9-9.3 25.1-31.6 15.9-49.7-9.2-18.2-31.2-25.4-49.2-16.2-8.7 4.5-15.3 12.3-18.3 21.7-3 9.4-2.2 19.3 2.3 28 6.1 12.2 19.1 20 33.1 20 5.6 0 11.2-1.3 16.2-3.8"/><path d="M424.4 913.5c-1-1.2-2.1-2.4-3.3-3.5-15.8-15.1-40.3-15.9-56.9-1.8-18 15.4-20.3 42.7-5.1 60.9 8.2 9.7 20.3 15.3 33 15.4 10 0 19.6-3.5 27.2-10 18-15.3 20.3-42.7 5.1-61"/><path d="M346.3 522.1c-1.6-.3-3.2-.5-4.8-.5-4.5 0-8.8 1.3-12.6 3.8-5.1 3.4-8.7 8.7-9.9 14.7-1.3 5.9 0 12.2 3.4 17.5 3.4 5.3 8.6 9 14.2 10.1 6.2 1.3 12.2.1 17.4-3.3 5.2-3.3 8.8-8.6 10-14.6 2.8-12.5-5.2-24.9-17.7-27.7"/><path d="M343.4 642.4c14.8-.4 26.6-12.9 26.2-27.8-.1-7.2-3.1-14.1-8.3-19.1-5-4.8-11.4-7.4-18.1-7.4h-1c-7.1.1-13.9 3-18.8 8.2-5 5.2-7.7 12.2-7.5 19.4.3 14.5 12.8 26.7 27.3 26.7h.2z"/><path d="M335.7 679.2c-4.3 7.3-5.5 15.7-3.5 23.9 3.3 13.6 16.7 23.9 31 23.9 2.4 0 4.7-.3 7-.9 16.7-4.2 27-21.5 22.8-38.4-1.5-5.8-4.5-11.1-8.8-15.2-5.8-5.6-13.6-8.7-21.6-8.7-11-.1-21.2 5.8-26.9 15.4"/><path d="M371.6 770.6c-3 9.3-2.2 19.4 2.2 28 6.1 12.2 19.1 20 33.1 20 5.6 0 11.1-1.3 16-3.8 17.9-9.3 25.1-31.6 15.9-49.8-1.9-3.8-4.4-7.2-7.4-10.1-6.7-6.5-15.7-10.1-25.1-10.1-5.8 0-11.5 1.4-16.6 4-8.6 4.7-15.2 12.5-18.1 21.8"/><path d="M512 841.8c-1.1-1.3-2.2-2.5-3.4-3.7-7.9-7.6-18.4-11.8-29.3-11.8-10 0-19.8 3.6-27.6 10.1-17.9 15.4-20.2 42.7-5.2 60.9 8.1 9.8 20 15.4 32.6 15.4 10 0 19.8-3.6 27.6-10.1 8.7-7.4 14.2-18 15.1-29.4 1.1-11.4-2.5-22.6-9.8-31.4"/><path d="M620.3 914c-1.5-1.4-3-2.7-4.6-3.9-8.8-6.7-19.2-10.2-30.1-10.2-2.4 0-4.8.2-7.2.6-13.1 1.9-24.8 8.8-32.7 19.6-16.6 22.3-12.2 53.9 9.9 70.7 8.7 6.6 19.1 10.2 30 10.2 15.9 0 30.5-7.3 40-20.1 15.3-20.6 13-49.3-5.3-66.9"/><path d="M424.7 536.6c14.8-.3 26.7-12.6 26.4-27.6 0-7.3-3-14.2-8.2-19.2-5.1-4.9-11.8-7.5-19-7.5-14.9.3-26.7 12.8-26.5 27.7.3 14.2 12.7 26.7 26.7 26.7l.6-.1z"/><path d="M413.8 597.2c3.3 13.7 16.7 24 31 24 2.3 0 4.7-.3 7-.8 8.2-2.1 15.1-7.2 19.4-14.5 4.3-7.2 5.5-15.8 3.5-24-1.5-5.8-4.6-11.1-8.9-15.3-5.8-5.6-13.5-8.8-21.6-8.8-2.6 0-5.2.3-7.7 1-16.7 4.4-26.9 21.6-22.7 38.4"/><path d="M455.4 693c6.1 12.1 19.1 19.9 33.1 19.9 5.6 0 11-1.3 16-3.8 18-9.2 25.2-31.5 16-49.7-9.2-18.1-31.2-25.4-49.3-16.1-17.9 9.2-25 31.5-15.8 49.7"/><path d="M528.1 791.6c8.1 9.8 20 15.4 32.6 15.4 10.1 0 19.9-3.7 27.7-10.2 18-15.3 20.3-42.6 5.2-60.8-1-1.2-2.1-2.4-3.3-3.5-8-7.7-18.5-12-29.5-12-10.1 0-19.8 3.6-27.6 10.2-17.9 15.3-20.3 42.6-5.1 60.9"/><path d="M707.2 874.9c15.2-20.5 12.9-49.3-5.5-67-1.4-1.3-2.9-2.6-4.4-3.8-8.8-6.7-19.1-10.2-30-10.2-2.4 0-4.8.2-7.1.5-13.3 1.9-25 8.9-32.9 19.6-8 10.8-11.3 24.2-9.3 37.7 1.9 13.4 8.8 25.1 19.2 33 8.8 6.7 19.1 10.2 30 10.2 2.3 0 4.6-.2 7-.5 13.2-1.6 24.9-8.6 33-19.5"/><path d="M850.8 865.9c-4.9-4.6-10.5-8.4-16.6-11.2-7.4-3.4-15.5-5.1-23.6-5.1-23.2 0-44.2 13.8-53.7 35.1-10 22.9-4.7 49.8 13.2 67 4.9 4.6 10.5 8.4 16.6 11.2 7.4 3.4 15.5 5.1 23.6 5.1 23.2 0 44.2-13.8 53.6-35.2 10.1-22.8 4.9-49.7-13.1-66.9"/></svg>