<svg width="1024" height="1024" viewBox="0 0 1024 1024" xmlns="http://www.w3.org/2000/svg"><title>Artboard</title><desc>Created with Sketch.</desc><path d="M54.857 572.952c-30.297 0-54.857-24.56-54.857-54.857s24.56-54.857 54.857-54.857 54.857 24.56 54.857 54.857-24.56 54.857-54.857 54.857zm76.19-210.286c-25.247 0-45.714-20.467-45.714-45.714s20.467-45.714 45.714-45.714 45.714 20.467 45.714 45.714-20.467 45.714-45.714 45.714zm103.619-164.571c-21.881 0-39.619-17.738-39.619-39.619s17.738-39.619 39.619-39.619 39.619 17.738 39.619 39.619-17.738 39.619-39.619 39.619zm524.19-88.381c-30.297 0-54.857-24.56-54.857-54.857s24.56-54.857 54.857-54.857 54.857 24.56 54.857 54.857-24.56 54.857-54.857 54.857zm137.143 155.429c-25.247 0-45.714-20.467-45.714-45.714s20.467-45.714 45.714-45.714 45.714 20.467 45.714 45.714-20.467 45.714-45.714 45.714zm88.381 164.571c-21.881 0-39.619-17.738-39.619-39.619s17.738-39.619 39.619-39.619 39.619 17.738 39.619 39.619-17.738 39.619-39.619 39.619zm-195.048 566.857c-30.297 0-54.857-24.56-54.857-54.857s24.56-54.857 54.857-54.857 54.857 24.56 54.857 54.857-24.56 54.857-54.857 54.857zm-210.286 27.429c-25.247 0-45.714-20.467-45.714-45.714s20.467-45.714 45.714-45.714 45.714 20.467 45.714 45.714-20.467 45.714-45.714 45.714zm-188.952-18.286c-21.881 0-39.619-17.738-39.619-39.619s17.738-39.619 39.619-39.619 39.619 17.738 39.619 39.619-17.738 39.619-39.619 39.619zm-210.286-530.286c-25.247 0-45.714-20.467-45.714-45.714s20.467-45.714 45.714-45.714 45.714 20.467 45.714 45.714-20.467 45.714-45.714 45.714zm73.143-167.619c-21.881 0-39.619-17.738-39.619-39.619s17.738-39.619 39.619-39.619 39.619 17.738 39.619 39.619-17.738 39.619-39.619 39.619zm91.429-134.095c-18.515 0-33.524-15.009-33.524-33.524s15.009-33.524 33.524-33.524 33.524 15.009 33.524 33.524-15.009 33.524-33.524 33.524zm429.714 76.19c-25.247 0-45.714-20.467-45.714-45.714s20.467-45.714 45.714-45.714 45.714 20.467 45.714 45.714-20.467 45.714-45.714 45.714zm103.619 140.19c-21.881 0-39.619-17.738-39.619-39.619s17.738-39.619 39.619-39.619 39.619 17.738 39.619 39.619-17.738 39.619-39.619 39.619zm64 137.143c-18.515 0-33.524-15.009-33.524-33.524s15.009-33.524 33.524-33.524 33.524 15.009 33.524 33.524-15.009 33.524-33.524 33.524zm-289.524 396.19c-25.247 0-45.714-20.467-45.714-45.714s20.467-45.714 45.714-45.714 45.714 20.467 45.714 45.714-20.467 45.714-45.714 45.714zm-176.762 15.238c-21.881 0-39.619-17.738-39.619-39.619s17.738-39.619 39.619-39.619 39.619 17.738 39.619 39.619-17.738 39.619-39.619 39.619zm-155.429-24.381c-18.515 0-33.524-15.009-33.524-33.524s15.009-33.524 33.524-33.524 33.524 15.009 33.524 33.524-15.009 33.524-33.524 33.524zm-18.286-493.714c-21.881 0-39.619-17.738-39.619-39.619s17.738-39.619 39.619-39.619 39.619 17.738 39.619 39.619-17.738 39.619-39.619 39.619zm60.952-137.143c-18.515 0-33.524-15.009-33.524-33.524s15.009-33.524 33.524-33.524 33.524 15.009 33.524 33.524-15.009 33.524-33.524 33.524zm76.19-106.667c-16.832 0-30.476-13.645-30.476-30.476 0-16.832 13.645-30.476 30.476-30.476 16.832 0 30.476 13.645 30.476 30.476 0 16.832-13.645 30.476-30.476 30.476zm316.952 198.095c-21.881 0-39.619-17.738-39.619-39.619s17.738-39.619 39.619-39.619 39.619 17.738 39.619 39.619-17.738 39.619-39.619 39.619zm82.286 112.762c-18.515 0-33.524-15.009-33.524-33.524s15.009-33.524 33.524-33.524 33.524 15.009 33.524 33.524-15.009 33.524-33.524 33.524zm51.81 115.81c-16.832 0-30.476-13.645-30.476-30.476 0-16.832 13.645-30.476 30.476-30.476 16.832 0 30.476 13.645 30.476 30.476 0 16.832-13.645 30.476-30.476 30.476zm-341.333 234.667c-21.881 0-39.619-17.738-39.619-39.619s17.738-39.619 39.619-39.619 39.619 17.738 39.619 39.619-17.738 39.619-39.619 39.619zm-143.238 6.095c-18.515 0-33.524-15.009-33.524-33.524s15.009-33.524 33.524-33.524 33.524 15.009 33.524 33.524-15.009 33.524-33.524 33.524zm-128-18.286c-16.832 0-30.476-13.645-30.476-30.476 0-16.832 13.645-30.476 30.476-30.476 16.832 0 30.476 13.645 30.476 30.476 0 16.832-13.645 30.476-30.476 30.476zm134.095-429.714c-18.515 0-33.524-15.009-33.524-33.524s15.009-33.524 33.524-33.524 33.524 15.009 33.524 33.524-15.009 33.524-33.524 33.524zm45.714-112.762c-16.832 0-30.476-13.645-30.476-30.476 0-16.832 13.645-30.476 30.476-30.476 16.832 0 30.476 13.645 30.476 30.476 0 16.832-13.645 30.476-30.476 30.476zm57.905-91.429c-13.465 0-24.381-10.916-24.381-24.381s10.916-24.381 24.381-24.381 24.381 10.916 24.381 24.381-10.916 24.381-24.381 24.381zm201.143 280.381c-18.515 0-33.524-15.009-33.524-33.524s15.009-33.524 33.524-33.524 33.524 15.009 33.524 33.524-15.009 33.524-33.524 33.524zm70.095 91.429c-16.832 0-30.476-13.645-30.476-30.476 0-16.832 13.645-30.476 30.476-30.476 16.832 0 30.476 13.645 30.476 30.476 0 16.832-13.645 30.476-30.476 30.476zm45.714 88.381c-13.465 0-24.381-10.916-24.381-24.381s10.916-24.381 24.381-24.381 24.381 10.916 24.381 24.381-10.916 24.381-24.381 24.381zm-353.524 94.476c-18.515 0-33.524-15.009-33.524-33.524s15.009-33.524 33.524-33.524 33.524 15.009 33.524 33.524-15.009 33.524-33.524 33.524zm-115.81 12.19c-16.832 0-30.476-13.645-30.476-30.476 0-16.832 13.645-30.476 30.476-30.476 16.832 0 30.476 13.645 30.476 30.476 0 16.832-13.645 30.476-30.476 30.476zm-106.667-15.238c-13.465 0-24.381-10.916-24.381-24.381s10.916-24.381 24.381-24.381 24.381 10.916 24.381 24.381-10.916 24.381-24.381 24.381zm249.905-344.381c-16.832 0-30.476-13.645-30.476-30.476 0-16.832 13.645-30.476 30.476-30.476 16.832 0 30.476 13.645 30.476 30.476 0 16.832-13.645 30.476-30.476 30.476zm27.429-100.571c-13.465 0-24.381-10.916-24.381-24.381s10.916-24.381 24.381-24.381 24.381 10.916 24.381 24.381-10.916 24.381-24.381 24.381zm42.667-73.143c-13.465 0-24.381-10.916-24.381-24.381s10.916-24.381 24.381-24.381 24.381 10.916 24.381 24.381-10.916 24.381-24.381 24.381zm88.381 323.048c-16.832 0-30.476-13.645-30.476-30.476 0-16.832 13.645-30.476 30.476-30.476 16.832 0 30.476 13.645 30.476 30.476 0 16.832-13.645 30.476-30.476 30.476zm67.048 64c-13.465 0-24.381-10.916-24.381-24.381s10.916-24.381 24.381-24.381 24.381 10.916 24.381 24.381-10.916 24.381-24.381 24.381zm42.667 76.19c-13.465 0-24.381-10.916-24.381-24.381s10.916-24.381 24.381-24.381 24.381 10.916 24.381 24.381-10.916 24.381-24.381 24.381zm-338.286-30.476c-16.832 0-30.476-13.645-30.476-30.476 0-16.832 13.645-30.476 30.476-30.476 16.832 0 30.476 13.645 30.476 30.476 0 16.832-13.645 30.476-30.476 30.476zm-94.476 15.238c-13.465 0-24.381-10.916-24.381-24.381s10.916-24.381 24.381-24.381 24.381 10.916 24.381 24.381-10.916 24.381-24.381 24.381zm-88.381 0c-13.465 0-24.381-10.916-24.381-24.381s10.916-24.381 24.381-24.381 24.381 10.916 24.381 24.381-10.916 24.381-24.381 24.381zm329.143-259.048c-13.465 0-24.381-10.916-24.381-24.381s10.916-24.381 24.381-24.381 24.381 10.916 24.381 24.381-10.916 24.381-24.381 24.381zm12.19-82.286c-13.465 0-24.381-10.916-24.381-24.381s10.916-24.381 24.381-24.381 24.381 10.916 24.381 24.381-10.916 24.381-24.381 24.381zm24.381-76.19c-10.099 0-18.286-8.187-18.286-18.286 0-10.099 8.187-18.286 18.286-18.286 10.099 0 18.286 8.187 18.286 18.286 0 10.099-8.187 18.286-18.286 18.286zm-12.19 341.333c-13.465 0-24.381-10.916-24.381-24.381s10.916-24.381 24.381-24.381 24.381 10.916 24.381 24.381-10.916 24.381-24.381 24.381zm64 51.81c-13.465 0-24.381-10.916-24.381-24.381s10.916-24.381 24.381-24.381 24.381 10.916 24.381 24.381-10.916 24.381-24.381 24.381zm51.81 51.81c-10.099 0-18.286-8.187-18.286-18.286 0-10.099 8.187-18.286 18.286-18.286 10.099 0 18.286 8.187 18.286 18.286 0 10.099-8.187 18.286-18.286 18.286zm-307.81-124.952c-13.465 0-24.381-10.916-24.381-24.381s10.916-24.381 24.381-24.381 24.381 10.916 24.381 24.381-10.916 24.381-24.381 24.381zm-76.19 30.476c-13.465 0-24.381-10.916-24.381-24.381s10.916-24.381 24.381-24.381 24.381 10.916 24.381 24.381-10.916 24.381-24.381 24.381zm-73.143 9.143c-10.099 0-18.286-8.187-18.286-18.286 0-10.099 8.187-18.286 18.286-18.286 10.099 0 18.286 8.187 18.286 18.286 0 10.099-8.187 18.286-18.286 18.286z" fill="#000" fill-rule="nonzero"/></svg>