<svg xmlns="http://www.w3.org/2000/svg" viewBox="0 0 1024 1024"><path d="M768 0C626.637 0 512 114.637 512 256c0 54.886 17.306 105.779 46.746 147.456L7.527 954.675c-9.984 9.984-9.984 26.214 0 36.198 5.018 5.018 11.571 7.475 18.125 7.475s13.107-2.509 18.125-7.475l58.675-58.675 84.275 84.275c5.018 5.018 11.571 7.475 18.125 7.475s13.107-2.509 18.125-7.475c9.984-9.984 9.984-26.214 0-36.198L138.702 896l40.602-40.602 84.275 84.275c5.018 5.018 11.571 7.475 18.125 7.475s13.107-2.509 18.125-7.475c9.984-9.984 9.984-26.214 0-36.198L215.554 819.2 592.54 442.214C638.364 485.478 700.162 512 768.156 512c141.363 0 256-114.637 256-256S909.519 0 768.156 0zm144.794 400.794C874.087 439.501 822.682 460.8 768 460.8s-106.138-21.299-144.794-60.006C584.499 362.087 563.2 310.682 563.2 256s21.299-106.138 60.006-144.794C661.913 72.499 713.318 51.2 768 51.2s106.138 21.299 144.794 60.006C951.501 149.913 972.8 201.318 972.8 256s-21.299 106.138-60.006 144.794z"/></svg>