<?xml version="1.0" encoding="utf-8"?>
<!-- Generator: Adobe Illustrator 16.0.0, SVG Export Plug-In . SVG Version: 6.00 Build 0)  -->
<!DOCTYPE svg PUBLIC "-//W3C//DTD SVG 1.0//EN" "http://www.w3.org/TR/2001/REC-SVG-20010904/DTD/svg10.dtd">
<svg version="1.0" id="Layer_1" xmlns="http://www.w3.org/2000/svg" xmlns:xlink="http://www.w3.org/1999/xlink" x="0px" y="0px"
	 width="1024px" height="1024px" viewBox="0 0 1024 1024" enable-background="new 0 0 1024 1024" xml:space="preserve">
<title>Key</title>
<g id="Layer_2">
	<g id="Layer_1-2">
		<path d="M489.39,1024c-6.564-0.159-12.829-2.782-17.55-7.347c-4.612-4.656-7.119-10.997-6.938-17.55l5.714-570.975
			c-102.197-19.807-175.675-109.766-174.68-213.86C296.877,95.687,393.251,0.041,511.837,0
			c119.238-0.208,216.069,96.285,216.277,215.524c0.102,58.184-23.285,113.946-64.861,154.651
			c-38.383,37.952-89.709,59.97-143.662,61.628l-3.673,362.42l95.503,0.816c13.524-0.002,24.489,10.96,24.491,24.484
			c0,0.137-0.001,0.274-0.004,0.411c-0.159,6.564-2.781,12.829-7.346,17.55c-4.721,4.515-11.019,7.005-17.55,6.938l-95.503-0.816
			l-0.408,40.405l95.503,0.815c13.524-0.002,24.489,10.96,24.491,24.484c0,0.138-0.001,0.274-0.004,0.412
			c-0.159,6.564-2.781,12.829-7.346,17.55c-4.72,4.515-11.019,7.005-17.55,6.938l-95.503-0.815l-0.408,65.301
			c-0.159,6.564-2.781,12.829-7.346,17.55C502.523,1021.298,496.098,1024.137,489.39,1024L489.39,1024z M511.837,49.792
			c-43.654,0.05-85.554,17.19-116.726,47.751c-65.479,64.191-66.522,169.309-2.332,234.787c0.097,0.099,0.194,0.198,0.291,0.296
			c30.772,31.656,72.986,49.6,117.134,49.792h1.633c43.653-0.05,85.553-17.19,116.726-47.751
			c65.479-64.19,66.522-169.308,2.332-234.787c-0.098-0.099-0.194-0.198-0.292-0.296c-30.772-31.656-72.986-49.6-117.133-49.792
			H511.837z"/>
	</g>
</g>
</svg>
