<svg xmlns="http://www.w3.org/2000/svg" viewBox="0 0 1024 1024"><path d="M25.6 972.8c-11.52 0-21.606-7.68-24.678-18.79s1.638-22.886 11.52-28.774c86.579-51.917 122.47-127.437 135.219-162.765C53.555 690.433 0 590.746 0 486.401c0-52.685 13.21-103.731 39.322-151.757 24.883-45.773 60.416-86.784 105.523-121.907C236.339 141.569 357.632 102.35 486.4 102.35s250.061 39.219 341.555 110.387c45.107 35.072 80.64 76.083 105.523 121.907 26.112 47.974 39.322 99.021 39.322 151.757s-13.21 103.731-39.322 151.757c-24.883 45.773-60.416 86.784-105.523 121.907-91.494 71.168-212.787 110.387-341.555 110.387-52.89 0-104.806-6.605-154.419-19.712-21.965 14.643-63.027 40.602-112.077 65.024-76.186 37.888-141.517 57.088-194.253 57.088zm460.8-819.2c-239.974 0-435.2 149.299-435.2 332.8 0 92.928 51.456 182.374 141.107 245.35a25.659 25.659 0 0 1 10.035 27.597c-5.99 22.323-26.368 83.61-80.896 142.746 66.662-23.347 138.445-63.846 191.437-100.301 6.298-4.352 14.182-5.632 21.555-3.533C382.976 812.134 434.124 819.2 486.4 819.2c239.974 0 435.2-149.299 435.2-332.8S726.374 153.6 486.4 153.6z"/></svg>