<svg xmlns="http://www.w3.org/2000/svg" viewBox="0 0 1024 1024"><path d="M546.918 665.498c-48.282 0-96.563-18.381-133.325-55.142-9.984-9.984-9.984-26.214 0-36.198s26.214-9.984 36.198 0c53.555 53.555 140.646 53.555 194.202 0l186.163-186.163c53.555-53.555 53.555-140.646 0-194.202s-140.646-53.555-194.202 0L478.872 350.875c-9.984 9.984-26.214 9.984-36.198 0s-9.984-26.214 0-36.198l157.082-157.082c73.523-73.523 193.126-73.523 266.598 0s73.523 193.126 0 266.598L680.191 610.356c-36.762 36.762-85.043 55.142-133.325 55.142zm-307.2 307.2c-48.282 0-96.563-18.381-133.325-55.142-73.523-73.523-73.523-193.126 0-266.598l186.163-186.163c73.523-73.523 193.126-73.523 266.598 0 9.984 9.984 9.984 26.214 0 36.198s-26.214 9.984-36.198 0c-53.555-53.555-140.646-53.555-194.202 0L142.591 687.156c-53.555 53.555-53.555 140.646 0 194.202s140.646 53.555 194.202 0l157.082-157.082c9.984-9.984 26.214-9.984 36.198 0s9.984 26.214 0 36.198L372.991 917.556c-36.762 36.762-85.043 55.142-133.325 55.142z"/></svg>