<svg xmlns="http://www.w3.org/2000/svg" viewBox="0 0 1024 1024"><path d="M486.4 614.4c-14.131 0-25.6-11.469-25.6-25.6V128c0-14.131 11.469-25.6 25.6-25.6S512 113.869 512 128v460.8c0 14.131-11.469 25.6-25.6 25.6zm0 358.4c-102.554 0-199.014-39.936-271.514-112.486S102.4 691.354 102.4 588.8c0-84.378 26.88-164.454 77.67-231.578 49.152-64.922 118.989-113.408 196.608-136.499 13.568-4.045 27.802 3.686 31.846 17.254s-3.686 27.802-17.254 31.846C251.34 311.5 153.548 442.674 153.548 588.85c0 183.501 149.299 332.8 332.8 332.8s332.8-149.299 332.8-332.8c0-146.176-97.741-277.35-237.722-319.027-13.568-4.045-21.248-18.278-17.254-31.846s18.278-21.248 31.846-17.254c77.67 23.091 147.456 71.578 196.608 136.499 50.842 67.123 77.67 147.2 77.67 231.578 0 102.554-39.936 199.014-112.486 271.514S588.85 972.8 486.296 972.8z"/></svg>