<svg xmlns="http://www.w3.org/2000/svg" viewBox="0 0 1024 1024"><path d="M793.6 358.4c-14.131 0-25.6 11.469-25.6 25.6v102.4c0 14.131-11.469 25.6-25.6 25.6h-128V384c0-14.131-11.469-25.6-25.6-25.6s-25.6 11.469-25.6 25.6v128h-53.76c-10.189-50.074-49.766-89.6-99.84-99.84V384c0-14.131-11.469-25.6-25.6-25.6s-25.6 11.469-25.6 25.6v28.16c-50.074 10.189-89.6 49.766-99.84 99.84H204.8V384c0-14.131-11.469-25.6-25.6-25.6s-25.6 11.469-25.6 25.6v307.2c0 14.131 11.469 25.6 25.6 25.6s25.6-11.469 25.6-25.6v-128h53.76c10.189 50.074 49.766 89.6 99.84 99.84v28.16c0 14.131 11.469 25.6 25.6 25.6s25.6-11.469 25.6-25.6v-28.16c50.074-10.189 89.6-49.766 99.84-99.84h53.76v128c0 14.131 11.469 25.6 25.6 25.6s25.6-11.469 25.6-25.6v-128h128c42.342 0 76.8-34.458 76.8-76.8V384c0-14.131-11.469-25.6-25.6-25.6zM384 614.4c-42.342 0-76.8-34.458-76.8-76.8s34.458-76.8 76.8-76.8 76.8 34.458 76.8 76.8-34.458 76.8-76.8 76.8zM230.4 1024H128c-14.131 0-25.6-11.469-25.6-25.6V896c0-14.131 11.469-25.6 25.6-25.6h76.8v-51.2H128c-14.131 0-25.6-11.469-25.6-25.6S113.869 768 128 768h102.4c14.131 0 25.6 11.469 25.6 25.6V896c0 14.131-11.469 25.6-25.6 25.6h-76.8v51.2h76.8c14.131 0 25.6 11.469 25.6 25.6s-11.469 25.6-25.6 25.6zM435.2 51.2H332.8c-14.131 0-25.6 11.469-25.6 25.6s11.469 25.6 25.6 25.6h76.8v51.2h-76.8c-14.131 0-25.6 11.469-25.6 25.6s11.469 25.6 25.6 25.6h76.8V256h-84.019c-14.131 0-25.6 11.469-25.6 25.6s11.469 25.6 25.6 25.6H435.2c14.131 0 25.6-11.469 25.6-25.6V76.8c0-14.131-11.469-25.6-25.6-25.6zm0 716.8c-14.131 0-25.6 11.469-25.6 25.6v76.8h-51.2v-76.8c0-14.131-11.469-25.6-25.6-25.6s-25.6 11.469-25.6 25.6V896c0 14.131 11.469 25.6 25.6 25.6h76.8v76.8c0 14.131 11.469 25.6 25.6 25.6s25.6-11.469 25.6-25.6V793.6c0-14.131-11.469-25.6-25.6-25.6zM640 307.2H537.6c-14.131 0-25.6-11.469-25.6-25.6s11.469-25.6 25.6-25.6h76.8v-51.2h-76.8c-14.131 0-25.6-11.469-25.6-25.6V76.8c0-14.131 11.469-25.6 25.6-25.6H640c14.131 0 25.6 11.469 25.6 25.6s-11.469 25.6-25.6 25.6h-76.8v51.2H640c14.131 0 25.6 11.469 25.6 25.6v102.4c0 14.131-11.469 25.6-25.6 25.6zm0 716.8H537.6c-14.131 0-25.6-11.469-25.6-25.6V793.6c0-14.131 11.469-25.6 25.6-25.6H640c14.131 0 25.6 11.469 25.6 25.6s-11.469 25.6-25.6 25.6h-76.8v51.2H640c14.131 0 25.6 11.469 25.6 25.6v102.4c0 14.131-11.469 25.6-25.6 25.6zm-76.8-51.2h51.2v-51.2h-51.2v51.2zm281.6-665.6c-6.554 0-13.107-2.509-18.074-7.475L768 241.05v40.602c0 14.131-11.469 25.6-25.6 25.6s-25.6-11.469-25.6-25.6V179.457 76.904c0-14.131 11.469-25.6 25.6-25.6h102.4c14.131 0 25.6 11.469 25.6 25.6v102.4c0 14.131-11.469 25.6-25.6 25.6h-40.602l58.675 58.675c9.984 9.984 9.984 26.214 0 36.198-5.018 5.018-11.571 7.475-18.125 7.475zM768 153.6h51.2v-51.2H768v51.2zM230.4 256h-25.6V76.8c0-14.131-11.469-25.6-25.6-25.6H128c-14.131 0-25.6 11.469-25.6 25.6s11.469 25.6 25.6 25.6h25.6V256H128c-14.131 0-25.6 11.469-25.6 25.6s11.469 25.6 25.6 25.6h102.4c14.131 0 25.6-11.469 25.6-25.6S244.531 256 230.4 256z"/></svg>