<svg xmlns="http://www.w3.org/2000/svg" viewBox="0 0 1024 1024"><path d="M947.2 512H512V409.6h76.8c14.131 0 25.6-11.469 25.6-25.6V179.2c0-14.131-11.469-25.6-25.6-25.6H384c-14.131 0-25.6 11.469-25.6 25.6V384c0 14.131 11.469 25.6 25.6 25.6h76.8V512H25.6C11.469 512 0 523.469 0 537.6s11.469 25.6 25.6 25.6h179.2v102.4H128c-14.131 0-25.6 11.469-25.6 25.6V896c0 14.131 11.469 25.6 25.6 25.6h204.8c14.131 0 25.6-11.469 25.6-25.6V691.2c0-14.131-11.469-25.6-25.6-25.6H256V563.2h460.8v102.4H640c-14.131 0-25.6 11.469-25.6 25.6V896c0 14.131 11.469 25.6 25.6 25.6h204.8c14.131 0 25.6-11.469 25.6-25.6V691.2c0-14.131-11.469-25.6-25.6-25.6H768V563.2h179.2c14.131 0 25.6-11.469 25.6-25.6S961.331 512 947.2 512zM409.6 204.8h153.6v153.6H409.6V204.8zM307.2 870.4H153.6V716.8h153.6v153.6zm512 0H665.6V716.8h153.6v153.6z"/></svg>