<svg xmlns="http://www.w3.org/2000/svg" viewBox="0 0 1024 1024"><path d="M860.16 773.171C801.587 729.19 768 661.965 768 588.8V435.2c0-128.666-86.733-237.466-204.8-270.95V128c0-42.342-34.458-76.8-76.8-76.8s-76.8 34.458-76.8 76.8v36.25C291.533 197.786 204.8 306.535 204.8 435.2v153.6c0 73.165-33.587 140.339-92.16 184.371-8.806 6.605-12.39 18.125-8.909 28.57s13.261 17.51 24.269 17.51h232.96c-1.69 8.397-2.611 16.947-2.611 25.6 0 70.554 57.446 128 128 128s128-57.446 128-128c0-8.602-.87-17.203-2.56-25.6h232.96c11.008 0 20.787-7.066 24.269-17.51s-.102-21.965-8.909-28.57zM460.8 128c0-14.131 11.469-25.6 25.6-25.6S512 113.869 512 128v26.778c-8.448-.768-16.947-1.178-25.6-1.178s-17.152.41-25.6 1.178V128zm102.4 716.8c0 42.342-34.458 76.8-76.8 76.8s-76.8-34.458-76.8-76.8c0-8.755 1.536-17.408 4.403-25.6h144.794c2.867 8.192 4.403 16.845 4.403 25.6zM191.59 768c13.056-15.821 24.422-33.075 33.741-51.251C245.709 676.915 256 633.856 256 588.8V435.2c0-127.027 103.373-230.4 230.4-230.4s230.4 103.373 230.4 230.4v153.6c0 45.056 10.342 88.115 30.669 127.949 9.318 18.227 20.685 35.43 33.741 51.251H191.54z"/></svg>