<svg xmlns="http://www.w3.org/2000/svg" viewBox="0 0 1024 1024"><path d="M742.4 409.6h-25.6v-76.8c0-127.027-103.373-230.4-230.4-230.4S256 205.773 256 332.8v76.8h-25.6c-42.342 0-76.8 34.458-76.8 76.8V896c0 42.342 34.458 76.8 76.8 76.8h512c42.342 0 76.8-34.458 76.8-76.8V486.4c0-42.342-34.458-76.8-76.8-76.8zm-435.2-76.8c0-98.816 80.384-179.2 179.2-179.2s179.2 80.384 179.2 179.2v76.8H307.2v-76.8zM768 896c0 14.131-11.469 25.6-25.6 25.6h-512c-14.131 0-25.6-11.469-25.6-25.6V486.4c0-14.131 11.469-25.6 25.6-25.6h512c14.131 0 25.6 11.469 25.6 25.6V896z"/></svg>