<svg xmlns="http://www.w3.org/2000/svg" viewBox="0 0 1024 1024" enable-background="new 0 0 1024 1024"><path d="M813.2 361.4h-30.1v-90.4c0-149.4-121.7-271-271.1-271s-271.1 121.6-271.1 271.1v90.4h-30.1c-49.8 0-90.4 40.5-90.4 90.4v481.9c0 49.8 40.5 90.4 90.4 90.4h602.4c49.8 0 90.4-40.5 90.4-90.4v-482c-.1-49.8-40.6-90.4-90.4-90.4zm-512-90.3c0-116.3 94.6-210.8 210.8-210.8 116.3 0 210.8 94.6 210.8 210.8v90.4h-421.6v-90.4zm542.1 662.5c0 16.6-13.5 30.1-30.1 30.1h-602.4c-16.6 0-30.1-13.5-30.1-30.1v-481.8c0-16.6 13.5-30.1 30.1-30.1h602.4c16.6 0 30.1 13.5 30.1 30.1v481.8z"/></svg>