<svg xmlns="http://www.w3.org/2000/svg" viewBox="0 0 1024 1024"><path d="M952.115 740.198L464.691 297.062c-4.864-4.403-7.578-10.291-7.731-16.64s2.304-12.339 6.963-16.998l117.402-117.402c7.322-7.322 9.523-18.33 5.53-27.904s-13.312-15.821-23.654-15.821c-2.099 0-52.582.051-107.11 3.226-104.141 6.144-129.536 17.971-141.414 29.85l-179.2 179.2c-4.813 4.813-7.475 11.315-7.475 18.125v25.6h-25.6c-6.81 0-13.312 2.714-18.125 7.475l-51.2 51.2c-9.984 9.984-9.984 26.214 0 36.198l102.4 102.4c9.984 9.984 26.214 9.984 36.198 0l51.2-51.2c4.813-4.813 7.475-11.315 7.475-18.125v-25.6h25.6c6.81 0 13.312-2.714 18.125-7.475l40.602-40.602c4.506-4.506 10.342-6.963 16.435-6.963 6.502 0 12.595 2.765 17.152 7.731L791.4 900.761c14.182 15.565 34.253 24.525 55.04 24.525 19.814 0 38.502-7.782 52.634-21.965l55.603-55.603c14.643-14.643 22.426-33.946 21.914-54.374s-9.165-39.373-24.474-53.299zM331.11 354.56c-19.814 0-38.502 7.782-52.634 21.965L245.401 409.6h-40.602c-14.131 0-25.6 11.469-25.6 25.6v40.602l-25.6 25.6L87.397 435.2l25.6-25.6h40.602c14.131 0 25.6-11.469 25.6-25.6v-40.602L350.207 172.39c3.226-1.843 23.552-10.906 113.818-15.923 12.493-.717 24.73-1.229 36.147-1.638l-72.448 72.448c-14.643 14.643-22.426 33.946-21.914 54.374s9.165 39.373 24.474 53.299l44.646 40.602-48.128 48.128-40.602-44.646c-14.182-15.565-34.253-24.525-55.04-24.525zm587.367 457.165l-55.603 55.603c-4.506 4.506-10.342 6.963-16.435 6.963-6.502 0-12.595-2.765-17.152-7.731L461.261 461.722l51.61-51.61 404.838 368.026c4.864 4.403 7.578 10.291 7.731 16.64s-2.304 12.339-6.963 16.998z"/></svg>