<svg xmlns="http://www.w3.org/2000/svg" viewBox="0 0 1024 1024"><path d="M947.2 204.8h-76.8v-128c0-42.342-34.458-76.8-76.8-76.8H230.4c-42.342 0-76.8 34.458-76.8 76.8v128H76.8C34.458 204.8 0 239.258 0 281.6v460.8c0 42.342 34.458 76.8 76.8 76.8h76.8v128c0 42.342 34.458 76.8 76.8 76.8h563.2c42.342 0 76.8-34.458 76.8-76.8v-128h76.8c42.342 0 76.8-34.458 76.8-76.8V281.6c0-42.342-34.458-76.8-76.8-76.8zm-742.4-128c0-14.131 11.469-25.6 25.6-25.6h563.2c14.131 0 25.6 11.469 25.6 25.6v128H204.8v-128zm588.8 896H230.4c-14.131 0-25.6-11.469-25.6-25.6V614.4h614.4v332.8c0 14.131-11.469 25.6-25.6 25.6zm179.2-230.4c0 14.131-11.469 25.6-25.6 25.6h-76.8V614.4H896c14.131 0 25.6-11.469 25.6-25.6s-11.469-25.6-25.6-25.6H128c-14.131 0-25.6 11.469-25.6 25.6s11.469 25.6 25.6 25.6h25.6V768H76.8c-14.131 0-25.6-11.469-25.6-25.6V281.6c0-14.131 11.469-25.6 25.6-25.6h870.4c14.131 0 25.6 11.469 25.6 25.6v460.8zm-230.4-25.6H281.6c-14.131 0-25.6-11.469-25.6-25.6s11.469-25.6 25.6-25.6h460.8c14.131 0 25.6 11.469 25.6 25.6s-11.469 25.6-25.6 25.6zm0 102.4H281.6c-14.131 0-25.6-11.469-25.6-25.6s11.469-25.6 25.6-25.6h460.8c14.131 0 25.6 11.469 25.6 25.6s-11.469 25.6-25.6 25.6zm0 102.4H281.6c-14.131 0-25.6-11.469-25.6-25.6s11.469-25.6 25.6-25.6h460.8c14.131 0 25.6 11.469 25.6 25.6s-11.469 25.6-25.6 25.6zm102.4-460.8c-42.342 0-76.8-34.458-76.8-76.8s34.458-76.8 76.8-76.8 76.8 34.458 76.8 76.8-34.458 76.8-76.8 76.8zm0-102.4c-14.131 0-25.6 11.469-25.6 25.6s11.469 25.6 25.6 25.6 25.6-11.469 25.6-25.6-11.469-25.6-25.6-25.6z"/></svg>