<svg xmlns="http://www.w3.org/2000/svg" viewBox="0 0 1024 1024"><path d="M947.2 480.358L813.773 213.555C796.979 179.917 754.381 153.6 716.8 153.6h-128c-14.131 0-25.6 11.469-25.6 25.6s11.469 25.6 25.6 25.6h128c18.534 0 42.906 15.104 51.2 31.642l133.427 266.803c1.434 2.816 2.816 5.99 4.147 9.37a73.3 73.3 0 0 0-9.574-.614H640c-14.131 0-25.6 11.469-25.6 25.6 0 70.554-57.446 128-128 128s-128-57.446-128-128c0-14.131-11.469-25.6-25.6-25.6h-256c-3.226 0-6.4.205-9.574.614 1.331-3.379 2.714-6.554 4.147-9.37L204.8 236.442c8.294-16.538 32.666-31.642 51.2-31.642h128c14.131 0 25.6-11.469 25.6-25.6s-11.469-25.6-25.6-25.6H256c-37.581 0-80.179 26.317-96.973 59.955L25.6 480.358C11.264 509.081 0 556.697 0 588.8v204.8c0 42.342 34.458 76.8 76.8 76.8H896c42.342 0 76.8-34.458 76.8-76.8V588.8c0-32.102-11.264-79.718-25.6-108.442zM921.6 793.6c0 14.131-11.469 25.6-25.6 25.6H76.8c-14.131 0-25.6-11.469-25.6-25.6V588.8c0-14.131 11.469-25.6 25.6-25.6h232.243c12.442 86.733 87.245 153.6 177.357 153.6s164.915-66.867 177.357-153.6H896c14.131 0 25.6 11.469 25.6 25.6v204.8zM606.925 340.275c-9.984-9.984-26.214-9.984-36.198 0l-58.675 58.675V179.148c0-14.131-11.469-25.6-25.6-25.6s-25.6 11.469-25.6 25.6V398.95l-58.675-58.675c-9.984-9.984-26.214-9.984-36.198 0s-9.984 26.214 0 36.198l102.4 102.4c5.018 5.018 11.571 7.475 18.125 7.475s13.107-2.509 18.125-7.475l102.4-102.4c9.984-9.984 9.984-26.214 0-36.198z"/></svg>