<svg xmlns="http://www.w3.org/2000/svg" viewBox="0 0 1024 1024" enable-background="new 0 0 1024 1024"><path d="M997.1 478.7l-140.5-280.8c-17.7-35.4-62.5-63.1-102.1-63.1h-134.7c-14.9 0-26.9 12.1-26.9 26.9 0 14.9 12.1 26.9 26.9 26.9h134.7c19.5 0 45.2 15.9 53.9 33.3l140.4 280.8c1.5 3 3 6.3 4.4 9.9-3.3-.4-6.7-.7-10.1-.6h-269.4c-14.9 0-26.9 12.1-26.9 26.9 0 74.3-60.5 134.7-134.7 134.7s-134.8-60.4-134.8-134.6c0-14.9-12.1-26.9-26.9-26.9h-269.6c-3.4 0-6.7.2-10.1.6 1.4-3.6 2.9-6.9 4.4-9.9l140.5-280.8c8.7-17.4 34.4-33.3 53.9-33.3h134.7c14.9 0 26.9-12.1 26.9-26.9 0-14.9-12.1-26.9-26.9-26.9h-134.7c-39.6 0-84.4 27.7-102.1 63.1l-140.5 280.7c-15 30.3-26.9 80.4-26.9 114.2v215.6c0 44.6 36.3 80.8 80.8 80.8h862.3c44.6 0 80.8-36.3 80.8-80.8v-215.6c.1-33.8-11.8-83.9-26.8-114.2zm-27 329.7c0 14.9-12.1 26.9-26.9 26.9h-862.4c-14.9 0-26.9-12.1-26.9-26.9v-215.5c0-14.9 12.1-26.9 26.9-26.9h244.5c13.1 91.3 91.8 161.7 186.7 161.7s173.6-70.4 186.7-161.7h244.5c14.9 0 26.9 12.1 26.9 26.9v215.5zm-331.2-477.1c-10.5-10.5-27.6-10.5-38.1 0l-61.8 61.7v-231.3c0-14.9-12.1-26.9-26.9-26.9-14.9 0-26.9 12.1-26.9 26.9v231.3l-61.8-61.8c-10.5-10.5-27.6-10.5-38.1 0s-10.5 27.6 0 38.1l107.7 107.9c5.3 5.3 12.2 7.9 19.1 7.9s13.8-2.6 19.1-7.9l107.8-107.8c10.5-10.5 10.5-27.6 0-38.1h-.1z"/></svg>