<?xml version="1.0" encoding="utf-8"?>
<!-- Generator: Adobe Illustrator 19.0.0, SVG Export Plug-In . SVG Version: 6.00 Build 0)  -->
<svg version="1.1" id="Layer_1" xmlns="http://www.w3.org/2000/svg" xmlns:xlink="http://www.w3.org/1999/xlink" x="0px" y="0px"
	 viewBox="0 0 1024 1024" style="enable-background:new 0 0 1024 1024;" xml:space="preserve">
<path d="M991.6,981.1l-304.3-332c68.6-71.7,106.2-165.5,106.2-265.1c0-102.6-39.9-199-112.5-271.5C608.6,40,512.1,0,409.6,0
	s-199,39.9-271.5,112.5S25.6,281.4,25.6,384s39.9,199,112.5,271.5S307,768,409.6,768c88.4,0,172.1-29.6,240-84.2l304.3,331.9
	c5.1,5.5,11.9,8.3,18.9,8.3c6.2,0,12.4-2.2,17.3-6.7C1000.5,1007.7,1001.2,991.5,991.6,981.1L991.6,981.1z M76.7,384
	C76.7,200.5,226,51.2,409.5,51.2S742.3,200.5,742.3,384S593,716.8,409.5,716.8S76.7,567.5,76.7,384"/>
</svg>
