<svg xmlns="http://www.w3.org/2000/svg" viewBox="0 0 1024 1024"><path d="M486.4 1024a25.77 25.77 0 0 1-8.09-1.331c-94.157-31.386-212.326-135.731-301.056-265.882C96.409 638.208 0 441.702 0 179.149c0-14.131 11.469-25.6 25.6-25.6 144.077 0 370.586-98.611 446.618-149.299a25.62 25.62 0 0 1 28.416 0c76.032 50.688 302.541 149.299 446.618 149.299 14.131 0 25.6 11.469 25.6 25.6 0 262.554-96.41 459.008-177.254 577.638-88.73 130.099-206.899 234.496-301.056 265.882a25.766 25.766 0 0 1-8.09 1.331zM51.507 203.981c5.786 237.107 93.798 415.13 168.038 524.032 90.573 132.813 197.427 216.576 266.854 243.251 69.427-26.675 176.282-110.387 266.854-243.251 74.24-108.902 162.253-286.925 168.038-524.032-83.354-5.222-176.23-33.894-242.176-58.368-72.602-26.88-145.869-61.082-192.717-89.651-46.848 28.57-120.115 62.771-192.717 89.651-65.997 24.422-158.822 53.146-242.176 58.368zM435.2 640a25.715 25.715 0 0 1-18.125-7.475l-102.4-102.4c-9.984-9.984-9.984-26.214 0-36.198s26.214-9.984 36.198 0l84.275 84.275 237.875-237.875c9.984-9.984 26.214-9.984 36.198 0s9.984 26.214 0 36.198l-256 256c-5.018 5.018-11.571 7.475-18.125 7.475z"/></svg>