<svg xmlns="http://www.w3.org/2000/svg" viewBox="0 0 1024 1024"><path d="M1015.45 57.702a25.542 25.542 0 0 0-26.982-4.506l-972.8 409.6C5.838 466.943-.409 476.722.001 487.372s7.373 19.917 17.51 23.296l289.69 96.563v288.768c0 10.854 6.81 20.48 17.05 24.115 2.816.973 5.683 1.485 8.55 1.485 7.578 0 14.899-3.379 19.866-9.472l141.466-174.131 230.246 227.379c4.864 4.813 11.315 7.373 17.971 7.373 2.15 0 4.301-.256 6.4-.819a25.664 25.664 0 0 0 18.176-17.562l256-870.4c2.816-9.472-.154-19.712-7.526-26.317zM825.856 177.203L327.987 560.179 98.201 483.584l727.654-306.381zM358.4 601.395l482.048-370.79L472.115 683.93s0 .051-.051.051L358.4 823.911V601.396zm371.507 297.523L526.541 698.112l411.29-506.214-207.923 706.97z"/></svg>