<svg xmlns="http://www.w3.org/2000/svg" viewBox="0 0 1024 1024"><path d="M128 1024c-14.131 0-25.6-11.469-25.6-25.6V588.8c0-14.131 11.469-25.6 25.6-25.6s25.6 11.469 25.6 25.6v409.6c0 14.131-11.469 25.6-25.6 25.6zm0-716.8c-14.131 0-25.6-11.469-25.6-25.6v-256C102.4 11.469 113.869 0 128 0s25.6 11.469 25.6 25.6v256c0 14.131-11.469 25.6-25.6 25.6zM179.2 512H76.8C34.458 512 0 477.542 0 435.2s34.458-76.8 76.8-76.8h102.4c42.342 0 76.8 34.458 76.8 76.8S221.542 512 179.2 512zM76.8 409.6c-14.131 0-25.6 11.469-25.6 25.6s11.469 25.6 25.6 25.6h102.4c14.131 0 25.6-11.469 25.6-25.6s-11.469-25.6-25.6-25.6H76.8zM486.4 1024c-14.131 0-25.6-11.469-25.6-25.6V793.6c0-14.131 11.469-25.6 25.6-25.6s25.6 11.469 25.6 25.6v204.8c0 14.131-11.469 25.6-25.6 25.6zm0-512c-14.131 0-25.6-11.469-25.6-25.6V25.6c0-14.131 11.469-25.6 25.6-25.6S512 11.469 512 25.6v460.8c0 14.131-11.469 25.6-25.6 25.6zm51.2 204.8H435.2c-42.342 0-76.8-34.458-76.8-76.8s34.458-76.8 76.8-76.8h102.4c42.342 0 76.8 34.458 76.8 76.8s-34.458 76.8-76.8 76.8zM435.2 614.4c-14.131 0-25.6 11.469-25.6 25.6s11.469 25.6 25.6 25.6h102.4c14.131 0 25.6-11.469 25.6-25.6s-11.469-25.6-25.6-25.6H435.2zM844.8 1024c-14.131 0-25.6-11.469-25.6-25.6v-512c0-14.131 11.469-25.6 25.6-25.6s25.6 11.469 25.6 25.6v512c0 14.131-11.469 25.6-25.6 25.6zm0-819.2c-14.131 0-25.6-11.469-25.6-25.6V25.6c0-14.131 11.469-25.6 25.6-25.6s25.6 11.469 25.6 25.6v153.6c0 14.131-11.469 25.6-25.6 25.6zM896 409.6H793.6c-42.342 0-76.8-34.458-76.8-76.8s34.458-76.8 76.8-76.8H896c42.342 0 76.8 34.458 76.8 76.8s-34.458 76.8-76.8 76.8zM793.6 307.2c-14.131 0-25.6 11.469-25.6 25.6s11.469 25.6 25.6 25.6H896c14.131 0 25.6-11.469 25.6-25.6s-11.469-25.6-25.6-25.6H793.6z"/></svg>