<svg xmlns="http://www.w3.org/2000/svg" viewBox="0 0 1024 1024" enable-background="new 0 0 1024 1024"><style type="text/css">.st0{fill:#010101;}</style><path class="st0" d="M573.9 1024h-123.8c-24.7 0-45.2-18.5-47.6-43.1l-12.7-76c-23.8-7.4-47-17-69.1-28.7l-63.7 45.5c-7.6 6.3-18.4 10.2-29.4 10.2-12.8 0-24.8-5-33.9-14l-87.5-87.5c-17.5-17.5-18.8-45.1-3.2-64.2l44.8-62.8c-11.7-22.2-21.3-45.3-28.7-69.1l-77.1-12.9c-23.4-2.2-42-22.7-42-47.5v-123.8c0-24.7 18.5-45.2 43.1-47.6l76-12.7c7.4-23.9 17.1-47 28.7-69.1l-45.5-63.7c-15-18.2-13.6-45.8 3.9-63.2l87.5-87.5c16.9-16.8 45.8-18.2 64.1-3.2l62.8 44.8c22-11.6 45.2-21.2 69.1-28.7l12.9-77.2c2.3-23.5 22.8-42 47.5-42h123.8c24.7 0 45.2 18.5 47.6 43l12.7 76.1c23.9 7.4 47 17 69.1 28.7l63.7-45.5c7.6-6.3 18.4-10.1 29.4-10.1 12.8 0 24.8 5 33.8 14l87.5 87.5c17.5 17.4 18.9 45 3.2 64.1l-44.8 62.8c11.6 22.1 21.2 45.2 28.7 69.1l77.2 12.9c23.5 2.3 42 22.8 42 47.5v123.8c0 24.8-18.5 45.2-43.1 47.6l-76 12.7c-7.4 23.9-17 47.1-28.7 69.1l45.5 63.7c15 18.3 13.6 45.9-3.9 63.3l-87.5 87.5c-16.8 16.8-45.8 18.3-64.2 3.2l-62.8-44.8c-22.1 11.7-45.3 21.3-69.1 28.7l-12.8 77.1c-2.3 23.5-22.8 42-47.5 42zm-254.5-184.7c2.8 0 5.7.7 8.3 2.2 25.8 14.5 53.2 25.8 81.6 33.9 6.3 1.8 11 7 12.1 13.5l14.6 87.6c.8 8.2 7 13.7 14.1 13.7h123.8c7.1 0 13.2-5.5 13.9-12.6l14.8-88.7c1.1-6.4 5.8-11.7 12.1-13.5 28.3-8 55.8-19.4 81.6-33.9 5.7-3.2 12.8-2.8 18.1 1l72.3 51.6c7.3 5.9 14.7 4.7 19.7-.3l87.5-87.5c5.1-5.1 5.5-13.2 1-18.8l-52.3-73.1c-3.8-5.3-4.2-12.4-1-18.1 14.4-25.7 25.8-53.1 33.8-81.6 1.8-6.3 7-11 13.5-12.1l87.6-14.6c8.2-.8 13.7-7 13.7-14.1v-123.7c0-7.1-5.5-13.3-12.6-14l-88.7-14.8c-6.5-1.1-11.7-5.8-13.5-12.1-8-28.5-19.4-55.9-33.8-81.6-3.2-5.7-2.8-12.8 1-18.1l51.7-72.3c5.2-6.5 4.8-14.5-.3-19.6l-87.5-87.6c-4.9-4.9-13.4-5.3-18.7-1l-73.2 52.3c-5.3 3.8-12.4 4.2-18.1 1-25.7-14.4-53.1-25.8-81.6-33.9-6.3-1.8-11-7-12.1-13.5l-14.8-87.4c-.9-8.3-6.9-13.7-14.1-13.7h-123.8c-7.3 0-13.2 5.4-14 12.6l-14.7 88.7c-1.1 6.5-5.8 11.7-12.1 13.5-28.5 8.1-55.9 19.4-81.6 33.9-5.8 3.2-12.8 2.8-18.1-1l-72.3-51.7c-7.3-5.8-14.7-4.7-19.7.3l-87.5 87.5c-5.1 5.1-5.5 13.2-.9 18.7l52.3 73.2c3.8 5.3 4.2 12.4 1 18.1-14.4 25.7-25.8 53.1-33.9 81.6-1.8 6.3-7 11-13.5 12.1l-87.6 14.6c-8.3.9-13.7 6.9-13.7 14.1v123.8c0 7.2 5.4 13.2 12.5 13.9l88.7 14.8c6.5 1.1 11.7 5.8 13.5 12.1 8 28.3 19.4 55.8 33.9 81.6 3.2 5.7 2.8 12.8-1 18.1l-51.6 72.3c-5.3 6.5-4.9 14.6.3 19.7l87.5 87.5c5 5 13.4 5.4 18.7 1l73.2-52.3c3-2.2 6.5-3.3 9.9-3.3zm192.6-124.8c-111.7 0-202.6-90.9-202.6-202.6 0-111.7 90.9-202.6 202.6-202.6 111.7 0 202.6 90.9 202.6 202.6 0 111.8-90.9 202.6-202.6 202.6zm0-371.3c-93 0-168.7 75.7-168.7 168.7 0 93 75.7 168.7 168.7 168.7 93 0 168.7-75.7 168.7-168.7 0-93-75.7-168.7-168.7-168.7z"/></svg>