<svg xmlns="http://www.w3.org/2000/svg" viewBox="0 0 1024 1024"><path d="M742.4 460.8H640c-42.342 0-76.8-34.458-76.8-76.8V281.6c0-14.131 11.469-25.6 25.6-25.6s25.6 11.469 25.6 25.6V384c0 14.131 11.469 25.6 25.6 25.6h102.4c14.131 0 25.6 11.469 25.6 25.6s-11.469 25.6-25.6 25.6zm-409.6 0H230.4c-14.131 0-25.6-11.469-25.6-25.6s11.469-25.6 25.6-25.6h102.4c14.131 0 25.6-11.469 25.6-25.6V281.6c0-14.131 11.469-25.6 25.6-25.6s25.6 11.469 25.6 25.6V384c0 42.342-34.458 76.8-76.8 76.8zm256 358.4c-14.131 0-25.6-11.469-25.6-25.6V691.2c0-42.342 34.458-76.8 76.8-76.8h102.4c14.131 0 25.6 11.469 25.6 25.6s-11.469 25.6-25.6 25.6H640c-14.131 0-25.6 11.469-25.6 25.6v102.4c0 14.131-11.469 25.6-25.6 25.6zm-204.8 0c-14.131 0-25.6-11.469-25.6-25.6V691.2c0-14.131-11.469-25.6-25.6-25.6H230.4c-14.131 0-25.6-11.469-25.6-25.6s11.469-25.6 25.6-25.6h102.4c42.342 0 76.8 34.458 76.8 76.8v102.4c0 14.131-11.469 25.6-25.6 25.6z"/></svg>