<svg xmlns="http://www.w3.org/2000/svg" viewBox="0 0 1024 1024"><path d="M901.325 122.675c-44.954-44.954-106.957-69.734-174.541-69.734-79.258 0-158.72 34.048-218.112 93.44l-413.44 413.44C40.294 614.759 7.322 685.619 2.406 759.347c-4.966 75.008 19.558 143.616 69.12 193.178 44.954 44.954 106.957 69.734 174.592 69.734 79.258 0 158.72-34.048 218.112-93.44l413.44-413.44c54.938-54.938 87.91-125.798 92.826-199.526 4.966-75.008-19.558-143.616-69.12-193.126zM486.4 240.998L783.002 537.6 486.4 834.202 189.798 537.6 486.4 240.998zM246.067 971.059c-53.914 0-103.066-19.456-138.342-54.733-81.766-81.766-71.168-225.434 23.654-320.256l22.221-22.221 296.602 296.602-22.221 22.221c-49.818 49.818-116.122 78.438-181.914 78.438zm595.354-491.878L819.2 501.402 522.598 204.8l22.221-22.221c49.818-49.818 116.122-78.438 181.914-78.438 53.914 0 103.066 19.456 138.342 54.733 81.766 81.766 71.168 225.434-23.654 320.256zM512 332.8c0 14.131-11.469 25.6-25.6 25.6s-25.6-11.469-25.6-25.6c0-14.131 11.469-25.6 25.6-25.6s25.6 11.469 25.6 25.6zM409.6 435.2c0 14.131-11.469 25.6-25.6 25.6s-25.6-11.469-25.6-25.6c0-14.131 11.469-25.6 25.6-25.6s25.6 11.469 25.6 25.6zM307.2 537.6c0 14.131-11.469 25.6-25.6 25.6S256 551.731 256 537.6c0-14.131 11.469-25.6 25.6-25.6s25.6 11.469 25.6 25.6zM512 435.2c0 14.131-11.469 25.6-25.6 25.6s-25.6-11.469-25.6-25.6c0-14.131 11.469-25.6 25.6-25.6s25.6 11.469 25.6 25.6zm102.4 0c0 14.131-11.469 25.6-25.6 25.6s-25.6-11.469-25.6-25.6c0-14.131 11.469-25.6 25.6-25.6s25.6 11.469 25.6 25.6zM409.6 537.6c0 14.131-11.469 25.6-25.6 25.6s-25.6-11.469-25.6-25.6c0-14.131 11.469-25.6 25.6-25.6s25.6 11.469 25.6 25.6zm102.4 0c0 14.131-11.469 25.6-25.6 25.6s-25.6-11.469-25.6-25.6c0-14.131 11.469-25.6 25.6-25.6s25.6 11.469 25.6 25.6zm102.4 0c0 14.131-11.469 25.6-25.6 25.6s-25.6-11.469-25.6-25.6c0-14.131 11.469-25.6 25.6-25.6s25.6 11.469 25.6 25.6zm102.4 0c0 14.131-11.469 25.6-25.6 25.6s-25.6-11.469-25.6-25.6c0-14.131 11.469-25.6 25.6-25.6s25.6 11.469 25.6 25.6zM409.6 640c0 14.131-11.469 25.6-25.6 25.6s-25.6-11.469-25.6-25.6c0-14.131 11.469-25.6 25.6-25.6s25.6 11.469 25.6 25.6zm102.4 0c0 14.131-11.469 25.6-25.6 25.6s-25.6-11.469-25.6-25.6c0-14.131 11.469-25.6 25.6-25.6S512 625.869 512 640zm102.4 0c0 14.131-11.469 25.6-25.6 25.6s-25.6-11.469-25.6-25.6c0-14.131 11.469-25.6 25.6-25.6s25.6 11.469 25.6 25.6zM512 742.4c0 14.131-11.469 25.6-25.6 25.6s-25.6-11.469-25.6-25.6c0-14.131 11.469-25.6 25.6-25.6s25.6 11.469 25.6 25.6z"/></svg>