<svg xmlns="http://www.w3.org/2000/svg" viewBox="0 0 1024 1024"><path d="M1016.5 442.7c-10-10-26.2-10-36.2 0l-58.8 58.8c-2.6-105.5-45-204.3-119.9-279.1-77.4-77.4-180.2-120-289.6-120-152.3 0-291.1 83.7-362.3 218.4-6.6 12.5-1.8 28 10.7 34.6s28 1.8 34.6-10.6c62.3-117.9 183.8-191.2 317.1-191.2 194 0 352.5 155 358.2 347.6l-58.5-58.5c-10-10-26.2-10-36.2 0s-10 26.2 0 36.2l102.4 102.4c5 5 11.6 7.5 18.1 7.5 6.6 0 13.1-2.5 18.1-7.5l102.3-102.4c10-10 10-26.2 0-36.2zm-152.9 225.9c-12.5-6.6-28-1.8-34.6 10.7-62.3 117.9-183.8 191.2-317.1 191.2-194 0-352.5-155-358.2-347.6l58.5 58.5c5 5 11.6 7.5 18.1 7.5 6.6 0 13.1-2.5 18.1-7.5 10-10 10-26.2 0-36.2l-102.3-102.5c-10-10-26.2-10-36.2 0l-102.4 102.4c-10 10-10 26.2 0 36.2s26.2 10 36.2 0l58.8-58.8c2.6 105.5 45 204.3 119.9 279.1 77.4 77.4 180.2 120 289.6 120 152.3 0 291.1-83.7 362.3-218.4 6.6-12.5 1.9-28-10.7-34.6z"/></svg>