<svg xmlns="http://www.w3.org/2000/svg" viewBox="0 0 1024 1024"><path d="M1016.525 442.675c-9.984-9.984-26.214-9.984-36.198 0l-58.829 58.829c-2.611-105.472-44.954-204.288-119.859-279.142C724.276 144.999 621.415 102.4 512.001 102.4c-152.269 0-291.123 83.712-362.342 218.419-6.605 12.493-1.843 28.006 10.65 34.611s28.006 1.843 34.611-10.65c62.31-117.914 183.808-191.181 317.082-191.181 193.997 0 352.512 154.982 358.246 347.597l-58.522-58.522c-9.984-9.984-26.214-9.984-36.198 0s-9.984 26.214 0 36.198l102.4 102.4c5.018 5.018 11.571 7.475 18.125 7.475s13.107-2.509 18.125-7.475l102.4-102.4c9.984-9.984 9.984-26.214 0-36.198zM863.693 668.57c-12.493-6.605-28.006-1.843-34.611 10.65C766.772 797.134 645.274 870.401 512 870.401c-193.997 0-352.512-154.982-358.246-347.597l58.522 58.522c5.018 5.018 11.571 7.475 18.125 7.475s13.107-2.509 18.125-7.475c9.984-9.984 9.984-26.214 0-36.198l-102.4-102.4c-9.984-9.984-26.214-9.984-36.198 0l-102.4 102.4c-9.984 9.984-9.984 26.214 0 36.198s26.214 9.984 36.198 0l58.829-58.829c2.611 105.472 44.954 204.288 119.859 279.142 77.363 77.363 180.224 119.962 289.638 119.962 152.269 0 291.123-83.712 362.342-218.419 6.605-12.493 1.843-28.006-10.65-34.611z"/></svg>