<svg xmlns="http://www.w3.org/2000/svg" viewBox="0 0 1024 1024"><path d="M512 1024c-82.637 0-159.642-33.536-216.883-94.464-58.01-61.747-89.958-146.381-89.958-238.336 0-150.682 66.97-258.509 137.882-372.634 54.784-88.218 111.462-179.405 144.23-299.674C490.292 7.73 500.429.05 511.949.05s21.658 7.731 24.678 18.842c32.819 120.32 89.549 211.558 144.435 299.776C752.076 432.793 819.148 540.62 819.148 691.25c0 92.109-31.744 176.742-89.395 238.285-57.088 60.928-134.451 94.515-217.805 94.515zm0-915.814c-34.509 90.931-80.589 165.12-125.44 237.363C316.723 457.984 256.358 555.111 256.358 691.2c0 160.563 109.926 281.6 255.642 281.6 145.92 0 256-121.037 256-281.6 0-136.038-60.416-233.114-130.355-345.549C592.691 273.408 546.509 199.168 512 108.185zm0 762.214c-39.782 0-77.056-16.333-104.909-46.029-31.13-33.178-48.282-80.435-48.282-133.171 0-14.131 11.469-25.6 25.6-25.6s25.6 11.469 25.6 25.6c0 39.629 12.237 74.496 34.406 98.099 18.125 19.302 42.138 29.901 67.635 29.901 7.219 0 14.336-.768 21.146-2.304 13.773-3.123 27.494 5.53 30.618 19.302s-5.53 27.494-19.302 30.618a148.42 148.42 0 0 1-32.461 3.584z"/></svg>