<svg xmlns="http://www.w3.org/2000/svg" viewBox="0 0 1024 1024" enable-background="new 0 0 1024 1024"><path d="M512 1024c-136.8 0-265.3-53.2-362.1-149.9s-149.9-225.3-149.9-362c0-136.8 53.2-265.4 149.9-362.1 96.7-96.8 225.3-150 362.1-150s265.3 53.2 362.1 150c96.7 96.7 149.9 225.3 149.9 362.1s-53.2 265.3-149.9 362c-96.7 96.7-225.3 149.9-362.1 149.9m0-970.1c-252.6 0-458.1 205.5-458.1 458.1 0 252.6 205.5 458.1 458.1 458.1s458.1-205.5 458.1-458.1c0-252.6-205.5-458.1-458.1-458.1m-107.8 673.7c-7.1 0-14-2.8-19.1-7.9l-161.7-161.7c-10.5-10.5-10.5-27.6 0-38.1s27.6-10.5 38.1 0l142.6 142.6 358.2-358.2c10.5-10.5 27.6-10.5 38.1 0s10.5 27.6 0 38.1l-377.2 377.3c-5.3 5.3-12.2 7.9-19.1 7.9h.1z"/></svg>