<svg xmlns="http://www.w3.org/2000/svg" viewBox="0 0 1024 1024"><path d="M793.6 102.4H614.4V76.8c0-42.342-34.458-76.8-76.8-76.8H435.2c-42.342 0-76.8 34.458-76.8 76.8v25.6H179.2c-42.342 0-76.8 34.458-76.8 76.8v51.2c0 33.382 21.402 61.85 51.2 72.397V947.2c0 42.342 34.458 76.8 76.8 76.8h512c42.342 0 76.8-34.458 76.8-76.8V302.797c29.798-10.547 51.2-39.014 51.2-72.397v-51.2c0-42.342-34.458-76.8-76.8-76.8zm-384-25.6c0-14.131 11.469-25.6 25.6-25.6h102.4c14.131 0 25.6 11.469 25.6 25.6v25.6H409.6V76.8zm332.8 896h-512c-14.131 0-25.6-11.469-25.6-25.6v-640H768v640c0 14.131-11.469 25.6-25.6 25.6zm76.8-742.4c0 14.131-11.469 25.6-25.6 25.6H179.2c-14.131 0-25.6-11.469-25.6-25.6v-51.2c0-14.131 11.469-25.6 25.6-25.6h614.4c14.131 0 25.6 11.469 25.6 25.6v51.2zM640 358.4c-14.131 0-25.6 11.469-25.6 25.6v512c0 14.131 11.469 25.6 25.6 25.6s25.6-11.469 25.6-25.6V384c0-14.131-11.469-25.6-25.6-25.6zm-153.6 0c-14.131 0-25.6 11.469-25.6 25.6v512c0 14.131 11.469 25.6 25.6 25.6S512 910.131 512 896V384c0-14.131-11.469-25.6-25.6-25.6zm-153.6 0c-14.131 0-25.6 11.469-25.6 25.6v512c0 14.131 11.469 25.6 25.6 25.6s25.6-11.469 25.6-25.6V384c0-14.131-11.469-25.6-25.6-25.6z"/></svg>