<svg xmlns="http://www.w3.org/2000/svg" viewBox="0 0 1024 1024"><path d="M940.083 122.419l-45.619-68.403C873.933 23.245 830.566 0 793.549 0h-614.4C142.131 0 98.765 23.194 78.234 54.016l-45.619 68.403C14.285 149.913-.102 197.376-.102 230.4v716.8c0 42.342 34.458 76.8 76.8 76.8h819.2c42.342 0 76.8-34.458 76.8-76.8V230.4c0-33.075-14.387-80.486-32.717-107.981zm-819.2-40.038C131.789 66.048 159.539 51.2 179.2 51.2h614.4c19.61 0 47.411 14.848 58.317 31.181l45.619 68.403a140.4 140.4 0 0 1 1.843 2.867c-1.126-.051-2.202-.102-3.328-.102h-819.2c-1.126 0-2.202.051-3.328.102.614-.973 1.229-1.946 1.843-2.867l45.619-68.403zM921.6 947.2c0 14.131-11.469 25.6-25.6 25.6H76.8c-14.131 0-25.6-11.469-25.6-25.6V230.4c0-14.131 11.469-25.6 25.6-25.6H896c14.131 0 25.6 11.469 25.6 25.6v716.8zm-76.8-384c14.131 0 25.6-11.469 25.6-25.6V384c0-14.131-11.469-25.6-25.6-25.6h-25.6v-25.6c0-42.342-34.458-76.8-76.8-76.8H179.2c-42.342 0-76.8 34.458-76.8 76.8v512c0 42.342 34.458 76.8 76.8 76.8h563.2c42.342 0 76.8-34.458 76.8-76.8v-25.6h25.6c14.131 0 25.6-11.469 25.6-25.6V640c0-14.131-11.469-25.6-25.6-25.6h-25.6v-51.2h25.6zM819.2 512H768V409.6h51.2V512zm0 256H768V665.6h51.2V768zM768 614.4h-25.6c-14.131 0-25.6 11.469-25.6 25.6v153.6c0 14.131 11.469 25.6 25.6 25.6H768v25.6c0 14.131-11.469 25.6-25.6 25.6H179.2c-14.131 0-25.6-11.469-25.6-25.6v-512c0-14.131 11.469-25.6 25.6-25.6h563.2c14.131 0 25.6 11.469 25.6 25.6v25.6h-25.6c-14.131 0-25.6 11.469-25.6 25.6v153.6c0 14.131 11.469 25.6 25.6 25.6H768v51.2zm-332.8 51.2c-42.342 0-76.8-34.458-76.8-76.8 0-10.547 3.021-29.747 29.03-74.65 13.158-22.682 26.112-41.523 26.675-42.291 4.762-6.912 12.646-11.059 21.043-11.059s16.282 4.147 21.043 11.059c.563.768 13.517 19.61 26.675 42.291 26.061 44.902 29.03 64.102 29.03 74.65 0 42.342-34.458 76.8-76.8 76.8zm0-131.738c-14.746 24.832-25.395 47.155-25.6 54.989 0 14.08 11.469 25.549 25.6 25.549s25.6-11.469 25.6-25.6c-.205-7.834-10.854-30.106-25.6-54.938zm0-175.462c-127.027 0-230.4 103.373-230.4 230.4s103.373 230.4 230.4 230.4 230.4-103.373 230.4-230.4-103.373-230.4-230.4-230.4zm143.462 337.664l-22.989-22.989c-9.984-9.984-26.214-9.984-36.198 0s-9.984 26.214 0 36.198l22.989 22.989c-23.45 17.562-51.354 29.542-81.664 33.894v-23.757c0-14.131-11.469-25.6-25.6-25.6s-25.6 11.469-25.6 25.6v23.757c-30.31-4.352-58.214-16.333-81.664-33.894l22.989-22.989c9.984-9.984 9.984-26.214 0-36.198s-26.214-9.984-36.198 0l-22.989 22.989c-17.562-23.45-29.542-51.354-33.894-81.664h23.757c14.131 0 25.6-11.469 25.6-25.6s-11.469-25.6-25.6-25.6h-23.757c4.352-30.31 16.333-58.214 33.894-81.664l22.989 22.989c5.018 5.018 11.571 7.475 18.125 7.475s13.107-2.509 18.125-7.475c9.984-9.984 9.984-26.214 0-36.198l-22.989-22.989c23.45-17.562 51.354-29.542 81.664-33.894v23.757c0 14.131 11.469 25.6 25.6 25.6s25.6-11.469 25.6-25.6v-23.757c30.31 4.352 58.214 16.333 81.664 33.894l-22.989 22.989c-9.984 9.984-9.984 26.214 0 36.198 5.018 5.018 11.571 7.475 18.125 7.475s13.107-2.509 18.125-7.475l22.989-22.989c17.562 23.45 29.542 51.354 33.894 81.664h-23.757c-14.131 0-25.6 11.469-25.6 25.6s11.469 25.6 25.6 25.6h23.757c-4.352 30.31-16.333 58.214-33.894 81.664z"/></svg>