<svg xmlns="http://www.w3.org/2000/svg" viewBox="0 0 1024 1024" enable-background="new 0 0 1024 1024"><style type="text/css">.st0{fill:#010101;}</style><path id="XMLID_9_" class="st0" d="M988.1 158.7c-47.4 0-131.6-10.2-262.9-58.5-81.5-30.1-163.1-68.7-207.9-98.6-1.5-1-3.4-1.6-5.3-1.6s-3.7.5-5.3 1.6c-44.7 29.9-126.4 68.5-207.9 98.6-131.4 48.4-215.5 58.5-262.9 58.5-5.3 0-9.4 4.3-9.4 9.4 0 266.9 97.9 466.6 180.1 587.2 89.7 131.6 208.4 236.9 302.4 268.2 1 .3 2 .5 2.9.5 1 0 2-.2 3-.5 94.1-31.3 212.7-136.5 302.5-268.1 82.2-120.6 180.1-320.4 180.1-587.2.1-5.2-4.1-9.5-9.4-9.5zm-200.4 576.6c-93.5 137.2-204 223.7-275.7 251.2-71.7-27.5-182.2-114.1-275.7-251.2-76.7-112.5-167.7-296.5-173.7-541.5 86.2-5.4 182.1-35.1 250.2-60.3 75-27.7 150.7-63.1 199.1-92.7 48.4 29.6 124.1 64.8 199.1 92.7 68.2 25.3 164.1 54.9 250.2 60.3-5.9 245-96.9 428.9-173.5 541.5z"/><path id="XMLID_6_" class="st0" d="M425.9 214.4c-51 50.1-51.7 132.2-1.6 183.2 19.5 19.8 43.8 32 69.2 36.7l-3.5 394.4c-.1 7.1 5.7 13 12.8 13.1 3.6 0 6.8-1.4 9.1-3.8s3.9-5.6 3.9-9.1l.4-42 60.2.5c3.6 0 6.8-1.4 9.1-3.8s3.9-5.6 3.9-9.1c.1-7.1-5.7-13-12.8-13.1l-60.2-.5.2-29.1 60.2.5c3.6 0 6.8-1.4 9.1-3.8s3.9-5.6 3.9-9.1c.1-7.1-5.7-13-12.8-13.1l-60.2-.5 2.3-269.7c31.9-.6 63.6-13 88.1-37.1 51-50.1 51.7-132.2 1.6-183.2-50-51-131.8-51.6-182.9-1.4zm194.5 93.2c-.2 27.7-11.3 53.6-31 73s-45.8 30-73.6 29.7c-27.7-.2-53.6-11.3-73-31s-30-45.8-29.7-73.6c.2-27.7 11.3-53.6 31-73s45.8-30 73.6-29.7c27.7.2 53.6 11.3 73 31 19.3 19.9 29.9 46 29.7 73.6z"/></svg>