<?xml version="1.0" encoding="UTF-8"?>
<svg width="1024px" height="1024px" viewBox="0 0 1024 1024" version="1.1" xmlns="http://www.w3.org/2000/svg" xmlns:xlink="http://www.w3.org/1999/xlink">
    <!-- Generator: Sketch 48.1 (47250) - http://www.bohemiancoding.com/sketch -->
    <title>Artboard</title>
    <desc>Created with Sketch.</desc>
    <defs></defs>
    <g id="Page-1" stroke="none" stroke-width="1" fill="none" fill-rule="evenodd">
        <g id="Artboard" fill="#000000">
            <path d="M942.964029,378.143885 C965.415666,378.143885 984.534351,386.03692 1000.32066,401.823227 C1016.10696,417.609534 1024,436.377418 1024,458.127441 L1024,889.617677 C1024,912.069314 1016.10696,931.187999 1000.32066,946.974306 C984.534351,962.760613 965.415666,970.653649 942.964029,970.653649 L81.0359712,970.653649 C58.5843345,970.653649 39.4656493,962.760613 23.6793422,946.974306 C7.89303515,931.187999 0,912.069314 0,889.617677 L0,297.107914 C0,264.132072 10.3486461,235.366344 31.0462487,210.809866 C51.7438513,186.253389 77.1769646,170.81812 107.346351,164.503597 L107.346351,108.725591 C107.346351,101.007841 105.124988,82.3830798 116,68 C126.875012,53.6169202 143.479239,54 150.495375,54 L657.759507,54 C664.775643,54 682.124988,53.6169202 693,68 C703.875012,82.3830798 700.90853,101.007841 700.90853,108.725591 L700.90853,162.398767 L835.617677,162.398767 C857.3677,162.398767 876.135584,170.291802 891.921891,186.078109 C907.708198,201.864416 915.601233,220.983101 915.601233,243.434738 L915.601233,378.143885 L942.964029,378.143885 Z M162.071942,108.725591 L162.071942,269.745118 L646.182939,269.745118 L646.182939,108.725591 L162.071942,108.725591 Z M107.346351,220.281603 C91.9108512,225.894512 79.1065942,235.716956 68.9331963,249.749229 C58.7597984,263.781502 53.6731757,279.567572 53.6731757,297.107914 C53.6731757,319.55955 61.5662109,338.678236 77.352518,354.464543 C93.1388251,370.25085 112.25751,378.143885 134.709147,378.143885 L861.928058,378.143885 L861.928058,243.434738 C861.928058,235.716988 859.297046,229.227159 854.034943,223.965057 C848.772841,218.702954 842.633814,216.071942 835.617677,216.071942 L700.90853,216.071942 L700.90853,269.745118 L780.892086,269.745118 C788.609836,269.745118 795.099665,272.37613 800.361768,277.638232 C805.62387,282.900335 808.254882,289.390164 808.254882,297.107914 C808.254882,304.12405 805.62387,310.263077 800.361768,315.52518 C795.099665,320.787282 788.609836,323.418294 780.892086,323.418294 L134.709147,323.418294 C126.991397,323.418294 120.501568,320.787282 115.239466,315.52518 C109.977363,310.263077 107.346351,304.12405 107.346351,297.107914 L107.346351,220.281603 Z M970.326824,889.617677 L970.326824,458.127441 C970.326824,451.111304 967.695813,444.972277 962.43371,439.710175 C957.171608,434.448072 950.681779,431.817061 942.964029,431.817061 L134.709147,431.817061 C119.273647,431.817061 104.715382,429.36145 91.0339157,424.450154 C77.3524496,419.538859 64.8989941,412.873629 53.6731757,404.454265 L53.6731757,889.617677 C53.6731757,897.335427 56.3041875,903.825256 61.5662898,909.087359 C66.8283922,914.349461 73.3182211,916.980473 81.0359712,916.980473 L942.964029,916.980473 C950.681779,916.980473 957.171608,914.349461 962.43371,909.087359 C967.695813,903.825256 970.326824,897.335427 970.326824,889.617677 Z M889.290853,862.254882 L673.545735,862.254882 C665.827985,862.254882 659.338156,859.62387 654.076053,854.361768 C648.813951,849.099665 646.182939,842.960638 646.182939,835.944502 C646.182939,828.226751 648.813951,821.736923 654.076053,816.47482 C659.338156,811.212718 665.827985,808.581706 673.545735,808.581706 L889.290853,808.581706 C896.30699,808.581706 902.446017,811.212718 907.708119,816.47482 C912.970222,821.736923 915.601233,828.226751 915.601233,835.944502 C915.601233,842.960638 912.970222,849.099665 907.708119,854.361768 C902.446017,859.62387 896.30699,862.254882 889.290853,862.254882 Z" id="💰"></path>
        </g>
    </g>
</svg>