<?xml version="1.0" encoding="utf-8"?>
<!-- Generator: Adobe Illustrator 16.0.0, SVG Export Plug-In . SVG Version: 6.00 Build 0)  -->
<!DOCTYPE svg PUBLIC "-//W3C//DTD SVG 1.0//EN" "http://www.w3.org/TR/2001/REC-SVG-20010904/DTD/svg10.dtd">
<svg version="1.0" id="Layer_1" xmlns="http://www.w3.org/2000/svg" xmlns:xlink="http://www.w3.org/1999/xlink" x="0px" y="0px"
	 width="1024px" height="1024px" viewBox="0 0 1024 1024" enable-background="new 0 0 1024 1024" xml:space="preserve">
<path id="XMLID_9_" fill="#020202" d="M1005.198,851.438L600.864,68.282C578.199,24.293,546.01,0,510.511,0
	c-35.5,0-67.689,24.183-90.354,68.282L15.822,851.438C-6.44,894.658-8.946,938.213,9.005,971.695
	c17.949,33.485,54.25,52.305,99.678,52.305h803.856c45.427,0,81.729-18.819,99.679-52.305
	C1030.068,938.213,1027.562,894.551,1005.198,851.438L1005.198,851.438z M963.382,942.15c-7.521,14.117-26.074,23.309-50.945,23.309
	H108.583c-24.869,0-43.422-9.303-50.942-23.309c-7.522-14.116-4.914-36.328,7.319-59.855L469.294,98.811
	c12.135-23.417,27.077-36.986,41.117-36.986c14.038,0,29.081,13.351,41.114,36.768L955.86,882.295
	C968.194,905.93,970.901,928.034,963.382,942.15z"/>
<path id="XMLID_2_" fill="#020202" d="M456.96,409.143l13.839,234.826h79.422l15.242-231.766l0.101-75.282H456.96V409.143z"/>
<path id="XMLID_1_" fill="#020202" d="M470.296,746.278h80.426v102.312h-80.426V746.278z"/>
</svg>
