<svg xmlns="http://www.w3.org/2000/svg" viewBox="0 0 1024 1024" enable-background="new 0 0 1024 1024"><style type="text/css">.st0{fill:#010101;}</style><path id="XMLID_9_" class="st0" d="M1005.3 822.2l-403.2-715.7c-22.6-40.2-54.7-62.4-90.1-62.4s-67.5 22.1-90.1 62.4l-403.2 715.7c-22.2 39.5-24.7 79.3-6.8 109.9s54.1 47.8 99.4 47.8h801.6c45.3 0 81.5-17.2 99.4-47.8 17.8-30.6 15.3-70.5-7-109.9zm-41.7 82.9c-7.5 12.9-26 21.3-50.8 21.3h-801.6c-24.8 0-43.3-8.5-50.8-21.3-7.5-12.9-4.9-33.2 7.3-54.7l403.2-716c12.1-21.4 27-33.8 41-33.8s29 12.2 41 33.6l403.2 716.2c12.3 21.6 15 41.8 7.5 54.7z"/><path id="XMLID_2_" class="st0" d="M458.6 418l13.8 214.6h79.2l15.2-211.8.1-68.8h-108.3z"/><path id="XMLID_1_" class="st0" d="M471.9 726.1h80.2v93.5h-80.2z"/></svg>