<svg xmlns="http://www.w3.org/2000/svg" viewBox="0 0 1024 1024" enable-background="new 0 0 1024 1024"><path d="M979.2 44.6c-28.8-28.8-67.1-44.6-107.8-44.6s-79 15.8-107.8 44.6l-499.8 499.8c-2.6 2.7-4.7 5.9-5.9 9.4l-102.5 282c-3.4 9.4-1.1 19.8 5.9 26.9 4.9 4.9 11.4 7.5 18.1 7.5 2.9 0 5.9-.5 8.8-1.5l281.9-102.5c3.5-1.3 6.7-3.3 9.4-5.9l499.8-499.8c28.8-28.8 44.6-67.1 44.6-107.9 0-40.8-15.8-79-44.6-107.9h-.1zm-531.9 675.3l-225 81.8 81.8-225 413.6-413.6 143.2 143.2-413.6 413.6zm495.8-495.8l-46 45.9-143.2-143.2 46-45.9c19.1-19.1 44.5-29.6 71.6-29.6s52.4 10.5 71.6 29.6c19.1 19.1 29.6 44.5 29.6 71.6 0 27-10.5 52.4-29.6 71.6zm-46 799.8h-820.2c-42.4 0-76.9-34.5-76.9-76.9v-820.1c0-42.4 34.5-76.9 76.9-76.9h512.6c14.1 0 25.6 11.5 25.6 25.6 0 14.1-11.5 25.6-25.6 25.6h-512.6c-14.1 0-25.6 11.5-25.6 25.6v820.2c0 14.1 11.5 25.6 25.6 25.6h820.2c14.1 0 25.6-11.5 25.6-25.6v-512.6c0-14.1 11.5-25.6 25.6-25.6 14.1 0 25.6 11.5 25.6 25.6v512.6c.1 42.4-34.4 76.9-76.8 76.9"/></svg>