<?xml version="1.0" encoding="UTF-8"?>
<svg width="64px" height="64px" viewBox="0 0 64 64" version="1.1" xmlns="http://www.w3.org/2000/svg" xmlns:xlink="http://www.w3.org/1999/xlink">
    <!-- Generator: Sketch 48.1 (47250) - http://www.bohemiancoding.com/sketch -->
    <title>2fa</title>
    <desc>Created with Sketch.</desc>
    <defs></defs>
    <g id="Page-1" stroke="none" stroke-width="1" fill="none" fill-rule="evenodd">
        <g id="2fa" fill="#000000" fill-rule="nonzero">
            <g id="fingerprint" transform="translate(11.000000, 0.000000)">
                <path d="M16,30 C14.9,30 14,30.9 14,32 L14,43 C14,46.9 17.1,50 21,50 C24.9,50 28,46.9 28,43 L28,40 C28,38.9 27.1,38 26,38 C24.9,38 24,38.9 24,40 L24,43 C24,44.7 22.7,46 21,46 C19.3,46 18,44.6 18,43 L18,32 C18,30.9 17.1,30 16,30 Z M28,21 C28,17.1 24.9,14 21,14 C17.1,14 14,17.1 14,21 L14,24 C14,25.1 14.9,26 16,26 C17.1,26 18,25.1 18,24 L18,21 C18,19.3 19.3,18 21,18 C22.7,18 24,19.4 24,21 L24,32 C24,33.1 24.9,34 26,34 C27.1,34 28,33.1 28,32 L28,21 Z M18,60 C10,58.5 4,51.6 4,43.2 L4,28 C4,26.9 3.1,26 2,26 C0.9,26 0,26.9 0,28 L0,43.2 C0,53.6 7.5,62.2 17.4,63.9 C17.6,64 17.8,64 18,64 C19.1,64 20,63.1 20,62 C20,60.9 19.1,60 18,60 Z M40,36 C38.9,36 38,36.9 38,38 L38,43.2 C38,51.6 32,58.5 24,59.9 L24,60 C22.9,60 22,60.9 22,62 C22,63.1 22.9,64 24,64 C24.2,64 24.4,64 24.6,63.9 C34.5,62.2 42,53.6 42,43.2 L42,38 C42,36.9 41.1,36 40,36 Z M21,0 C9.9,0 0.8,8.6 0,19.6 L0,20 C0,21.1 0.9,22 2,22 C3.1,22 4,21.1 4,20.1 C4.5,11.1 11.9,4 21,4 C30.4,4 38,11.6 38,21 L38,31.1 C38.1,32.2 38.9,33 40,33 C41.1,33 41.9,32.2 42,31.1 L42,21 C42,9.4 32.6,0 21,0 Z M35,43 L35,31 C35,29.9 34.1,29 33,29 C31.9,29 31,29.9 31,31 L31,43 C31,48.5 26.5,53 21,53 C15.8,53 11.6,49.1 11,44 C11,42.9 10.1,42 9,42 C7.9,42 7,42.9 7,44 C7,44.2 7,44.4 7.1,44.6 C7.9,51.6 13.8,57 21,57 C28.7,57 35,50.7 35,43 Z M33,25 C34.1,25 35,24.1 35,23 L35,21 C35,13.3 28.7,7 21,7 C13.3,7 7,13.3 7,21 L7,36 C7,37.1 7.9,38 9,38 C10.1,38 11,37.1 11,36 L11,21 C11,15.5 15.5,11 21,11 C26.5,11 31,15.5 31,21 L31,23 C31,24.1 31.9,25 33,25 Z" id="Shape"></path>
            </g>
        </g>
    </g>
</svg>