<?xml version="1.0" encoding="UTF-8"?>
<svg width="64px" height="64px" viewBox="0 0 64 64" version="1.1" xmlns="http://www.w3.org/2000/svg" xmlns:xlink="http://www.w3.org/1999/xlink">
    <!-- Generator: Sketch 48.1 (47250) - http://www.bohemiancoding.com/sketch -->
    <title>Advanced</title>
    <desc>Created with Sketch.</desc>
    <defs></defs>
    <g id="Page-1" stroke="none" stroke-width="1" fill="none" fill-rule="evenodd">
        <g id="Advanced" fill="#000000" fill-rule="nonzero">
            <g id="cogs-f">
                <path d="M63.3,14.7 C61.5,15 59.6,13.9 58.9,12.2 C58.2,10.4 58.8,8.4 60.3,7.3 C59.4,6 58.2,4.8 56.9,3.8 C55.8,5.3 53.8,5.9 52,5.1 C50.2,4.3 49.2,2.5 49.5,0.7 C47.9,0.4 46.2,0.4 44.6,0.7 C45,2.5 44,4.3 42.2,5.1 C40.4,5.8 38.4,5.2 37.3,3.7 C36,4.6 34.8,5.8 33.8,7.1 C35.3,8.2 35.9,10.2 35.1,12 C34.3,13.8 32.5,14.8 30.7,14.5 C30.4,16.1 30.4,17.8 30.7,19.4 C32.5,19.1 34.4,20.2 35.1,21.9 C35.8,23.7 35.2,25.7 33.7,26.8 C34.6,28.1 35.8,29.3 37.1,30.3 C38.2,28.8 40.2,28.2 42,29 C43.8,29.8 44.8,31.6 44.5,33.4 C46.1,33.7 47.8,33.7 49.4,33.4 C49.1,31.6 50.2,29.7 51.9,29 C53.7,28.3 55.7,28.9 56.8,30.4 C58.1,29.5 59.3,28.3 60.3,27 C58.8,25.9 58.2,23.9 59,22.1 C59.8,20.3 61.6,19.3 63.4,19.6 C63.5,17.9 63.6,16.3 63.3,14.7 Z M52.7,19.4 C51.4,22.5 47.7,24 44.6,22.7 C41.5,21.4 40,17.7 41.3,14.6 C42.6,11.5 46.3,10 49.4,11.3 C52.5,12.6 54,16.3 52.7,19.4 Z M40,39 C39.5,37 38.7,35.1 37.7,33.4 C35.7,34.6 33.1,34.3 31.4,32.6 C29.7,30.9 29.4,28.3 30.6,26.3 C28.9,25.3 27,24.5 25,24 C24.4,26.2 22.4,27.9 20,27.9 C17.6,27.9 15.6,26.2 15,24 C13,24.5 11.1,25.3 9.4,26.3 C10.6,28.3 10.3,30.9 8.6,32.6 C6.9,34.3 4.3,34.6 2.3,33.4 C1.3,35.1 0.5,37 0,39 C2.2,39.6 3.9,41.6 3.9,44 C3.9,46.4 2.2,48.4 0,49 C0.5,51 1.3,52.9 2.3,54.6 C4.3,53.4 6.9,53.7 8.6,55.4 C10.3,57.1 10.6,59.7 9.4,61.7 C11.1,62.7 13,63.5 15,64 C15.6,61.8 17.6,60.1 20,60.1 C22.4,60.1 24.4,61.8 25,64 C27,63.5 28.9,62.7 30.6,61.7 C29.4,59.7 29.7,57.1 31.4,55.4 C33.1,53.7 35.7,53.4 37.7,54.6 C38.7,52.9 39.5,51 40,49 C37.8,48.4 36.1,46.4 36.1,44 C36.1,41.6 37.8,39.6 40,39 Z M20,51.7 C15.7,51.7 12.3,48.2 12.3,44 C12.3,39.8 15.8,36.3 20,36.3 C24.2,36.3 27.7,39.8 27.7,44 C27.7,48.2 24.3,51.7 20,51.7 Z" id="Shape"></path>
            </g>
        </g>
    </g>
</svg>