<svg xmlns="http://www.w3.org/2000/svg" viewBox="0 0 64 64" enable-background="new 0 0 64 64"><title>camera</title><desc>Created with Sketch.</desc><path d="M32 47.5c-6.4 0-11.5-5.1-11.5-11.5s5.1-11.5 11.5-11.5 11.5 5.1 11.5 11.5-5.1 11.5-11.5 11.5zm0-3c4.7 0 8.5-3.8 8.5-8.5s-3.8-8.5-8.5-8.5-8.5 3.8-8.5 8.5 3.8 8.5 8.5 8.5zM11 18c-4.7 0-8 3-8 7v22c0 4.4 3.6 8 8 8h42c4.4 0 8-3.6 8-8v-22c0-4-3.3-7-8-7h-7.4l-.9-1.1-5-6c-.9-1.1-2.5-1.9-3.7-1.9h-8c-1.2 0-2.8.8-3.7 1.9l-.7.8-3 3.6-1 1.2-.4.4-.9 1.1h-7.3zm0-3h6s2.6-3.2 5-6c1.4-1.7 3.8-3 6-3h8c2.2 0 4.6 1.3 6 3l5 6h6c6.1 0 11 4.1 11 10v22c0 5.9-4.9 11-11 11h-42c-6.1 0-11-5.1-11-11v-22c0-5.9 4.9-10 11-10z"/></svg>