<?xml version="1.0" encoding="UTF-8"?>
<svg width="64px" height="64px" viewBox="0 0 64 64" version="1.1" xmlns="http://www.w3.org/2000/svg" xmlns:xlink="http://www.w3.org/1999/xlink">
    <!-- Generator: Sketch 48.1 (47250) - http://www.bohemiancoding.com/sketch -->
    <title>Receive</title>
    <desc>Created with Sketch.</desc>
    <defs></defs>
    <g id="Page-1" stroke="none" stroke-width="1" fill="none" fill-rule="evenodd">
        <g id="Receive" fill="#000000" fill-rule="nonzero">
            <g id="camera" transform="translate(0.000000, 7.000000)">
                <path d="M47.8,10.7 L47.8,8.2 C47.8,5.9 45.8,4 43.4,4 L20.7,4 C18.3,4 16.3,5.9 16.3,8.2 L16.3,10.7 L9.3,10.7 C6.4,10.7 4.1,13 4.1,15.7 L4.1,41 C4.1,43.8 6.4,46 9.3,46 L54.8,46 C57.7,46 60,43.7 60,41 L60,15.8 C60,13 57.7,10.8 54.8,10.8 L47.8,10.8 L47.8,10.7 Z M55.1,6.9 C60,6.9 64,10.8 64,15.5 L64,41.4 C64,46.2 60,50 55.1,50 L8.9,50 C4,50 0,46.1 0,41.4 L0,15.5 C0,10.7 4,6.9 8.9,6.9 L12.5,6.9 C12.9,3 16.3,0 20.4,0 L43.5,0 C47.6,0 51,3 51.5,6.9 L55.1,6.9 Z" id="Combined-Shape"></path>
                <path d="M32,39 C38.6,39 44,33.6 44,27 C44,20.4 38.6,15 32,15 C25.4,15 20,20.4 20,27 C20,33.6 25.4,39 32,39 Z M32,43 C23.2,43 16,35.8 16,27 C16,18.2 23.2,11 32,11 C40.8,11 48,18.2 48,27 C48,35.8 40.8,43 32,43 Z" id="Oval-40"></path>
                <circle id="Oval-41" cx="53" cy="18" r="3"></circle>
            </g>
        </g>
    </g>
</svg>