<?xml version="1.0" encoding="UTF-8"?>
<svg width="64px" height="64px" viewBox="0 0 64 64" version="1.1" xmlns="http://www.w3.org/2000/svg" xmlns:xlink="http://www.w3.org/1999/xlink">
    <!-- Generator: Sketch 48.1 (47250) - http://www.bohemiancoding.com/sketch -->
    <title>chevron-down</title>
    <desc>Created with Sketch.</desc>
    <defs></defs>
    <g id="Page-1" stroke="none" stroke-width="1" fill="none" fill-rule="evenodd">
        <g id="chevron-down" fill="#000000" fill-rule="nonzero">
            <g id="angle-down" transform="translate(1.000000, 15.000000)">
                <path d="M60.3,0.9 C59.1,-0.3 57.2,-0.3 56.1,0.9 L30.6,26.3 L5.1,0.9 C3.9,-0.3 2,-0.3 0.9,0.9 C-0.3,2.1 -0.3,4 0.9,5.1 L28.5,32.7 C29.7,33.9 31.6,33.9 32.7,32.7 L60.3,5.1 C61.5,4 61.5,2.1 60.3,0.9 Z" id="Shape"></path>
            </g>
            <g id="angle-down" transform="translate(1.000000, 15.000000)">
                <path d="M60.3,0.9 C59.1,-0.3 57.2,-0.3 56.1,0.9 L30.6,26.3 L5.1,0.9 C3.9,-0.3 2,-0.3 0.9,0.9 C-0.3,2.1 -0.3,4 0.9,5.1 L28.5,32.7 C29.7,33.9 31.6,33.9 32.7,32.7 L60.3,5.1 C61.5,4 61.5,2.1 60.3,0.9 Z" id="Shape"></path>
            </g>
        </g>
    </g>
</svg>