<?xml version="1.0" encoding="UTF-8"?>
<svg width="64px" height="64px" viewBox="0 0 64 64" version="1.1" xmlns="http://www.w3.org/2000/svg" xmlns:xlink="http://www.w3.org/1999/xlink">
    <!-- Generator: Sketch 48.1 (47250) - http://www.bohemiancoding.com/sketch -->
    <title>Currency</title>
    <desc>Created with Sketch.</desc>
    <defs></defs>
    <g id="Page-1" stroke="none" stroke-width="1" fill="none" fill-rule="evenodd">
        <g id="Currency" fill="#000000" fill-rule="nonzero">
            <g id="Group-3" transform="translate(0.000000, 6.000000)">
                <g id="Group">
                    <path d="M0.0360850102,7 C0.602129704,3.09098409 7.75693303,0 16.5,0 C25.243067,0 32.3978703,3.09098409 32.963915,7 L33,7 L33,47 L30,47 L30,11.8132897 C27.0138978,13.7407521 22.0804733,15 16.5,15 C10.9195267,15 5.98610223,13.7407521 3,11.8132897 L3,47 L0,47 L0,7 L0.0360850102,7 Z M16.5,12 C20.5284246,12 24.2652328,11.2815743 26.9258531,10.0722014 C29.0459426,9.10852437 30,8.08323116 30,7.5 C30,6.91676884 29.0459426,5.89147563 26.9258531,4.92779857 C24.2652328,3.71842573 20.5284246,3 16.5,3 C12.4715754,3 8.7347672,3.71842573 6.07414694,4.92779857 C3.95405741,5.89147563 3,6.91676884 3,7.5 C3,8.08323116 3.95405741,9.10852437 6.07414694,10.0722014 C8.7347672,11.2815743 12.4715754,12 16.5,12 Z" id="Combined-Shape"></path>
                    <path d="M3.17437542,44 C3.05709083,44.1882044 3,44.3573287 3,44.5 C3,45.0832312 3.95405741,46.1085244 6.07414694,47.0722014 C8.7347672,48.2815743 12.4715754,49 16.5,49 C20.5284246,49 24.2652328,48.2815743 26.9258531,47.0722014 C29.0459426,46.1085244 30,45.0832312 30,44.5 C30,44.3573287 29.9429092,44.1882044 29.8256246,44 L32.963915,44 C32.9878457,44.1652618 33,44.3319857 33,44.5 C33,48.6421356 25.6126984,52 16.5,52 C7.38730163,52 0,48.6421356 0,44.5 C0,44.3319857 0.0121542893,44.1652618 0.0360850102,44 L3.17437542,44 Z" id="Combined-Shape"></path>
                    <path d="M3.17437542,36 C3.05709083,36.1882044 3,36.3573287 3,36.5 C3,37.0832312 3.95405741,38.1085244 6.07414694,39.0722014 C8.7347672,40.2815743 12.4715754,41 16.5,41 C20.5284246,41 24.2652328,40.2815743 26.9258531,39.0722014 C29.0459426,38.1085244 30,37.0832312 30,36.5 C30,36.3573287 29.9429092,36.1882044 29.8256246,36 L32.963915,36 C32.9878457,36.1652618 33,36.3319857 33,36.5 C33,40.6421356 25.6126984,44 16.5,44 C7.38730163,44 0,40.6421356 0,36.5 C0,36.3319857 0.0121542893,36.1652618 0.0360850102,36 L3.17437542,36 Z" id="Combined-Shape-Copy"></path>
                    <path d="M3.17437542,29 C3.05709083,29.1882044 3,29.3573287 3,29.5 C3,30.0832312 3.95405741,31.1085244 6.07414694,32.0722014 C8.7347672,33.2815743 12.4715754,34 16.5,34 C20.5284246,34 24.2652328,33.2815743 26.9258531,32.0722014 C29.0459426,31.1085244 30,30.0832312 30,29.5 C30,29.3573287 29.9429092,29.1882044 29.8256246,29 L32.963915,29 C32.9878457,29.1652618 33,29.3319857 33,29.5 C33,33.6421356 25.6126984,37 16.5,37 C7.38730163,37 0,33.6421356 0,29.5 C0,29.3319857 0.0121542893,29.1652618 0.0360850102,29 L3.17437542,29 Z" id="Combined-Shape-Copy-2"></path>
                    <path d="M3.17437542,22 C3.05709083,22.1882044 3,22.3573287 3,22.5 C3,23.0832312 3.95405741,24.1085244 6.07414694,25.0722014 C8.7347672,26.2815743 12.4715754,27 16.5,27 C20.5284246,27 24.2652328,26.2815743 26.9258531,25.0722014 C29.0459426,24.1085244 30,23.0832312 30,22.5 C30,22.3573287 29.9429092,22.1882044 29.8256246,22 L32.963915,22 C32.9878457,22.1652618 33,22.3319857 33,22.5 C33,26.6421356 25.6126984,30 16.5,30 C7.38730163,30 0,26.6421356 0,22.5 C0,22.3319857 0.0121542893,22.1652618 0.0360850102,22 L3.17437542,22 Z" id="Combined-Shape-Copy-3"></path>
                    <path d="M3.17437542,14 C3.05709083,14.1882044 3,14.3573287 3,14.5 C3,15.0832312 3.95405741,16.1085244 6.07414694,17.0722014 C8.7347672,18.2815743 12.4715754,19 16.5,19 C20.5284246,19 24.2652328,18.2815743 26.9258531,17.0722014 C29.0459426,16.1085244 30,15.0832312 30,14.5 C30,14.3573287 29.9429092,14.1882044 29.8256246,14 L32.963915,14 C32.9878457,14.1652618 33,14.3319857 33,14.5 C33,18.6421356 25.6126984,22 16.5,22 C7.38730163,22 0,18.6421356 0,14.5 C0,14.3319857 0.0121542893,14.1652618 0.0360850102,14 L3.17437542,14 Z" id="Combined-Shape-Copy-4"></path>
                </g>
                <g id="Group-2" transform="translate(31.000000, 22.000000)">
                    <polygon id="Line" points="0 6 3 6 3 25 0 25"></polygon>
                    <path d="M16.5,12 C20.5284246,12 24.2652328,11.2815743 26.9258531,10.0722014 C29.0459426,9.10852437 30,8.08323116 30,7.5 C30,6.91676884 29.0459426,5.89147563 26.9258531,4.92779857 C24.2652328,3.71842573 20.5284246,3 16.5,3 C12.4715754,3 8.7347672,3.71842573 6.07414694,4.92779857 C3.95405741,5.89147563 3,6.91676884 3,7.5 C3,8.08323116 3.95405741,9.10852437 6.07414694,10.0722014 C8.7347672,11.2815743 12.4715754,12 16.5,12 Z M16.5,15 C7.38730163,15 0,11.6421356 0,7.5 C0,3.35786438 7.38730163,0 16.5,0 C25.6126984,0 33,3.35786438 33,7.5 C33,11.6421356 25.6126984,15 16.5,15 Z" id="Oval-6"></path>
                    <path d="M3.17437542,22 C3.05709083,22.1882044 3,22.3573287 3,22.5 C3,23.0832312 3.95405741,24.1085244 6.07414694,25.0722014 C8.7347672,26.2815743 12.4715754,27 16.5,27 C20.5284246,27 24.2652328,26.2815743 26.9258531,25.0722014 C29.0459426,24.1085244 30,23.0832312 30,22.5 C30,22.3573287 29.9429092,22.1882044 29.8256246,22 L32.963915,22 C32.9878457,22.1652618 33,22.3319857 33,22.5 C33,26.6421356 25.6126984,30 16.5,30 C7.38730163,30 0,26.6421356 0,22.5 C0,22.3319857 0.0121542893,22.1652618 0.0360850102,22 L3.17437542,22 Z" id="Combined-Shape-Copy-3"></path>
                    <path d="M3.17437542,14 C3.05709083,14.1882044 3,14.3573287 3,14.5 C3,15.0832312 3.95405741,16.1085244 6.07414694,17.0722014 C8.7347672,18.2815743 12.4715754,19 16.5,19 C20.5284246,19 24.2652328,18.2815743 26.9258531,17.0722014 C29.0459426,16.1085244 30,15.0832312 30,14.5 C30,14.3573287 29.9429092,14.1882044 29.8256246,14 L32.963915,14 C32.9878457,14.1652618 33,14.3319857 33,14.5 C33,18.6421356 25.6126984,22 16.5,22 C7.38730163,22 0,18.6421356 0,14.5 C0,14.3319857 0.0121542893,14.1652618 0.0360850102,14 L3.17437542,14 Z" id="Combined-Shape-Copy-4"></path>
                    <polygon id="Line-Copy" points="30 6 33 6 33 25 30 25"></polygon>
                </g>
            </g>
        </g>
    </g>
</svg>