<?xml version="1.0" encoding="UTF-8"?>
<svg width="64px" height="64px" viewBox="0 0 64 64" version="1.1" xmlns="http://www.w3.org/2000/svg" xmlns:xlink="http://www.w3.org/1999/xlink">
    <!-- Generator: Sketch 48.1 (47250) - http://www.bohemiancoding.com/sketch -->
    <title>eye</title>
    <desc>Created with Sketch.</desc>
    <defs></defs>
    <g id="Page-1" stroke="none" stroke-width="1" fill="none" fill-rule="evenodd">
        <g id="eye" fill="#000000" fill-rule="nonzero">
            <path d="M60.8030466,31.908047 C60.5042264,31.3104067 60.0511742,30.5566178 59.4844343,29.7358222 C58.0547565,27.6652542 56.1368836,25.4850135 53.8884066,23.4979873 C47.8708615,18.1801567 40.4986801,15 32,15 C23.5013199,15 16.1291385,18.1801567 10.1115934,23.4979873 C7.86311636,25.4850135 5.94524354,27.6652542 4.5155657,29.7358222 C3.94882581,30.5566178 3.49577361,31.3104067 3.19695345,31.908047 C3.16609103,32.0297924 3.18120795,32.060462 3.19695345,32.091953 C3.49577361,32.6895933 3.94882581,33.4433822 4.5155657,34.2641778 C5.94524354,36.3347458 7.86311636,38.5149865 10.1115934,40.5020127 C16.1291385,45.8198433 23.5013199,49 32,49 C40.4986801,49 47.8708615,45.8198433 53.8884066,40.5020127 C56.1368836,38.5149865 58.0547565,36.3347458 59.4844343,34.2641778 C60.0511742,33.4433822 60.5042264,32.6895933 60.8030466,32.091953 C60.833909,31.9702076 60.818792,31.939538 60.8030466,31.908047 Z M2.96217377,32.431725 C2.96010669,32.4373805 2.95811748,32.4429041 2.95620658,32.4482938 C2.95997391,32.437668 2.96394027,32.4250776 2.96788421,32.4095495 L2.96217377,32.431725 Z M32,52 C11,52 1.82273012e-16,34 0,32 C0,30 11,12 32,12 C53,12 64,30 64,32 C64,34 53,52 32,52 Z" id="Path-2"></path>
            <path d="M32,38 C35.3137085,38 38,35.3137085 38,32 C38,28.6862915 35.3137085,26 32,26 C28.6862915,26 26,28.6862915 26,32 C26,35.3137085 28.6862915,38 32,38 Z M32,41 C27.0294373,41 23,36.9705627 23,32 C23,27.0294373 27.0294373,23 32,23 C36.9705627,23 41,27.0294373 41,32 C41,36.9705627 36.9705627,41 32,41 Z" id="Oval-3"></path>
        </g>
    </g>
</svg>