<?xml version="1.0" encoding="UTF-8"?>
<svg width="64px" height="64px" viewBox="0 0 64 64" version="1.1" xmlns="http://www.w3.org/2000/svg" xmlns:xlink="http://www.w3.org/1999/xlink">
    <!-- Generator: Sketch 48.1 (47250) - http://www.bohemiancoding.com/sketch -->
    <title>Eye</title>
    <desc>Created with Sketch.</desc>
    <defs></defs>
    <g id="Page-1" stroke="none" stroke-width="1" fill="none" fill-rule="evenodd">
        <g id="Eye" fill="#000000" fill-rule="nonzero">
            <g id="eye" transform="translate(0.000000, 15.000000)">
                <path d="M32,0.3 C16,0.3 0,9.8 0,17.6 C0,25.4 16,33.4 32,33.4 C48,33.4 64,25.4 64,17.6 C64,9.8 48,0.3 32,0.3 Z M33,9.7 C33,8.6 33.9,7.8 35,7.8 C36.1,7.8 37,8.7 37,9.7 C37,10.8 36.1,11.6 35,11.6 C33.9,11.6 33,10.8 33,9.7 Z M32,9.7 C32,10.5 32.3,11.2 32.8,11.7 C32.5,11.7 32.2,11.6 32,11.6 C29.2,11.6 27,13.8 27,16.5 C27,19.2 29.2,21.4 32,21.4 C34.8,21.4 37,19.2 37,16.5 C37,14.9 36.2,13.5 35,12.6 C36.7,12.6 38,11.3 38,9.7 C38,9.5 38,9.3 37.9,9.1 C40.4,10.9 42,13.7 42,16.8 C42,22.1 37.5,26.4 32,26.4 C26.5,26.4 22,22.1 22,16.8 C22,11.5 26.5,7.2 32,7.2 C32.4,7.2 32.9,7.2 33.3,7.3 C32.5,7.8 32,8.7 32,9.7 Z M4,17.6 C4,15.6 6.9,12.3 11.9,9.5 C17.1,6.6 23.5,4.7 29.8,4.4 C23.7,5.4 19,10.6 19,16.8 C19,23.1 23.7,28.3 29.9,29.3 C23.5,29 16.9,27.4 11.7,24.8 C6.7,22.3 4,19.4 4,17.6 Z M52.2,24.8 C47,27.3 40.5,29 34,29.3 C40.2,28.3 44.9,23.1 44.9,16.8 C44.9,10.5 40.2,5.4 34.1,4.4 C40.4,4.8 46.8,6.6 52,9.5 C57.1,12.3 59.9,15.6 59.9,17.6 C60,19.4 57.3,22.3 52.2,24.8 Z" id="Shape"></path>
            </g>
        </g>
    </g>
</svg>