<?xml version="1.0" encoding="UTF-8"?>
<svg width="64px" height="64px" viewBox="0 0 64 64" version="1.1" xmlns="http://www.w3.org/2000/svg" xmlns:xlink="http://www.w3.org/1999/xlink">
    <!-- Generator: Sketch 48.1 (47250) - http://www.bohemiancoding.com/sketch -->
    <title>History</title>
    <desc>Created with Sketch.</desc>
    <defs></defs>
    <g id="Page-1" stroke="none" stroke-width="1" fill="none" fill-rule="evenodd">
        <g id="History" fill="#000000" fill-rule="nonzero">
            <g id="book" transform="translate(11.000000, 0.000000)">
                <path d="M35,0 L0,0 L0,56 L4,56 L4,64 L9,62 L14,64 L14,56 L35,56 C38.9,56 42,52.9 42,49 L42,7 C42,3.1 38.9,0 35,0 Z M4,4 L8,4 L8,52 L4,52 L4,4 Z M9,58 L7,59 L7,56 L11,56 L11,59 L9,58 Z M38,49 C38,50.7 36.7,52 35,52 L12,52 L12,4 L35,4 C36.7,4 38,5.3 38,7 L38,49 Z M31,14 L19,14 C17.9,14 17,14.9 17,16 L17,20 C17,21.1 17.9,22 19,22 L31,22 C32.1,22 33,21.1 33,20 L33,16 C33,14.9 32.1,14 31,14 Z M30,19 L20,19 L20,17 L30,17 L30,19 Z" id="Shape"></path>
            </g>
        </g>
    </g>
</svg>