<?xml version="1.0" encoding="UTF-8"?>
<svg width="64px" height="64px" viewBox="0 0 64 64" version="1.1" xmlns="http://www.w3.org/2000/svg" xmlns:xlink="http://www.w3.org/1999/xlink">
    <!-- Generator: Sketch 48.1 (47250) - http://www.bohemiancoding.com/sketch -->
    <title>iota</title>
    <desc>Created with Sketch.</desc>
    <defs></defs>
    <g id="Page-1" stroke="none" stroke-width="1" fill="none" fill-rule="evenodd">
        <g id="iota" fill="#000000" fill-rule="nonzero">
            <g id="icon-7" transform="translate(0.000000, 2.000000)">
                <path d="M38.4849836,15.2131148 C38.8144262,15.6243934 39.307541,15.8709508 39.8824918,15.7062295 C40.0472131,15.7062295 40.1290492,15.6243934 40.2119344,15.5415082 C40.7879344,15.1302295 40.8697705,14.3905574 40.541377,13.8145574 C40.2948197,13.4851148 39.965377,13.3214426 39.5540984,13.3214426 C39.307541,13.3214426 39.0609836,13.4032787 38.8962623,13.568 C38.2384262,13.8974426 38.0737049,14.6371148 38.4849836,15.2131148 Z M35.3605246,12.1704918 C35.3605246,12.5817705 35.5252459,12.9101639 35.8536393,13.1577705 C36.264918,13.4872131 36.7580328,13.6508852 37.2511475,13.4872131 C37.4977049,13.405377 37.7442623,13.2406557 37.9089836,13.0759344 C38.155541,12.829377 38.3202623,12.4180984 38.2384262,12.0068197 C38.1565902,11.595541 38.0737049,11.2671475 37.7453115,11.019541 C37.4987541,10.7729836 37.1693115,10.6900984 36.840918,10.6900984 C36.4296393,10.6900984 36.0183607,10.8548197 35.7718033,11.1832131 C35.4423607,11.4297705 35.3605246,11.7592131 35.3605246,12.1704918 Z M32.2360656,11.4308197 C32.482623,11.595541 32.7291803,11.677377 33.058623,11.677377 C33.2233443,11.677377 33.3880656,11.677377 33.5517377,11.595541 C33.9630164,11.4308197 34.2914098,11.1842623 34.5390164,10.7729836 C34.7855738,10.3617049 34.7855738,9.95042623 34.7037377,9.53914754 C34.6219016,9.12786885 34.292459,8.71659016 33.8811803,8.55186885 C33.634623,8.38714754 33.3880656,8.38714754 33.1415082,8.38714754 C32.4836721,8.38714754 31.9076721,8.71659016 31.6611148,9.20970492 C31.0851148,9.94937705 31.4145574,11.0184918 32.2371148,11.4297705 L32.2360656,11.4308197 Z M27.6312131,10.443541 C27.9606557,10.525377 28.3708852,10.525377 28.7003279,10.443541 C29.3581639,10.2788197 29.8512787,9.78570492 30.016,9.12786885 C30.1807213,8.6347541 30.0978361,8.14059016 29.8512787,7.64747541 C29.6047213,7.15436066 29.1934426,6.82491803 28.7003279,6.74308197 C28.5356066,6.6612459 28.3708852,6.6612459 28.2072131,6.6612459 C27.3028197,6.6612459 26.5620984,7.2372459 26.315541,8.0587541 C25.9860984,9.12786885 26.5620984,10.1969836 27.6312131,10.443541 Z M22.039082,10.525377 C22.2856393,10.525377 22.5321967,10.525377 22.7787541,10.443541 C23.6831475,10.1969836 24.3409836,9.37442623 24.4238689,8.38819672 C24.4238689,7.81219672 24.2591475,7.15436066 23.8478689,6.74308197 C23.4365902,6.33180328 22.8605902,6.00340984 22.2856393,6.00340984 L22.2038033,6.00340984 C21.0528525,6.00340984 19.9837377,6.99068852 19.9008525,8.14163934 C19.8190164,9.45731148 20.8052459,10.5264262 22.039082,10.5264262 L22.039082,10.525377 Z M12.6646557,9.94937705 C12.9112131,11.1832131 13.9803279,12.1694426 15.296,12.1694426 L15.7891148,12.1694426 C15.8709508,12.1694426 15.9538361,12.1694426 16.0356721,12.0876066 C17.3513443,11.6763279 18.0910164,10.4424918 17.9273443,9.04498361 C17.6807869,7.81114754 16.6116721,6.82491803 15.296,6.82491803 L14.8028852,6.82491803 C13.405377,7.15436066 12.4180984,8.55186885 12.6646557,9.94937705 Z M38.9791475,19.8998033 C39.2257049,19.6532459 39.3904262,19.2419672 39.3085902,18.8306885 C39.3085902,18.4194098 39.1438689,18.0910164 38.8154754,17.8434098 C38.568918,17.5968525 38.2394754,17.5139672 37.8281967,17.5139672 C37.416918,17.5139672 37.0056393,17.6786885 36.759082,18.007082 C36.5125246,18.2536393 36.3478033,18.664918 36.4296393,19.0761967 C36.4296393,19.4874754 36.5943607,19.8158689 36.9227541,20.0634754 C37.1693115,20.3100328 37.4987541,20.392918 37.9100328,20.392918 C38.0747541,20.392918 38.1565902,20.392918 38.3213115,20.311082 C38.5678689,20.2292459 38.7325902,20.1463607 38.9791475,19.8998033 Z M35.6899672,16.4459016 C35.5252459,16.034623 35.2786885,15.6233443 34.8674098,15.458623 C34.6208525,15.2939016 34.3742951,15.2939016 34.1277377,15.2939016 C33.4699016,15.2939016 32.8939016,15.6233443 32.6473443,16.116459 C32.2360656,16.9390164 32.482623,17.9252459 33.3051803,18.3365246 C33.5517377,18.5012459 33.7982951,18.583082 34.1277377,18.583082 C34.292459,18.583082 34.4571803,18.583082 34.6208525,18.5012459 C35.0321311,18.3365246 35.3605246,18.0899672 35.6081311,17.6786885 C35.7728525,17.2674098 35.8546885,16.8561311 35.6899672,16.4448525 L35.6899672,16.4459016 Z M31.0851148,16.034623 C31.2498361,15.5415082 31.1669508,15.0473443 30.9203934,14.5542295 C30.6738361,14.1429508 30.2625574,13.8145574 29.7694426,13.6498361 C29.6047213,13.568 29.44,13.568 29.2763279,13.568 C28.3719344,13.568 27.6312131,14.144 27.3846557,14.9655082 C27.0552131,15.9527869 27.7140984,17.1037377 28.7003279,17.3502951 C29.0297705,17.4321311 29.44,17.4321311 29.7694426,17.3502951 C30.4272787,17.1855738 30.9203934,16.692459 31.0851148,16.034623 Z M25.5758689,15.2949508 C25.5758689,14.7189508 25.4111475,14.144 24.9998689,13.6498361 C24.5885902,13.2385574 24.0125902,12.9101639 23.4376393,12.9101639 L23.3558033,12.9101639 C22.2048525,12.9101639 21.1357377,13.8974426 21.0528525,15.0483934 C20.9710164,16.2822295 21.9572459,17.3513443 23.191082,17.4331803 L23.3558033,17.4331803 C23.6023607,17.4331803 23.767082,17.4331803 24.0136393,17.3513443 C24.8361967,17.1047869 25.4940328,16.2822295 25.5758689,15.296 L25.5758689,15.2949508 Z M16.3661639,13.7327213 L15.8730492,13.7327213 C14.475541,13.9792787 13.4882623,15.3778361 13.7348197,16.7753443 C13.899541,17.4331803 14.2279344,18.0910164 14.8039344,18.5022951 C15.3799344,18.9135738 16.1196066,19.0782951 16.7774426,18.9135738 C16.8592787,18.9135738 16.9421639,18.8317377 17.1068852,18.8317377 C18.4225574,18.420459 19.1622295,17.186623 18.9985574,15.8709508 C18.752,14.72 17.6828852,13.7327213 16.3672131,13.7327213 L16.3661639,13.7327213 Z M5.92262295,20.887082 C6.4157377,22.0380328 7.48485246,22.7787541 8.80052459,22.7787541 C9.12996721,22.7787541 9.37652459,22.696918 9.70491803,22.6140328 C9.7867541,22.6140328 9.95147541,22.5321967 10.0343607,22.4493115 C10.7740328,22.1198689 11.4318689,21.544918 11.6794754,20.7223607 C12.008918,19.9826885 12.008918,19.1601311 11.6794754,18.3375738 C11.1863607,17.186623 10.0343607,16.4459016 8.80157377,16.4459016 C8.39029508,16.4459016 7.97901639,16.5277377 7.5677377,16.692459 C6.0055082,17.4321311 5.26478689,19.3238033 5.92262295,20.8860328 L5.92262295,20.887082 Z M37.9939672,23.0253115 C37.7474098,22.8605902 37.5008525,22.8605902 37.2542951,22.8605902 C36.596459,22.8605902 36.020459,23.1900328 35.7739016,23.6831475 C35.362623,24.5057049 35.6091803,25.4919344 36.4317377,25.9032131 C36.8430164,26.1497705 37.2542951,26.1497705 37.7474098,26.0679344 C38.1586885,25.9032131 38.487082,25.6566557 38.7346885,25.245377 C39.1459672,24.5057049 38.8165246,23.5184262 37.9950164,23.0253115 L37.9939672,23.0253115 Z M30.5930492,24.0944262 C30.8396066,24.5057049 31.2508852,24.8340984 31.744,24.9988197 C31.9087213,25.0806557 32.0734426,25.0806557 32.2371148,25.0806557 C32.4018361,25.0806557 32.6483934,25.0806557 32.8131148,24.9988197 C33.4709508,24.8340984 33.9640656,24.3409836 34.1287869,23.6831475 C34.4582295,22.6140328 33.7993443,21.544918 32.8131148,21.2983607 C32.6483934,21.2165246 32.4836721,21.2165246 32.32,21.2165246 C31.4156066,21.2165246 30.6748852,21.7925246 30.4283279,22.6140328 C30.3464918,23.1071475 30.3464918,23.6013115 30.5930492,24.0944262 Z M28.619541,22.9434754 C28.701377,21.7096393 27.7151475,20.6405246 26.4813115,20.5586885 L26.3994754,20.5586885 C25.2485246,20.5586885 24.1794098,21.5459672 24.0965246,22.696918 C24.0146885,23.9307541 25.000918,24.9998689 26.2347541,25.0817049 L26.3165902,25.0817049 C26.5631475,25.0817049 26.7278689,25.0817049 26.9744262,24.9998689 C27.9617049,24.6704262 28.619541,23.848918 28.619541,22.9445246 L28.619541,22.9434754 Z M19.4916721,26.6439344 L19.9847869,26.6439344 C20.066623,26.6439344 20.1495082,26.6439344 20.3142295,26.5620984 C21.6299016,26.1508197 22.3695738,24.9169836 22.2059016,23.5194754 C21.9593443,22.2856393 20.8902295,21.2994098 19.5745574,21.2994098 L19.0814426,21.2994098 C17.6839344,21.5459672 16.6966557,22.9445246 16.9432131,24.3420328 C17.1079344,25.739541 18.1770492,26.6449836 19.4927213,26.6449836 L19.4916721,26.6439344 Z M14.7220984,28.4527213 C15.051541,27.7130492 15.051541,26.8076066 14.7220984,26.0679344 C14.2289836,24.9169836 13.0769836,24.1762623 11.8441967,24.1762623 C11.432918,24.1762623 11.0216393,24.2580984 10.6932459,24.4228197 C9.95357377,24.7522623 9.37757377,25.3272131 9.04813115,26.0679344 C8.71868852,26.8076066 8.71868852,27.7130492 9.04813115,28.4527213 C9.5412459,29.6036721 10.6932459,30.3443934 11.9260328,30.3443934 C12.2554754,30.3443934 12.5020328,30.2625574 12.8304262,30.1796721 L13.1598689,30.0978361 C13.899541,29.7683934 14.475541,29.1934426 14.7220984,28.4527213 Z M6.9917377,30.8375082 C6.33390164,29.9331148 5.18295082,29.3571148 4.03095082,29.3571148 C3.7015082,29.3571148 3.37311475,29.4389508 3.04367213,29.5218361 C2.63239344,29.6036721 2.304,29.8512787 1.97455738,30.0978361 C1.23488525,30.6738361 0.658885246,31.4953443 0.494163934,32.482623 C0.329442623,33.4699016 0.576,34.3742951 1.152,35.1958033 C1.80983607,36.1001967 2.96078689,36.6761967 4.11278689,36.6761967 C4.44222951,36.6761967 4.77062295,36.5943607 5.10006557,36.5114754 C5.51134426,36.4296393 5.8397377,36.1820328 6.16918033,35.9354754 C7.81429508,34.7016393 8.14268852,32.4815738 6.9917377,30.8375082 Z M45.9698361,43.584 C45.888,42.9261639 45.3938361,42.4330492 44.736,42.4330492 L44.6541639,42.4330492 C44.1610492,42.5148852 43.6668852,42.8443279 43.5850492,43.3374426 L43.5850492,43.7487213 C43.6668852,44.4065574 44.1610492,44.8996721 44.8188852,44.8996721 L44.9007213,44.8996721 C45.2301639,44.8996721 45.5585574,44.7349508 45.7232787,44.4883934 C45.888,44.1589508 46.0527213,43.8305574 45.9698361,43.584 Z M46.8742295,42.1864918 C46.7923934,42.4330492 46.7923934,42.6796066 46.8742295,43.0090492 C47.1207869,43.7487213 47.9433443,44.16 48.6830164,43.9134426 C49.012459,43.8316066 49.3408525,43.5021639 49.5055738,43.1737705 C49.6702951,42.8443279 49.7521311,42.4340984 49.5874098,42.1046557 C49.5055738,41.7752131 49.2579672,41.4468197 48.8477377,41.2820984 C48.6830164,41.2002623 48.436459,41.117377 48.1899016,41.117377 C48.0251803,41.117377 47.860459,41.117377 47.778623,41.1992131 C47.2855082,41.2810492 46.9560656,41.6923279 46.8742295,42.1864918 Z M50.3281311,39.883541 C50.2462951,40.2948197 50.3281311,40.7879344 50.4928525,41.117377 C50.7394098,41.5286557 51.0688525,41.7752131 51.4801311,41.8570492 L51.8914098,41.9388852 C52.2208525,41.9388852 52.4674098,41.8570492 52.7139672,41.6923279 C53.4536393,41.1992131 53.7012459,40.1300984 53.2899672,39.389377 C52.9605246,38.8962623 52.4674098,38.5668197 51.892459,38.5668197 C51.5630164,38.5668197 51.316459,38.6486557 51.0699016,38.813377 C50.658623,39.0599344 50.4120656,39.4712131 50.3302295,39.8824918 L50.3281311,39.883541 Z M55.5908197,38.7325902 C56.0839344,38.7325902 56.5780984,38.5678689 56.9064918,38.1565902 C57.6461639,37.416918 57.6461639,36.183082 56.9883279,35.4434098 C56.6588852,35.0321311 56.1657705,34.8674098 55.5908197,34.8674098 C55.0977049,34.8674098 54.603541,35.0321311 54.1933115,35.4434098 C53.9467541,35.6899672 53.7820328,36.0194098 53.7001967,36.3478033 C53.5354754,37.0056393 53.7001967,37.6634754 54.1933115,38.1565902 C54.5227541,38.4860328 55.0158689,38.7325902 55.5908197,38.7325902 L55.5908197,38.9791475 L55.5908197,38.7325902 Z M60.6887869,32.9767869 C61.346623,31.9076721 61.0182295,30.5101639 60.0309508,29.8523279 C59.7015082,29.6057705 59.2083934,29.5228852 58.7971148,29.5228852 C58.0574426,29.5228852 57.3167213,29.9341639 56.9054426,30.592 C56.7407213,30.8385574 56.6588852,31.0032787 56.576,31.3316721 C56.3294426,32.2360656 56.7407213,33.2233443 57.5632787,33.7982951 C57.8927213,34.0448525 58.3858361,34.1277377 58.7971148,34.1277377 C58.9618361,34.1277377 59.1265574,34.1277377 59.2902295,34.0459016 C59.8662295,33.8811803 60.3593443,33.4699016 60.6877377,32.9767869 L60.6887869,32.9767869 Z M62.0862951,22.6979672 C61.7568525,22.6161311 61.5102951,22.5332459 61.1819016,22.5332459 C60.0309508,22.5332459 59.0436721,23.272918 58.7152787,24.2601967 L58.6334426,24.5067541 C58.304,25.8224262 59.0447213,27.1380984 60.2785574,27.6312131 C60.5251148,27.7130492 60.8545574,27.7959344 61.1829508,27.7959344 C62.3339016,27.7959344 63.3211803,27.0562623 63.6495738,26.0689836 C64.1426885,24.6714754 63.4848525,23.191082 62.0873443,22.696918 L62.0862951,22.6979672 Z M40.2948197,39.7198689 C40.2129836,39.9664262 40.2129836,40.2129836 40.2948197,40.459541 C40.3766557,40.7889836 40.7060984,41.117377 41.0344918,41.2820984 C41.1992131,41.3639344 41.4457705,41.4468197 41.6923279,41.4468197 C41.8570492,41.4468197 42.0217705,41.4468197 42.1036066,41.3649836 C42.4330492,41.2831475 42.7614426,40.9537049 42.9261639,40.6253115 C43.0908852,40.2958689 43.1727213,39.8856393 43.008,39.5561967 C42.9261639,39.2267541 42.6785574,38.8983607 42.2683279,38.7336393 C42.1036066,38.6518033 41.8570492,38.568918 41.6104918,38.568918 C41.4457705,38.568918 41.2810492,38.568918 41.1992131,38.6507541 C40.7879344,38.8154754 40.459541,39.2267541 40.2948197,39.7198689 Z M44.9825574,39.3904262 C45.3938361,39.4722623 45.8869508,39.3904262 46.2163934,39.2257049 C46.9560656,38.7325902 47.2036721,37.7453115 46.7923934,36.9227541 C46.4629508,36.4296393 45.9698361,36.1001967 45.3948852,36.1001967 C45.0654426,36.1001967 44.8188852,36.1820328 44.5723279,36.3467541 C44.1610492,36.5933115 43.9144918,36.9227541 43.8326557,37.4158689 C43.7508197,37.8271475 43.8326557,38.3202623 43.997377,38.6497049 C44.2439344,39.0609836 44.573377,39.307541 44.9846557,39.389377 L44.9825574,39.3904262 Z M49.012459,36.183082 C49.5055738,36.183082 49.9997377,36.0183607 50.3281311,35.607082 C50.6575738,35.2776393 50.9041311,34.7845246 50.9041311,34.2095738 C50.9041311,33.716459 50.7394098,33.140459 50.4110164,32.8120656 C50.0815738,32.4007869 49.588459,32.2360656 49.0135082,32.2360656 C48.5203934,32.2360656 48.0262295,32.4007869 47.6978361,32.8120656 C47.4512787,33.058623 47.2865574,33.3880656 47.1218361,33.716459 C46.9571148,34.3742951 47.1218361,35.0321311 47.6149508,35.5252459 C48.0262295,36.0183607 48.5193443,36.183082 49.012459,36.183082 L49.012459,36.4296393 L49.012459,36.183082 Z M54.1933115,30.5091148 C54.5227541,30.016 54.6045902,29.44 54.5227541,28.7821639 C54.3580328,28.2061639 54.0296393,27.6312131 53.5354754,27.3017705 C53.2060328,27.0552131 52.712918,26.9723279 52.3016393,26.9723279 C51.5619672,26.9723279 50.8212459,27.3836066 50.4099672,28.0414426 C50.2452459,28.288 50.1634098,28.4527213 50.0805246,28.7811148 C49.8339672,29.6855082 50.2452459,30.6727869 51.0678033,31.2477377 C51.3972459,31.4942951 51.8903607,31.5771803 52.3016393,31.5771803 C52.4663607,31.5771803 52.631082,31.5771803 52.7947541,31.4953443 C53.3707541,31.330623 53.8638689,31.0022295 54.1922623,30.5080656 L54.1933115,30.5091148 Z M53.7820328,25.163541 C54.0285902,25.245377 54.3580328,25.3282623 54.6864262,25.3282623 C55.837377,25.3282623 56.8246557,24.5885902 57.1530492,23.6013115 C57.6461639,22.2038033 56.9064918,20.7234098 55.5908197,20.2292459 C55.261377,20.1474098 55.0148197,20.0645246 54.6864262,20.0645246 C54.2751475,20.0645246 53.9467541,20.1463607 53.5354754,20.311082 C52.8776393,20.6405246 52.3845246,21.1336393 52.1379672,21.7914754 C52.1379672,21.8733115 52.0561311,21.9561967 52.0561311,22.120918 C51.8095738,23.3547541 52.4674098,24.7522623 53.783082,25.163541 L53.7820328,25.163541 Z M55.2624262,17.5979016 L55.6737049,17.5979016 C57.2359344,17.5979016 58.5516066,16.4469508 58.7163279,14.8847213 C58.9628852,13.1577705 57.7290492,11.677377 56.0031475,11.4308197 L55.5918689,11.4308197 C54.1943607,11.4308197 52.9605246,12.4180984 52.631082,13.8156066 L52.5492459,14.1450492 C52.4674098,14.9676066 52.7139672,15.7901639 53.207082,16.448 C53.783082,17.1058361 54.440918,17.5171148 55.2624262,17.5989508 L55.2624262,17.5979016 Z M38.8983607,37.0874754 C38.9801967,36.6761967 38.9801967,36.183082 38.7336393,35.8536393 C38.4041967,35.3605246 37.911082,35.031082 37.3361311,35.031082 C37.0066885,35.031082 36.7601311,35.112918 36.5135738,35.2776393 C36.1022951,35.5241967 35.8557377,35.8536393 35.7739016,36.3467541 C35.6920656,36.7580328 35.7739016,37.2511475 35.938623,37.5805902 C36.2680656,38.0737049 36.7611803,38.4031475 37.3361311,38.4031475 C37.6655738,38.4031475 37.9121311,38.3213115 38.1586885,38.1565902 C38.4881311,37.9100328 38.7346885,37.4987541 38.8983607,37.0874754 Z M40.8718689,35.1139672 C41.3649836,35.1139672 41.8591475,34.9492459 42.187541,34.5379672 C42.9272131,33.7982951 42.9272131,32.564459 42.269377,31.8247869 C41.9399344,31.4135082 41.4468197,31.2487869 40.8718689,31.2487869 C40.3787541,31.2487869 39.8845902,31.4135082 39.4743607,31.8247869 C39.2278033,32.0713443 39.063082,32.4007869 38.8983607,32.7291803 C38.7336393,33.3870164 38.8983607,34.0448525 39.3914754,34.5379672 C39.8845902,34.8674098 40.3787541,35.1139672 40.8718689,35.1139672 Z M42.9272131,30.016 C43.2566557,30.2625574 43.7497705,30.3454426 44.1610492,30.3454426 C44.9007213,30.3454426 45.6414426,29.9341639 46.0527213,29.2763279 C46.7105574,28.2890492 46.3821639,26.8097049 45.3948852,26.1518689 C45.0654426,25.9053115 44.5723279,25.8224262 44.1610492,25.8224262 C43.421377,25.8224262 42.6806557,26.2337049 42.269377,26.891541 C42.1046557,27.1380984 42.0228197,27.3846557 41.9399344,27.6312131 C41.693377,28.5356066 42.1046557,29.5228852 42.9272131,30.016 Z M47.4502295,19.0793443 C47.1207869,18.9975082 46.8742295,18.914623 46.5458361,18.914623 C45.3948852,18.914623 44.4076066,19.6542951 44.0792131,20.6415738 L43.997377,20.8881311 C43.6679344,22.2038033 44.4086557,23.5194754 45.6424918,24.0125902 C45.9719344,24.0944262 46.2184918,24.1773115 46.5468852,24.1773115 C47.6978361,24.1773115 48.6851148,23.4376393 49.0135082,22.4503607 C49.506623,21.0528525 48.7669508,19.572459 47.4512787,19.0782951 L47.4502295,19.0793443 Z M47.9433443,10.280918 L47.5320656,10.280918 C46.1345574,10.280918 44.9007213,11.2681967 44.4894426,12.6657049 L44.4076066,12.9951475 C44.3257705,13.8177049 44.5723279,14.6402623 45.0654426,15.2980984 C45.5585574,15.9559344 46.2992787,16.3672131 47.1207869,16.4490492 L47.4502295,16.4490492 C49.012459,16.4490492 50.3281311,15.2152131 50.5746885,13.7358689 C50.6565246,12.9133115 50.4928525,12.0907541 49.9168525,11.432918 C49.5055738,10.775082 48.7659016,10.3638033 47.9433443,10.2819672 L47.9433443,10.280918 Z M46.4629508,7.32013115 L46.8742295,7.32013115 C48.436459,7.15540984 49.6702951,6.08629508 49.9986885,4.52406557 C50.0805246,4.11278689 50.1634098,3.7015082 50.0805246,3.29022951 C49.9158033,1.48144262 48.3535738,0.0828852459 46.4619016,0.0828852459 L46.050623,0.0828852459 C44.4883934,0.247606557 43.2545574,1.31672131 42.9261639,2.87895082 C42.8443279,3.29022951 42.8443279,3.7015082 42.8443279,4.11278689 C43.0908852,5.92157377 44.6531148,7.32013115 46.4629508,7.32013115 Z M17.7636721,32.7302295 C17.6818361,32.6483934 17.5989508,32.5655082 17.4342295,32.4836721 C17.2695082,32.4018361 17.1047869,32.4018361 16.9411148,32.4018361 C16.448,32.4018361 16.0367213,32.6483934 15.7901639,33.1415082 C15.6254426,33.4709508 15.6254426,33.7993443 15.7901639,34.0459016 C15.872,34.3753443 16.1196066,34.6219016 16.448,34.7855738 C16.6127213,34.8674098 16.7774426,34.8674098 16.9411148,34.8674098 C17.4342295,34.8674098 17.8455082,34.6208525 18.0920656,34.1277377 C18.2567869,33.716459 18.0920656,33.140459 17.762623,32.7302295 L17.7636721,32.7302295 Z M16.448,35.8546885 L16.1185574,35.8546885 C15.4607213,35.8546885 14.8847213,36.3478033 14.7210492,37.0056393 C14.6392131,37.335082 14.7210492,37.7453115 14.9676066,38.0747541 C15.2141639,38.4041967 15.5436066,38.6507541 15.872,38.7325902 C16.2832787,38.8144262 16.6116721,38.7325902 16.9411148,38.5678689 C17.2705574,38.3213115 17.5171148,38.0747541 17.5171148,37.6634754 C17.5989508,37.1703607 17.4352787,36.6761967 17.1058361,36.3478033 C16.9411148,36.0183607 16.6945574,35.8546885 16.448,35.8546885 Z M16.2832787,43.1737705 C17.1876721,43.1737705 17.9283934,42.3512131 17.9283934,41.4468197 C17.9283934,41.035541 17.7636721,40.5424262 17.4352787,40.2958689 C17.1058361,39.9664262 16.6956066,39.8027541 16.2843279,39.8027541 C15.7912131,39.8027541 15.3799344,39.9674754 15.0504918,40.2958689 C14.7210492,40.6253115 14.557377,41.035541 14.557377,41.4468197 C14.557377,42.4340984 15.3799344,43.1737705 16.2843279,43.1737705 L16.2843279,43.4203279 L16.2843279,43.1737705 L16.2832787,43.1737705 Z M17.5171148,48.354623 C17.6818361,48.354623 17.8465574,48.354623 17.9283934,48.2727869 C18.9975082,48.0262295 19.5735082,46.9571148 19.3259016,45.888 C19.2440656,45.5585574 19.0793443,45.2301639 18.7499016,44.9836066 C18.420459,44.6541639 17.9273443,44.4076066 17.4342295,44.4076066 C17.2695082,44.4076066 17.1047869,44.4076066 16.9411148,44.4894426 C16.448,44.6541639 16.0367213,44.9007213 15.7072787,45.3938361 C15.4607213,45.8051148 15.3778361,46.3811148 15.4607213,46.8742295 C15.7901639,47.778623 16.6116721,48.354623 17.5160656,48.354623 L17.5171148,48.354623 Z M21.2175738,53.7820328 C22.2866885,53.2060328 22.7798033,51.8085246 22.2048525,50.7394098 C22.1230164,50.4928525 21.9582951,50.3281311 21.7117377,50.1634098 C21.300459,49.7521311 20.724459,49.5055738 20.1495082,49.5055738 C19.8200656,49.5055738 19.4098361,49.5874098 19.1622295,49.7521311 C18.5862295,49.9986885 18.2578361,50.4918033 18.0112787,51.0678033 C17.8465574,51.6438033 17.8465574,52.2187541 18.176,52.7947541 C18.5872787,53.5344262 19.3269508,54.0285902 20.2313443,54.0285902 C20.5607869,54.0285902 20.8891803,53.9467541 21.218623,53.7820328 L21.2175738,53.7820328 Z M26.7268197,55.4271475 C26.6449836,55.3453115 26.5620984,55.2624262 26.5620984,55.1805902 C26.0689836,54.6874754 25.4111475,54.440918 24.7533115,54.440918 C24.0954754,54.440918 23.5194754,54.6874754 23.0263607,55.0987541 C21.8754098,56.0031475 21.7925246,57.7300984 22.696918,58.7992131 C23.1900328,59.3752131 23.9307541,59.7036066 24.7522623,59.7036066 C25.4100984,59.7036066 25.9860984,59.4570492 26.397377,59.1276066 C27.4664918,58.2232131 27.6312131,56.4962623 26.7268197,55.4271475 Z M21.8754098,31.4156066 L21.5459672,31.4156066 C21.2994098,31.4156066 20.9699672,31.4974426 20.8062951,31.6621639 C20.4768525,31.9087213 20.2302951,32.1552787 20.2302951,32.5665574 C20.148459,32.896 20.2302951,33.3062295 20.4768525,33.6356721 C20.7234098,33.9651148 20.9699672,34.2116721 21.3812459,34.2935082 C21.7925246,34.3753443 22.120918,34.2935082 22.4503607,34.1287869 C22.7798033,33.9640656 23.0263607,33.6356721 23.1081967,33.2243934 C23.1900328,32.7312787 23.0263607,32.2371148 22.696918,31.9087213 C22.3674754,31.5792787 22.120918,31.4974426 21.8743607,31.4156066 L21.8754098,31.4156066 Z M21.7106885,38.8165246 C22.615082,38.8165246 23.3558033,37.9939672 23.3558033,37.0895738 C23.3558033,36.6782951 23.191082,36.2670164 22.8626885,35.938623 C22.5332459,35.6091803 22.1230164,35.4455082 21.7117377,35.4455082 L21.6299016,35.4455082 C21.218623,35.4455082 20.8073443,35.6102295 20.4789508,35.938623 C20.1495082,36.2680656 19.9858361,36.6782951 19.9858361,37.172459 C19.9858361,38.0768525 20.8083934,38.8175738 21.7127869,38.8175738 L21.7127869,39.0641311 L21.7127869,38.8175738 L21.7106885,38.8165246 Z M21.2175738,41.0365902 C20.9710164,41.4478689 20.8881311,42.0238689 20.9710164,42.5169836 C21.2175738,43.339541 22.0401311,43.997377 22.8626885,43.997377 C23.0274098,43.997377 23.1921311,43.997377 23.2739672,43.915541 C24.343082,43.6689836 24.919082,42.5998689 24.6714754,41.5307541 C24.5896393,41.2013115 24.424918,40.872918 24.0954754,40.6263607 C23.7660328,40.296918 23.272918,40.0503607 22.7798033,40.0503607 C22.615082,40.0503607 22.4503607,40.0503607 22.2866885,40.1321967 C21.8754098,40.296918 21.4641311,40.6253115 21.2175738,41.0365902 Z M23.4376393,46.6287213 C23.272918,47.2047213 23.272918,47.7796721 23.6023607,48.3556721 C24.0136393,49.0953443 24.7533115,49.5895082 25.6577049,49.5895082 C25.9871475,49.5895082 26.315541,49.5076721 26.6449836,49.3429508 C27.7959344,48.7669508 28.2072131,47.3694426 27.6322623,46.3003279 C27.5504262,46.0537705 27.3857049,45.8890492 27.1391475,45.6424918 C26.7278689,45.2312131 26.1518689,44.9846557 25.576918,44.9846557 C25.2474754,44.9846557 24.8372459,45.0664918 24.5078033,45.2312131 C24.0146885,45.6424918 23.6034098,46.0537705 23.4386885,46.6287213 L23.4376393,46.6287213 Z M32.1542295,50.9870164 L31.9076721,50.740459 C31.4145574,50.2473443 30.7567213,50.0007869 30.0988852,50.0007869 C29.4410492,50.0007869 28.8650492,50.2473443 28.3719344,50.658623 C27.3028197,51.5630164 27.1380984,53.2899672 28.0424918,54.359082 C28.5356066,54.935082 29.2763279,55.3463607 30.0978361,55.3463607 C30.7556721,55.3463607 31.3316721,55.0998033 31.8247869,54.6885246 C32.4007869,54.1954098 32.7291803,53.6194098 32.7291803,52.8797377 C32.8110164,52.2219016 32.564459,51.5640656 32.1531803,50.9880656 L32.1542295,50.9870164 Z M38.8154754,55.4271475 L38.568918,55.1805902 C37.992918,54.7693115 37.4179672,54.5227541 36.6772459,54.5227541 L36.2659672,54.5227541 C35.4434098,54.6045902 34.7037377,55.0987541 34.210623,55.7565902 C33.7175082,56.4144262 33.4709508,57.2369836 33.634623,58.059541 C33.716459,58.8820984 34.210623,59.6217705 34.868459,60.1148852 C35.444459,60.5261639 36.0194098,60.7727213 36.7601311,60.7727213 C37.7474098,60.7727213 38.6518033,60.3614426 39.2267541,59.5388852 C40.1311475,58.3050492 39.9664262,56.4962623 38.8154754,55.4271475 Z M26.7268197,32.32 C27.6312131,32.32 28.3719344,31.5803279 28.3719344,30.5930492 C28.3719344,30.1817705 28.2072131,29.6886557 27.8788197,29.4420984 C27.549377,29.1126557 27.1391475,28.9489836 26.7278689,28.9489836 C25.8234754,28.9489836 25.0827541,29.771541 25.0827541,30.6759344 C25.0827541,31.5803279 25.8224262,32.3210492 26.7278689,32.3210492 L26.7278689,32.5676066 L26.7278689,32.3210492 L26.7268197,32.32 Z M26.0689836,36.020459 C26.315541,36.8430164 27.1380984,37.5008525 27.9606557,37.5008525 C28.125377,37.5008525 28.2900984,37.5008525 28.3719344,37.4190164 C28.8650492,37.2542951 29.2763279,37.0077377 29.6057705,36.514623 C29.8523279,36.1033443 29.9352131,35.5273443 29.8523279,35.0342295 C29.7704918,34.7047869 29.6057705,34.3763934 29.2763279,34.1298361 C28.9468852,33.8003934 28.4537705,33.5538361 27.9606557,33.5538361 C27.7959344,33.5538361 27.6312131,33.5538361 27.467541,33.6356721 C26.3984262,33.9651148 25.8224262,34.9513443 26.0700328,36.020459 L26.0689836,36.020459 Z M28.6184918,41.8591475 C29.0297705,42.5988197 29.7694426,43.0929836 30.6738361,43.0929836 C31.0032787,43.0929836 31.3316721,43.0111475 31.6611148,42.8464262 C32.8120656,42.2704262 33.2233443,40.872918 32.6483934,39.8038033 C32.5665574,39.5572459 32.4018361,39.3925246 32.1552787,39.2278033 C31.744,38.8165246 31.168,38.5699672 30.5930492,38.5699672 C30.2636066,38.5699672 29.853377,38.6518033 29.5239344,38.8165246 C28.4548197,39.3925246 28.043541,40.7900328 28.619541,41.8591475 L28.6184918,41.8591475 Z M33.1415082,47.9443934 C33.634623,48.5203934 34.3753443,48.8487869 35.1968525,48.8487869 C35.8546885,48.8487869 36.4306885,48.6022295 36.9238033,48.1909508 C38.0747541,47.2865574 38.1576393,45.5596066 37.2532459,44.4904918 C37.1714098,44.4086557 37.0885246,44.3257705 37.0885246,44.2439344 C36.5954098,43.7508197 35.9375738,43.5042623 35.2797377,43.5042623 C34.6219016,43.5042623 34.0459016,43.7508197 33.5527869,44.1620984 C32.3189508,45.149377 32.1552787,46.7934426 33.1415082,47.9443934 Z M44.2428852,53.0423607 C45.1472787,51.8085246 45.0654426,49.9997377 43.9134426,48.930623 L43.6668852,48.6840656 C43.0908852,48.2727869 42.5159344,48.0262295 41.7752131,48.0262295 L41.3639344,48.0262295 C40.541377,48.1080656 39.8017049,48.6022295 39.3085902,49.2600656 C38.8154754,49.9179016 38.6507541,50.740459 38.7325902,51.5630164 C38.8144262,52.3855738 39.3085902,53.1252459 39.883541,53.6183607 C40.459541,54.0296393 41.0344918,54.2761967 41.7752131,54.2761967 L42.1864918,54.2761967 C43.0090492,54.1114754 43.7487213,53.7001967 44.2418361,53.0423607 L44.2428852,53.0423607 Z M53.1241967,52.4663607 C52.7947541,52.2198033 52.4663607,51.9732459 52.136918,51.8085246 C51.6438033,51.6438033 51.1496393,51.479082 50.6565246,51.479082 C49.2590164,51.479082 47.9433443,52.3016393 47.3673443,53.6173115 C46.7095082,55.0148197 47.0379016,56.6599344 48.1899016,57.7290492 C48.5193443,57.9756066 48.8477377,58.2221639 49.2590164,58.3868852 C49.7521311,58.6334426 50.2462951,58.7163279 50.7394098,58.7163279 C52.136918,58.7163279 53.4525902,57.8937705 54.0285902,56.5780984 C54.5217049,55.1805902 54.1933115,53.5354754 53.1241967,52.4663607 Z" id="Shape"></path>
            </g>
        </g>
    </g>
</svg>