<?xml version="1.0" encoding="UTF-8"?>
<svg width="64px" height="64px" viewBox="0 0 64 64" version="1.1" xmlns="http://www.w3.org/2000/svg" xmlns:xlink="http://www.w3.org/1999/xlink">
    <!-- Generator: Sketch 48.1 (47250) - http://www.bohemiancoding.com/sketch -->
    <title>Lanuage</title>
    <desc>Created with Sketch.</desc>
    <defs></defs>
    <g id="Page-1" stroke="none" stroke-width="1" fill="none" fill-rule="evenodd">
        <g id="Lanuage" fill="#000000" fill-rule="nonzero">
            <g id="language" transform="translate(2.000000, 4.000000)">
                <path d="M30.4,9.2 L0,9.2 L0,13.7 L27,13.7 C25.3,17.9 22.9,21.4 19.8,23.9 C16.5,26.6 12,28.7 6.2,30.1 L8.7,34.4 C15.7,32.6 21.1,29.8 25,25.9 C28.3,22.5 31,17.5 33,11.2 L30.4,9.2 Z M3.7,0 L28.5,0 L28.5,4.5 L3.7,4.5 L3.7,0 Z M46.9,21 L40.4,21 L27,56 L33.1,56 L36.3,47.2 L51,47.2 L54.2,56 L60.3,56 L46.9,21 Z M38,42.5 L43.5,27.2 L43.7,27.2 L49.2,42.5 L38,42.5 Z" id="Shape"></path>
            </g>
        </g>
    </g>
</svg>