<?xml version="1.0" encoding="UTF-8"?>
<svg width="64px" height="64px" viewBox="0 0 64 64" version="1.1" xmlns="http://www.w3.org/2000/svg" xmlns:xlink="http://www.w3.org/1999/xlink">
    <!-- Generator: Sketch 48.1 (47250) - http://www.bohemiancoding.com/sketch -->
    <title>Mode</title>
    <desc>Created with Sketch.</desc>
    <defs></defs>
    <g id="Page-1" stroke="none" stroke-width="1" fill="none" fill-rule="evenodd">
        <g id="Mode" fill="#000000" fill-rule="nonzero">
            <g id="levels" transform="translate(3.000000, 0.000000)">
                <path d="M8,6 L8,3 C8,1.3 6.7,0 5,0 C3.3,0 2,1.3 2,3 L2,6 C0.9,6 0,6.9 0,8 L0,16 C0,17.1 0.9,18 2,18 L2,61 C2,62.7 3.3,64 5,64 C6.7,64 8,62.7 8,61 L8,18 C9.1,18 10,17.1 10,16 L10,8 C10,6.9 9.1,6 8,6 Z M24,48 L24,3 C24,1.3 22.7,0 21,0 C19.3,0 18,1.3 18,3 L18,48 C16.9,48 16,48.9 16,50 L16,58 C16,59.1 16.9,60 18,60 L18,61 C18,62.7 19.3,64 21,64 C22.7,64 24,62.7 24,61 L24,60 C25.1,60 26,59.1 26,58 L26,50 C26,48.9 25.1,48 24,48 Z M40,22 L40,3 C40,1.3 38.7,0 37,0 C35.3,0 34,1.3 34,3 L34,22 C32.9,22 32,22.9 32,24 L32,32 C32,33.1 32.9,34 34,34 L34,61 C34,62.7 35.3,64 37,64 C38.7,64 40,62.7 40,61 L40,34 C41.1,34 42,33.1 42,32 L42,24 C42,22.9 41.1,22 40,22 Z M56,36 L56,3 C56,1.3 54.7,0 53,0 C51.3,0 50,1.3 50,3 L50,36 C48.9,36 48,36.9 48,38 L48,46 C48,47.1 48.9,48 50,48 L50,61 C50,62.7 51.3,64 53,64 C54.7,64 56,62.7 56,61 L56,48 C57.1,48 58,47.1 58,46 L58,38 C58,36.9 57.1,36 56,36 Z" id="Shape"></path>
            </g>
        </g>
    </g>
</svg>