<?xml version="1.0" encoding="UTF-8"?>
<svg width="64px" height="64px" viewBox="0 0 64 64" version="1.1" xmlns="http://www.w3.org/2000/svg" xmlns:xlink="http://www.w3.org/1999/xlink">
    <!-- Generator: Sketch 48.1 (47250) - http://www.bohemiancoding.com/sketch -->
    <title>Combined Shape</title>
    <desc>Created with Sketch.</desc>
    <defs></defs>
    <g id="Node" stroke="none" stroke-width="1" fill="none" fill-rule="evenodd">
        <path d="M15.046875,46.0625 C7.01285777,46.0625 0.5,39.5496422 0.5,31.515625 C0.5,23.4816078 7.01285777,16.96875 15.046875,16.96875 C19.296661,16.96875 23.2479465,18.802794 25.9881279,21.9288068 L41.5780293,14.5923826 C41.3198412,13.6436172 41.1875,12.6586242 41.1875,11.65625 C41.1875,5.49482327 46.1823233,0.5 52.34375,0.5 C58.5051767,0.5 63.5,5.49482327 63.5,11.65625 C63.5,17.8176767 58.5051767,22.8125 52.34375,22.8125 C48.6836363,22.8125 45.3254532,21.035816 43.2512135,18.1221649 L28.165184,25.221473 C29.1003763,27.166948 29.59375,29.3062503 29.59375,31.515625 C29.59375,33.448283 29.2163613,35.3285404 28.4936512,37.0746781 L43.5709165,45.4509366 C45.6673153,42.7847625 48.872349,41.1875 52.34375,41.1875 C58.5051767,41.1875 63.5,46.1823233 63.5,52.34375 C63.5,58.5051767 58.5051767,63.5 52.34375,63.5 C46.1823233,63.5 41.1875,58.5051767 41.1875,52.34375 C41.1875,51.1595389 41.3722356,50.0001078 41.730278,48.8969493 L26.5270963,40.4507372 C23.7934335,43.959839 19.5952735,46.0625 15.046875,46.0625 Z M15.046875,42.65625 C21.1996723,42.65625 26.1875,37.6684223 26.1875,31.515625 C26.1875,25.3628277 21.1996723,20.375 15.046875,20.375 C8.89407771,20.375 3.90625,25.3628277 3.90625,31.515625 C3.90625,37.6684223 8.89407771,42.65625 15.046875,42.65625 Z M52.34375,19.40625 C56.6239568,19.40625 60.09375,15.9364568 60.09375,11.65625 C60.09375,7.37604319 56.6239568,3.90625 52.34375,3.90625 C48.0635432,3.90625 44.59375,7.37604319 44.59375,11.65625 C44.59375,15.9364568 48.0635432,19.40625 52.34375,19.40625 Z M52.34375,60.09375 C56.6239568,60.09375 60.09375,56.6239568 60.09375,52.34375 C60.09375,48.0635432 56.6239568,44.59375 52.34375,44.59375 C48.0635432,44.59375 44.59375,48.0635432 44.59375,52.34375 C44.59375,56.6239568 48.0635432,60.09375 52.34375,60.09375 Z" id="Combined-Shape" fill="#000000" fill-rule="nonzero"></path>
    </g>
</svg>