<?xml version="1.0" encoding="UTF-8"?>
<svg width="64px" height="64px" viewBox="0 0 64 64" version="1.1" xmlns="http://www.w3.org/2000/svg" xmlns:xlink="http://www.w3.org/1999/xlink">
    <!-- Generator: Sketch 48.1 (47250) - http://www.bohemiancoding.com/sketch -->
    <title>Password</title>
    <desc>Created with Sketch.</desc>
    <defs></defs>
    <g id="Page-1" stroke="none" stroke-width="1" fill="none" fill-rule="evenodd">
        <g id="Password" fill="#000000" fill-rule="nonzero">
            <g id="padlock" transform="translate(8.000000, 0.000000)">
                <path d="M44,32 L42,32 L42,18 C42,8.1 33.9,0 24,0 C14.1,0 6,8.1 6,18 L6,32 L4,32 C1.8,32 0,33.8 0,36 L0,60 C0,62.2 1.8,64 4,64 L44,64 C46.2,64 48,62.2 48,60 L48,36 C48,33.8 46.2,32 44,32 Z M11,18 C11,10.8 16.8,5 24,5 C31.2,5 37,10.8 37,18 L37,32 L11,32 L11,18 Z M43,59 L5,59 L5,37 L43,37 L43,59 Z" id="Shape"></path>
                <circle id="Oval" cx="24" cy="48" r="5"></circle>
            </g>
        </g>
    </g>
</svg>