<?xml version="1.0" encoding="UTF-8"?>
<svg width="64px" height="64px" viewBox="0 0 64 64" version="1.1" xmlns="http://www.w3.org/2000/svg" xmlns:xlink="http://www.w3.org/1999/xlink">
    <!-- Generator: Sketch 48.1 (47250) - http://www.bohemiancoding.com/sketch -->
    <title>Receive</title>
    <desc>Created with Sketch.</desc>
    <defs></defs>
    <g id="Page-1" stroke="none" stroke-width="1" fill="none" fill-rule="evenodd">
        <g id="Receive" fill="#000000" fill-rule="nonzero">
            <g id="download">
                <path d="M64,53 C64,51.9 63.1,51 62,51 C60.9,51 60,51.9 60,53 L60,56.1 C60,58.3 58.2,60.1 56,60.1 L8,60.1 C5.8,60.1 4,58.3 4,56.1 L4,53 C4,51.9 3.1,51 2,51 C0.9,51 0,51.9 0,53 L0,56 C0,60.4 3.6,64 8,64 L56,64 C60.4,64 64,60.4 64,56 L64,53 Z M30.6,49.6 C31,50 31.5,50.2 32,50.2 C32.5,50.2 33,50 33.4,49.6 L47.5,35.5 C48.3,34.7 48.3,33.4 47.5,32.7 C46.7,31.9 45.5,31.9 44.7,32.7 L34,43.3 L34,2 C34,0.9 33.1,0 32,0 C30.9,0 30,0.9 30,2 L30,43.3 L19.3,32.6 C18.5,31.8 17.2,31.8 16.5,32.6 C15.7,33.4 15.7,34.6 16.5,35.4 L30.6,49.6 Z" id="Shape"></path>
            </g>
        </g>
    </g>
</svg>