<?xml version="1.0" encoding="UTF-8"?>
<svg width="64px" height="64px" viewBox="0 0 64 64" version="1.1" xmlns="http://www.w3.org/2000/svg" xmlns:xlink="http://www.w3.org/1999/xlink">
    <!-- Generator: Sketch 48.1 (47250) - http://www.bohemiancoding.com/sketch -->
    <title>Send</title>
    <desc>Created with Sketch.</desc>
    <defs></defs>
    <g id="Page-1" stroke="none" stroke-width="1" fill="none" fill-rule="evenodd">
        <g id="Send"></g>
        <g id="upload" fill="#000000" fill-rule="nonzero">
            <path d="M64,54 C64,52.9 63.1,52 62,52 C60.9,52 60,52.9 60,54 L60,57.1 C60,59.3 58.2,61.1 56,61.1 L8,61.1 C5.8,61.1 4,59.3 4,57.1 L4,54 C4,52.9 3.1,52 2,52 C0.9,52 0,52.9 0,54 L0,57 C0,61.4 3.6,65 8,65 L56,65 C60.4,65 64,61.4 64,57 L64,54 Z M19.3,18.4 L30,7.7 L30,47 C30,48.1 30.9,49 32,49 C33.1,49 34,48.1 34,47 L34,7.7 L44.7,18.4 C45.5,19.2 46.7,19.2 47.5,18.4 C48.3,17.6 48.3,16.4 47.5,15.6 L33.4,1.4 C33,1.1 32.5,0.9 32,0.9 C31.5,0.9 31,1.1 30.6,1.5 L16.4,15.6 C15.6,16.4 15.6,17.6 16.4,18.4 C17.2,19.2 18.5,19.2 19.3,18.4 Z" id="Shape"></path>
        </g>
    </g>
</svg>