<?xml version="1.0" encoding="UTF-8"?>
<svg width="64px" height="64px" viewBox="0 0 64 64" version="1.1" xmlns="http://www.w3.org/2000/svg" xmlns:xlink="http://www.w3.org/1999/xlink">
    <!-- Generator: Sketch 48.1 (47250) - http://www.bohemiancoding.com/sketch -->
    <title>wallet</title>
    <desc>Created with Sketch.</desc>
    <defs></defs>
    <g id="Page-1" stroke="none" stroke-width="1" fill="none" fill-rule="evenodd">
        <g id="wallet" fill="#000000" fill-rule="nonzero">
            <g id="box" transform="translate(0.000000, 8.000000)">
                <path d="M64,4 C64,1.8 62.2,0 60,0 L4,0 C1.8,0 0,1.8 0,4 L0,44 C0,46.2 1.8,48 4,48 L60,48 C62.2,48 64,46.2 64,44 L64,4 Z M4,4 L60,4 L60,16 L4,16 L4,4 Z M40,20 C38.2,22.4 35.3,24 32,24 C28.7,24 25.8,22.4 24,20 L40,20 Z M60,20 L60,44 L4,44 L4,20 L19.3,20 C21.6,24.8 26.4,28 32,28 C37.6,28 42.4,24.8 44.7,20 L60,20 Z" id="Shape"></path>
            </g>
        </g>
    </g>
</svg>