<svg xmlns="http://www.w3.org/2000/svg" viewBox="0 0 64 64" enable-background="new 0 0 64 64"><path d="M53.5 28c.8 0 1.5.7 1.5 1.5v5c0 .8-.7 1.5-1.5 1.5s-1.5-.7-1.5-1.5v-5c0-.8.7-1.5 1.5-1.5zm10-6c-.3-.7-.9-1.2-1.5-1.5-.7-.3-1.3-.5-3.1-.5h-.9v-5.3c0-2.7-.3-3.6-.8-4.6s-1.3-1.7-2.3-2.3c-.9-.5-1.9-.8-4.6-.8h-42.6c-2.7 0-3.6.3-4.6.8s-1.7 1.3-2.3 2.3c-.5.9-.8 1.9-.8 4.6v34.6c0 2.7.3 3.6.8 4.6s1.3 1.7 2.3 2.3c1 .5 1.9.8 4.6.8h42.6c2.7 0 3.6-.3 4.6-.8s1.7-1.3 2.3-2.3c.5-1 .8-1.9.8-4.6v-5.3h.9c1.8 0 2.4-.2 3.1-.5s1.2-.9 1.5-1.5c.3-.7.5-1.3.5-3.1v-13.8c0-1.8-.2-2.4-.5-3.1zm-8.5 27.3c0 2-.1 2.6-.4 3.2-.2.5-.6.8-1 1-.6.3-1.2.4-3.2.4h-42.7c-2 0-2.6-.1-3.2-.4-.5-.2-.8-.6-1-1-.3-.6-.4-1.2-.4-3.2v-34.6c0-2 .1-2.6.4-3.2.2-.5.6-.8 1-1 .6-.3 1.2-.4 3.2-.4h42.6c2 0 2.6.1 3.2.4.5.2.8.6 1 1 .3.6.4 1.2.4 3.2v5.3h-3.9c-1.8 0-2.4.2-3.1.5s-1.2.9-1.5 1.5c-.2.7-.4 1.3-.4 3.1v13.7c0 1.8.2 2.4.5 3.1s.9 1.2 1.5 1.5c.7.3 1.3.5 3.1.5h3.9v5.4zm6-10.4c0 1.2 0 1.4-.2 1.7l-.3.3c-.2.1-.5.1-1.6.1h-7.7c-1.2 0-1.4 0-1.7-.2l-.3-.3c-.2-.2-.2-.5-.2-1.6v-13.8c0-1.2 0-1.4.2-1.7l.3-.3c.2-.1.5-.1 1.6-.1h7.7c1.2 0 1.4 0 1.7.2l.3.3c.2.2.2.5.2 1.6v13.8z"/></svg>